<?xml version="1.0" standalone="no"?>
<!DOCTYPE svg PUBLIC "-//W3C//DTD SVG 1.1//EN" "http://www.w3.org/Graphics/SVG/1.1/DTD/svg11.dtd" >
<svg xmlns="http://www.w3.org/2000/svg">
<metadata></metadata>
<defs>
<font id="liberation_sans_alchemyRg" horiz-adv-x="556" >
<font-face units-per-em="1000" ascent="750" descent="-250" />
<missing-glyph horiz-adv-x="278" />
<glyph unicode="&#xd;" horiz-adv-x="278" />
<glyph unicode=" "  horiz-adv-x="278" />
<glyph unicode="&#x09;" horiz-adv-x="278" />
<glyph unicode="&#xa0;" horiz-adv-x="278" />
<glyph unicode="!" horiz-adv-x="278" d="M175 194h-72l-12 494h96zM90 0v98h95v-98h-95z" />
<glyph unicode="&#x22;" horiz-adv-x="355" d="M302 472h-70l-9 216h89zM122 472h-69l-11 216h90z" />
<glyph unicode="#" d="M437 432l-38 -180h127v-53h-138l-43 -199h-53l41 199h-177l-41 -199h-53l41 199h-99v53h110l38 180h-123v53h134l44 199h53l-43 -199h178l42 199h54l-43 -199h103v-53h-114zM208 432l-40 -180h177l38 180h-175z" />
<glyph unicode="$" d="M253 10q-106 4 -166 49t-76 126l83 18q5 -26 16.5 -47t30.5 -36.5t46.5 -25.5t65.5 -12v242l-10 3q-37 8 -73.5 20.5t-64.5 32.5t-45.5 51.5t-17.5 79.5q0 41 15.5 71t43.5 50.5t67 31t85 12.5v64h60v-64q49 -2 84.5 -13t60.5 -30.5t41 -47.5t26 -65l-85 -16 q-10 46 -39.5 71.5t-87.5 30.5v-217q29 -7 57 -14t53 -17t46.5 -24t37 -33t24.5 -45.5t9 -62.5q0 -37 -13.5 -69t-41.5 -56.5t-70.5 -39.5t-101.5 -18v-79h-60v79zM456 192q0 31 -11.5 50.5t-31 32t-45.5 20.5t-55 15v-228q32 1 58.5 9t45.5 21.5t29 33.5t10 46zM126 512 q0 -27 10 -45t27 -30t40 -20t50 -15v205q-35 -2 -59.5 -10t-39.5 -20.5t-21.5 -29t-6.5 -35.5z" />
<glyph unicode="%" horiz-adv-x="889" d="M854 212q0 -61 -12.5 -103t-34 -67.5t-50 -36.5t-60.5 -11t-60 11t-49 36.5t-33 67t-12 103.5q0 65 12 107.5t33 67.5t49.5 35t61.5 10q32 0 60.5 -10t49 -35t33 -67.5t12.5 -107.5zM257 0h-75l450 688h76zM192 694q32 0 59.5 -10t48.5 -35t33 -67t12 -106 q0 -61 -12 -103t-33 -68.5t-49 -37.5t-61 -11q-32 0 -60.5 11t-49 37t-32.5 68t-12 104q0 64 12 106t33 67t49.5 35t61.5 10zM781 212q0 48 -5 80t-15.5 51t-26 27t-35.5 8t-36 -8t-26.5 -27t-16 -51t-5.5 -80q0 -46 5.5 -77.5t16 -51t26 -27.5t35.5 -8q19 0 34.5 8 t26.5 27.5t16.5 51t5.5 77.5zM273 476q0 48 -5 79.5t-15.5 50.5t-25.5 27t-35 8q-21 0 -36.5 -8t-26.5 -27t-16.5 -51t-5.5 -79q0 -46 6 -78t16.5 -51t26 -27.5t35.5 -8.5q19 0 34 8.5t26 27.5t16.5 51t5.5 78z" />
<glyph unicode="&#x26;" horiz-adv-x="667" d="M583 -6q-47 0 -82.5 16t-63.5 46q-15 -13 -33.5 -24.5t-41 -21t-49 -15t-58.5 -5.5q-57 0 -98.5 15t-68.5 40.5t-40 60.5t-13 75q0 39 12.5 70.5t34.5 57t53 46t68 36.5q-9 16 -16 35t-12.5 38t-8.5 38t-3 36q0 32 10 60t30.5 49t53 33t77.5 12q36 0 66 -9.5t52 -27 t34.5 -43.5t12.5 -59q0 -36 -16.5 -65t-43.5 -51t-63.5 -40.5t-76.5 -34.5q30 -56 65.5 -105t77.5 -96q30 44 49.5 92.5t33.5 107.5l71 -21q-17 -68 -43 -123.5t-60 -105.5q26 -27 51.5 -37.5t49.5 -10.5q16 0 30.5 1.5t26.5 6.5v-66q-13 -5 -31.5 -8t-36.5 -3zM424 553 q0 18 -6.5 33t-18 25.5t-28.5 16t-38 5.5q-46 0 -70.5 -25t-24.5 -70q0 -29 9 -60.5t23 -58.5q31 13 59.5 26t49.5 29t33 35.5t12 43.5zM388 106q-43 51 -83 107.5t-73 115.5q-55 -23 -85 -59.5t-30 -87.5q0 -27 8.5 -50t26 -40.5t44.5 -27.5t62 -10q22 0 41 4.5t36 12 t30 17t23 18.5z" />
<glyph unicode="'" horiz-adv-x="191" d="M130 472h-69l-10 216h90z" />
<glyph unicode="(" horiz-adv-x="333" d="M62 260q0 68 10.5 130t32 119t56 110.5t81.5 105.5h85q-46 -52 -79.5 -106t-55 -111t-32 -119t-10.5 -130t10.5 -130t32 -119.5t55 -111.5t79.5 -105h-85q-47 51 -81.5 105t-56 111t-32 118.5t-10.5 130.5v2z" />
<glyph unicode=")" horiz-adv-x="333" d="M271 258q0 -69 -10.5 -130.5t-32 -118.5t-56 -111t-81.5 -105h-85q46 51 79.5 105t55 111.5t32 119.5t10.5 130t-10.5 130t-32 119t-55 111t-79.5 106h85q47 -52 81.5 -105.5t56 -110.5t32 -119t10.5 -130v-2z" />
<glyph unicode="*" horiz-adv-x="389" d="M223 544l129 50l22 -64l-138 -36l90 -122l-58 -35l-73 126l-76 -125l-58 35l92 121l-137 36l22 65l130 -52l-5 145h66z" />
<glyph unicode="+" horiz-adv-x="584" d="M328 297v-209h-72v209h-207v71h207v209h72v-209h207v-71h-207z" />
<glyph unicode="," horiz-adv-x="278" d="M188 107v-82q0 -26 -2 -47t-7 -39.5t-12 -34.5t-17 -32h-60q22 32 34 64t12 64h-43v107h95z" />
<glyph unicode="-" horiz-adv-x="584" d="M49 297v71h486v-71h-486z" />
<glyph unicode="." horiz-adv-x="278" d="M91 0v107h96v-107h-96z" />
<glyph unicode="/" horiz-adv-x="278" d="M0 -10l201 735h77l-199 -735h-79z" />
<glyph unicode="0" d="M517 344q0 -99 -19 -166.5t-51 -109.5t-76 -60t-94 -18t-93.5 18t-75.5 59.5t-50.5 109.5t-18.5 167q0 104 18.5 172t50.5 109t76 57t96 16q49 0 92.5 -16t75.5 -57t50.5 -109t18.5 -172zM428 344q0 82 -10 136.5t-29 87t-46.5 46t-62.5 13.5q-37 0 -65.5 -13.5t-48 -46 t-29 -87t-9.5 -136.5q0 -79 10 -133t29.5 -87t47 -47.5t63.5 -14.5q34 0 62 14.5t47.5 47.5t30 87t10.5 133z" />
<glyph unicode="1" d="M76 0v75h175v529l-155 -111v83l163 112h81v-613h167v-75h-431z" />
<glyph unicode="2" d="M50 0v62q25 57 61 101t75.5 79t78.5 65.5t70 60.5t50.5 63.5t19.5 75.5q0 29 -9 51.5t-25.5 37.5t-39.5 22.5t-52 7.5q-26 0 -49 -7.5t-41.5 -22t-30 -36t-14.5 -50.5l-90 8q5 37 21 70t44 57.5t68 38.5t92 14t92 -12t67.5 -36t42 -59t14.5 -81q0 -35 -12.5 -66 t-33 -59.5t-48 -55t-57.5 -51.5t-60 -49.5t-56.5 -49.5t-47.5 -50.5t-33 -53.5h359v-75h-456z" />
<glyph unicode="3" d="M512 190q0 -47 -15.5 -84.5t-45 -63t-73 -39t-99.5 -13.5q-64 0 -108 16t-72 42t-42.5 59.5t-18.5 69.5l91 8q4 -27 14.5 -49.5t28.5 -38.5t44.5 -25t62.5 -9q66 0 104 32.5t38 97.5q0 38 -17 61t-42 36t-54.5 17.5t-54.5 4.5h-50v76h48q25 0 52 5t49 18.5t36.5 36.5 t14.5 59q0 55 -32.5 87t-96.5 32q-58 0 -94 -30t-42 -84l-88 7q5 45 24.5 79t49.5 56t68.5 33t82.5 11q58 0 99.5 -14.5t67.5 -39t38.5 -57.5t12.5 -71q0 -30 -8 -56.5t-26 -47.5t-45 -36t-65 -23v-2q42 -4 72.5 -18.5t50.5 -36t30 -49t10 -57.5z" />
<glyph unicode="4" d="M430 156v-156h-83v156h-324v68l315 464h92v-463h97v-69h-97zM347 589q-1 -3 -5 -10t-8.5 -15.5t-10 -17.5t-9.5 -15l-176 -260q-2 -4 -7 -10.5t-9.5 -13t-9.5 -12.5t-8 -10h243v364z" />
<glyph unicode="5" d="M514 224q0 -52 -15.5 -95t-46.5 -74t-76.5 -48t-105.5 -17q-54 0 -94.5 13t-68 35t-44 52t-23.5 64l89 10q5 -19 15 -37.5t26.5 -33t41.5 -23t60 -8.5q34 0 62 10.5t47.5 31t30.5 50.5t11 68q0 32 -10.5 58.5t-29.5 46t-46.5 30t-62.5 10.5q-22 0 -40.5 -4t-34.5 -10.5 t-29 -15.5t-24 -19h-86l23 370h391v-75h-311l-13 -218q23 18 58.5 31t83.5 13q51 0 92 -15.5t70 -44t44.5 -68.5t15.5 -87z" />
<glyph unicode="6" d="M512 225q0 -52 -14.5 -95t-42.5 -74t-69.5 -48.5t-95.5 -17.5q-60 0 -105 23t-74.5 66.5t-44.5 106t-15 142.5q0 92 16.5 161.5t48.5 115.5t77.5 69.5t103.5 23.5q35 0 66 -7t56 -23.5t44 -43.5t30 -66l-84 -15q-13 44 -43.5 64t-69.5 20q-36 0 -65.5 -17t-50 -51 t-31.5 -85.5t-11 -119.5q24 44 67.5 67.5t99.5 23.5q47 0 85 -15t65 -44t42 -69.5t15 -91.5zM423 221q0 36 -9 64.5t-26.5 49t-43.5 31.5t-60 11q-24 0 -48.5 -7t-44 -23t-32 -42t-12.5 -63q0 -38 10 -71t28 -57.5t44 -38.5t58 -14t57 11t42.5 32t27 50.5t9.5 66.5z" />
<glyph unicode="7" d="M506 617q-52 -79 -95.5 -152t-74.5 -147t-48.5 -152t-17.5 -166h-92q0 83 19.5 162t53 155.5t77.5 150.5t93 145h-370v75h455v-71z" />
<glyph unicode="8" d="M513 192q0 -44 -14 -81t-42.5 -63.5t-73 -42t-105.5 -15.5q-60 0 -104.5 15.5t-73.5 42t-43 63t-14 80.5q0 38 11.5 67t31 50.5t44 34t51.5 17.5v2q-29 7 -52 22t-38 36t-23 47t-8 55q0 36 13.5 68t41 56t68 38t93.5 14q57 0 98 -14t68 -38t40.5 -56.5t13.5 -68.5 q0 -28 -8.5 -54t-23.5 -47.5t-38 -36t-52 -20.5v-2q29 -5 54.5 -18t44 -34t29.5 -50.5t11 -66.5zM404 516q0 26 -6.5 47.5t-21.5 37t-39.5 24t-60.5 8.5q-34 0 -58 -8.5t-39.5 -24t-22.5 -37t-7 -47.5q0 -20 5.5 -41.5t19.5 -39.5t39 -29t64 -11q42 0 67 11t38.5 29 t17.5 39.5t4 41.5zM421 200q0 25 -6.5 48t-23 41t-45 29t-70.5 11q-38 0 -65 -11t-44 -29t-25 -41.5t-8 -49.5q0 -31 8 -57.5t25 -45t45 -29t67 -10.5q40 0 67.5 10.5t44 29t23.5 45t7 59.5z" />
<glyph unicode="9" d="M509 358q0 -92 -17.5 -161t-49.5 -115t-78.5 -69t-103.5 -23q-40 0 -71.5 8t-56.5 25.5t-42.5 44.5t-28.5 66l84 13q14 -44 43 -65t73 -21q36 0 65.5 17t50 50.5t32.5 84.5t13 119q-10 -23 -28 -41t-40.5 -30.5t-49 -19t-53.5 -6.5q-47 0 -85 17t-64 47t-40.5 73 t-14.5 95q0 53 15.5 96t44.5 73t72 46t97 16q115 0 174 -85t59 -255zM413 443q0 38 -9 71.5t-27 58.5t-44 39.5t-60 14.5q-32 0 -57.5 -11.5t-43 -32t-27 -50.5t-9.5 -66q0 -35 8.5 -64.5t25.5 -51.5t42.5 -34.5t59.5 -12.5q24 0 49.5 8.5t45.5 25.5t33 43t13 62z" />
<glyph unicode=":" horiz-adv-x="278" d="M91 427v101h96v-101h-96zM91 0v101h96v-101h-96z" />
<glyph unicode=";" horiz-adv-x="278" d="M188 101v-76q0 -26 -2 -47t-7 -39.5t-12 -34.5t-17 -32h-60q22 32 34 64t12 64h-43v101h95zM93 427v101h95v-101h-95z" />
<glyph unicode="&#x3c;" horiz-adv-x="584" d="M49 279v100l486 204v-75l-419 -179l419 -179v-75z" />
<glyph unicode="=" horiz-adv-x="584" d="M49 418v72h486v-72h-486zM49 168v72h486v-72h-486z" />
<glyph unicode="&#x3e;" horiz-adv-x="584" d="M49 75v75l419 179l-419 179v75l486 -204v-100z" />
<glyph unicode="?" d="M519 504q0 -35 -9 -61t-24 -47t-34.5 -37.5t-39.5 -31t-39 -28.5t-34.5 -31t-25 -37t-10.5 -47h-85q1 34 10.5 59.5t24.5 45t34 34.5t38.5 29t38.5 28t33.5 31t23.5 38.5t9 50.5t-10 51.5t-29 37.5t-45.5 23t-59.5 8q-68 0 -108 -34t-47 -94l-90 6q5 41 21.5 77.5t46 64 t73.5 43t103 15.5q56 0 99.5 -13.5t73.5 -38.5t45.5 -61.5t15.5 -80.5zM214 0v98h95v-98h-95z" />
<glyph unicode="@" horiz-adv-x="1015" d="M929 369q0 -71 -16.5 -129t-45.5 -100t-69 -65.5t-88 -23.5q-27 0 -46 6.5t-31.5 18t-18 27t-5.5 34.5q0 7 0.5 17.5t1.5 16.5h-3q-12 -22 -29 -44t-39.5 -38.5t-51 -27t-63.5 -10.5q-41 0 -71.5 14t-50 39t-29.5 59.5t-10 75.5q0 58 17.5 112t49.5 95.5t77.5 66.5 t100.5 25q30 0 53 -7t41 -18.5t31 -28t22 -35.5h3l19 78h76l-56 -247q-10 -41 -14 -70.5t-4 -53.5q0 -23 10.5 -34.5t28.5 -11.5q31 0 57 20t45 54.5t30 81.5t11 102q0 63 -20 117t-59.5 93.5t-97.5 62t-134 22.5q-66 0 -121 -15.5t-100 -44t-79 -67.5t-57 -86t-35 -100.5 t-12 -109.5q0 -69 21 -127t61.5 -100t100 -65.5t136.5 -23.5q51 0 95.5 8t81.5 20t66.5 26t50.5 25l27 -54q-24 -15 -57 -30.5t-73.5 -28t-88.5 -20.5t-102 -8q-93 0 -165 28t-121.5 78.5t-75 119.5t-25.5 152q0 68 15 130.5t44 116t70.5 97.5t94 75t114.5 48.5t133 17.5 q98 0 169.5 -29t118 -78t69 -113.5t22.5 -135.5zM633 365q0 24 -8.5 44.5t-24 35t-37 23t-48.5 8.5q-42 0 -74 -21t-53 -54.5t-32 -76t-11 -84.5q0 -59 23 -92t71 -33q34 0 63.5 15t53 40t40.5 57t26 67q4 18 7.5 37.5t3.5 33.5z" />
<glyph unicode="A" horiz-adv-x="667" d="M570 0l-79 201h-313l-79 -201h-97l281 688h106l276 -688h-95zM375 501q-8 20 -15 40t-12.5 36t-9 27t-4.5 14q-1 -3 -4 -14t-9 -27.5t-13 -36.5l-14 -40l-88 -226h257z" />
<glyph unicode="B" horiz-adv-x="667" d="M614 194q0 -52 -20.5 -89t-55 -60.5t-80.5 -34t-97 -10.5h-279v688h250q57 0 102 -9.5t76.5 -30t47.5 -52t16 -75.5q0 -29 -8 -54.5t-24.5 -46t-41 -35.5t-57.5 -22q42 -5 74 -19t53.5 -36t32.5 -51t11 -63zM480 510q0 55 -38 79t-110 24h-157v-217h157q41 0 69.5 8 t46 22.5t25 35.5t7.5 48zM520 201q0 33 -12 56t-34.5 37.5t-54 21.5t-70.5 7h-174v-248h181q36 0 66 5.5t52 20.5t34 39.5t12 60.5z" />
<glyph unicode="C" horiz-adv-x="722" d="M387 622q-59 0 -104 -19.5t-75.5 -55.5t-46 -87t-15.5 -113t16.5 -113.5t48 -88.5t77 -57.5t103.5 -20.5q40 0 73 10.5t59.5 29.5t47.5 45t37 58l76 -38q-18 -39 -45.5 -72t-64.5 -57.5t-83.5 -38.5t-104.5 -14q-83 0 -146 26.5t-105 74.5t-63 113.5t-21 142.5 q0 81 22 146t65 110.5t105.5 70t142.5 24.5q110 0 183.5 -43t108.5 -127l-89 -29q-9 24 -26 46t-41.5 39.5t-58 27.5t-76.5 10z" />
<glyph unicode="D" horiz-adv-x="722" d="M674 351q0 -86 -25.5 -151.5t-70.5 -110t-106.5 -67t-132.5 -22.5h-257v688h228q79 0 146 -20t115.5 -61t75.5 -104.5t27 -151.5zM581 351q0 70 -20 119.5t-56.5 81t-86.5 46.5t-110 15h-133v-538h154q54 0 100 17.5t79.5 52t53 86.5t19.5 120z" />
<glyph unicode="E" horiz-adv-x="667" d="M82 0v688h522v-76h-429v-221h400v-75h-400v-240h449v-76h-542z" />
<glyph unicode="F" horiz-adv-x="611" d="M175 612v-256h384v-77h-384v-279h-93v688h489v-76h-396z" />
<glyph unicode="G" horiz-adv-x="778" d="M50 347q0 81 22 146t65 110.5t107 70t149 24.5q63 0 111 -11t83 -32t59.5 -51t41.5 -68l-89 -26q-13 25 -30.5 46t-43 35.5t-59 22.5t-76.5 8q-62 0 -108.5 -19.5t-76.5 -55.5t-45 -87t-15 -113t16 -113.5t48 -89t79 -58t109 -20.5q40 0 74.5 7t62 18t48.5 24t35 27v124 h-205v78h291v-237q-23 -24 -54 -45t-69.5 -37t-84.5 -25.5t-98 -9.5q-87 0 -152 26.5t-108 74.5t-65 113.5t-22 142.5z" />
<glyph unicode="H" horiz-adv-x="722" d="M547 0v319h-372v-319h-93v688h93v-291h372v291h94v-688h-94z" />
<glyph unicode="I" horiz-adv-x="278" d="M92 0v688h94v-688h-94z" />
<glyph unicode="J" horiz-adv-x="500" d="M223 -10q-83 0 -136.5 43.5t-70.5 137.5l91 15q5 -32 16 -54.5t27 -37t35 -21.5t39 -7q50 0 79.5 35t29.5 102v409h-132v76h225v-483q0 -49 -14 -88.5t-40 -67.5t-63.5 -43.5t-85.5 -15.5z" />
<glyph unicode="K" horiz-adv-x="667" d="M540 0l-275 332l-90 -68v-264h-93v688h93v-345l332 345h110l-293 -299l332 -389h-116z" />
<glyph unicode="L" d="M82 0v688h93v-612h348v-76h-441z" />
<glyph unicode="M" horiz-adv-x="833" d="M667 0v459q0 25 0.5 51t1.5 47q1 25 2 48q-6 -24 -14 -49q-6 -21 -13.5 -44.5t-15.5 -42.5l-177 -469h-66l-180 469q-3 7 -6 17t-7 21t-7.5 22.5t-6.5 22.5q-9 26 -16 53q0 -27 1 -54q1 -23 1.5 -48t0.5 -44v-459h-83v688h123l183 -477q3 -10 8 -25.5t9.5 -31.5t8 -30.5 t4.5 -21.5q2 7 6 22t9 31t10 31t9 25l179 477h120v-688h-84z" />
<glyph unicode="N" horiz-adv-x="722" d="M528 0l-368 586q1 -24 3 -47q1 -20 1.5 -42.5t0.5 -39.5v-457h-83v688h108l372 -590l-2 48q-1 21 -2 45t-1 46v451h84v-688h-113z" />
<glyph unicode="O" horiz-adv-x="778" d="M730 347q0 -80 -23 -146t-67 -113t-107.5 -72.5t-144.5 -25.5q-85 0 -149 26.5t-106.5 74.5t-64 113.5t-21.5 142.5q0 81 22.5 146t66 110.5t107.5 70t146 24.5t146 -25t107 -70.5t65.5 -110.5t22.5 -145zM635 347q0 62 -16 113t-47 87t-77 55.5t-106 19.5 q-61 0 -107.5 -19.5t-77.5 -55.5t-46.5 -87t-15.5 -113t16 -113.5t47 -89t77 -58t106 -20.5q65 0 111.5 21t76.5 58.5t44.5 89t14.5 112.5z" />
<glyph unicode="P" horiz-adv-x="667" d="M614 481q0 -45 -15 -84t-44.5 -67.5t-73.5 -45t-104 -16.5h-202v-268h-93v688h290q61 0 106 -15t75.5 -42t45.5 -65.5t15 -84.5zM521 480q0 65 -40.5 99t-120.5 34h-185v-271h189q81 0 119 35.5t38 102.5z" />
<glyph unicode="Q" horiz-adv-x="778" d="M730 347q0 -73 -19 -133t-54 -105.5t-86.5 -74t-117.5 -37.5q10 -31 23 -53t29.5 -36t37 -20.5t45.5 -6.5q14 0 29.5 2t26.5 4v-65q-19 -5 -41 -8t-46 -3q-42 0 -73 12.5t-55 35.5t-41 57t-30 76q-77 4 -135.5 32t-97.5 75t-58.5 110.5t-19.5 137.5q0 81 22.5 146 t66 110.5t107.5 70t146 24.5t146 -25t107 -70.5t65.5 -110.5t22.5 -145zM635 347q0 62 -16 113t-47 87t-77 55.5t-106 19.5q-61 0 -107.5 -19.5t-77.5 -55.5t-46.5 -87t-15.5 -113t16 -113.5t47 -89t77 -58t106 -20.5q65 0 111.5 21t76.5 58.5t44.5 89t14.5 112.5z" />
<glyph unicode="R" horiz-adv-x="722" d="M568 0l-178 286h-215v-286h-93v688h324q58 0 103.5 -13.5t76 -39t46.5 -62t16 -82.5q0 -33 -9.5 -64.5t-30 -58t-52 -45.5t-76.5 -27l196 -296h-108zM555 490q0 31 -11 54t-31.5 38.5t-49.5 23t-67 7.5h-221v-254h225q40 0 69.5 10t48.5 28t28 41.5t9 51.5z" />
<glyph unicode="S" horiz-adv-x="667" d="M621 190q0 -44 -17 -80.5t-52 -63t-88.5 -41.5t-126.5 -15q-129 0 -200.5 45t-91.5 130l91 18q7 -27 21 -49t38 -37.5t60 -24.5t85 -9q42 0 76.5 7t59.5 21.5t39 38t14 55.5q0 34 -15.5 55t-43.5 34.5t-66.5 23t-85.5 19.5q-28 7 -57.5 14.5t-56 18t-50 24.5t-40.5 34 t-26.5 46t-9.5 60q0 49 19.5 84t54.5 57.5t83 32.5t104 10q64 0 109.5 -10t76.5 -30t50 -49.5t30 -68.5l-92 -16q-7 25 -20 44.5t-34 32.5t-51 20t-70 7q-48 0 -80.5 -8.5t-52 -23t-28.5 -34.5t-9 -43q0 -31 15.5 -50.5t42 -33t61 -22t73.5 -17.5q32 -7 63.5 -14.5t60.5 -18 t54 -25t43.5 -35t29 -48t10.5 -65.5z" />
<glyph unicode="T" horiz-adv-x="611" d="M352 612v-612h-93v612h-237v76h566v-76h-236z" />
<glyph unicode="U" horiz-adv-x="722" d="M357 -10q-57 0 -107.5 15.5t-89 47t-61 81t-22.5 116.5v438h93v-430q0 -52 14 -88.5t39 -59.5t59 -33.5t74 -10.5t76 10.5t62.5 34t42 61.5t15.5 92v424h93v-429q0 -69 -22.5 -119.5t-62 -84t-91.5 -49.5t-112 -16z" />
<glyph unicode="V" horiz-adv-x="667" d="M382 0h-97l-281 688h99l190 -484q7 -22 14.5 -44t13.5 -39q7 -20 13 -39q6 18 13 38q6 17 13 38.5t15 45.5l189 484h99z" />
<glyph unicode="W" horiz-adv-x="944" d="M738 0h-112l-119 437q-5 19 -11 44t-11 48q-6 27 -12 55q-6 -28 -12 -55q-5 -24 -11 -48.5t-12 -43.5l-120 -437h-111l-203 688h98l123 -437q8 -31 16 -61t13 -54q6 -29 12 -54q7 34 15 66q3 14 6.5 29l7 30t7.5 28.5t7 24.5l119 428h90l119 -428q3 -11 6.5 -24.5 t7.5 -28t7.5 -29.5t6.5 -29q8 -33 15 -67q1 0 4.5 17t9.5 42.5t13 55t15 54.5l121 437h97z" />
<glyph unicode="X" horiz-adv-x="667" d="M543 0l-207 301l-211 -301h-103l262 357l-242 331h104l191 -270l186 270h103l-235 -327l255 -361h-103z" />
<glyph unicode="Y" horiz-adv-x="667" d="M379 285v-285h-92v285l-265 403h103l209 -328l208 328h103z" />
<glyph unicode="Z" horiz-adv-x="611" d="M580 0h-548v70l419 542h-384v76h490v-68l-419 -544h442v-76z" />
<glyph unicode="[" horiz-adv-x="278" d="M71 -208v933h199v-63h-114v-807h114v-63h-199z" />
<glyph unicode="\" horiz-adv-x="278" d="M199 -10l-199 735h77l201 -735h-79z" />
<glyph unicode="]" horiz-adv-x="278" d="M8 -208v63h114v807h-114v63h199v-933h-199z" />
<glyph unicode="^" horiz-adv-x="469" d="M384 329l-151 309l-149 -309h-79l180 359h99l180 -359h-80z" />
<glyph unicode="_" d="M-15 -199v64h582v-64h-582z" />
<glyph unicode="`" horiz-adv-x="333" d="M213 586l-161 136v14h101l106 -140v-10h-46z" />
<glyph unicode="a" d="M202 -10q-79 0 -119.5 42t-40.5 115q0 53 20 86.5t52 52.5t73 26t84 8l118 2v29q0 33 -7 56t-21 37t-35 20.5t-50 6.5q-26 0 -46.5 -3.5t-35.5 -13t-24 -26t-12 -41.5l-92 9q5 31 18.5 57t38.5 45t63 29.5t92 10.5q99 0 149.5 -45.5t50.5 -132.5v-227q0 -39 10.5 -59 t38.5 -20q8 0 15 1t14 3v-55q-16 -4 -32.5 -6t-35.5 -2q-25 0 -42.5 6.5t-29 20t-17 33.5t-7.5 46h-3q-14 -25 -31 -45.5t-39.5 -35t-51 -22.5t-65.5 -8zM222 56q42 0 73.5 15.5t52.5 39.5t31 52t10 54v44l-96 -2q-32 -1 -61 -5t-51 -16t-35 -34t-13 -58q0 -43 23 -66.5 t66 -23.5z" />
<glyph unicode="b" d="M514 267q0 -277 -194 -277q-60 0 -100 22t-65 70h-1q0 -13 -0.5 -26.5t-1.5 -25t-1.5 -20t-1.5 -10.5h-85q1 4 1.5 14.5t1 25.5t0.5 32.5v36.5v616h88v-207v-28t-1 -24q0 -12 -1 -23h2q25 51 65 73t100 22q100 0 147 -67.5t47 -203.5zM422 264q0 54 -7 93t-22 64.5 t-38.5 37t-57.5 11.5t-61 -11t-44.5 -36t-27 -65.5t-9.5 -99.5q0 -56 9.5 -94.5t27 -63t44 -35t60.5 -10.5q33 0 56 11.5t39 36t23.5 64.5t7.5 97z" />
<glyph unicode="c" horiz-adv-x="500" d="M134 267q0 -46 6.5 -84t22.5 -65.5t41.5 -42.5t63.5 -15q46 0 77.5 25t39.5 78l89 -6q-5 -32 -19.5 -62.5t-39.5 -53.5t-61.5 -37t-83.5 -14q-62 0 -105.5 21t-70.5 58t-39.5 87t-12.5 109q0 53 9 93.5t25 71t37.5 51.5t46.5 33.5t53 18t56 5.5q44 0 79 -12t60 -33.5 t40.5 -50t22.5 -62.5l-91 -6q-6 43 -34 69t-79 26q-38 0 -63 -12.5t-41 -37.5t-22.5 -63t-6.5 -89z" />
<glyph unicode="d" d="M401 85q-25 -51 -65 -73t-100 -22q-100 0 -147 67.5t-47 204.5q0 276 194 276q60 0 100 -22t65 -70h1q0 5 -0.5 15.5t-0.5 22v22v14.5v205h88v-616v-36.5t0.5 -32.5t1 -25.5t1.5 -14.5h-84q-1 5 -2 14t-1.5 20.5t-1 24.5t-0.5 26h-2zM134 265q0 -55 7 -94t22 -64 t38.5 -37t57.5 -12t61 11.5t44.5 36.5t27 65.5t9.5 99.5q0 56 -9.5 94.5t-27.5 62.5t-44 34.5t-60 10.5q-32 0 -55.5 -11t-39.5 -36t-23.5 -65t-7.5 -96z" />
<glyph unicode="e" d="M135 246q0 -42 8.5 -77t26 -60t45.5 -39t67 -14q57 0 91.5 23t46.5 58l78 -22q-9 -22 -24 -44t-39.5 -40t-62 -29.5t-90.5 -11.5q-117 0 -178.5 70t-61.5 208q0 74 19 125.5t51 83.5t75 46.5t92 14.5q66 0 111 -21.5t72 -59.5t38.5 -89t11.5 -111v-11h-377zM421 313 q-7 83 -42.5 121.5t-101.5 38.5q-22 0 -46 -7t-44.5 -25t-34.5 -49t-16 -79h285z" />
<glyph unicode="f" horiz-adv-x="278" d="M176 464v-464h-88v464h-74v64h74v60q0 29 5.5 53.5t20 43t39.5 29t64 10.5q16 0 33 -1.5t29 -4.5v-67q-8 1 -19 2.5t-20 1.5q-19 0 -31.5 -5.5t-19.5 -15.5t-10 -24.5t-3 -33.5v-48h103v-64h-103z" />
<glyph unicode="g" d="M268 -208q-46 0 -81 9.5t-60 27t-40.5 41.5t-22.5 53l88 13q9 -37 39 -57t79 -20q30 0 54.5 8.5t41.5 27t26 47.5t9 71v85h-1q-9 -20 -23.5 -38t-35.5 -32.5t-48 -23t-63 -8.5q-50 0 -86 17t-58.5 50.5t-33 83.5t-10.5 116q0 64 10.5 114.5t34 86t61.5 54.5t92 19 q56 0 97.5 -26t63.5 -73h1q0 12 1 27t1.5 28.5t1.5 23.5t2 11h84q-1 -4 -1.5 -14.5t-1 -25t-0.5 -32.5v-37v-404q0 -111 -54.5 -167t-166.5 -56zM401 264q0 55 -12 94.5t-31.5 64.5t-44.5 36.5t-51 11.5q-34 0 -58 -11.5t-40 -37t-23.5 -64.5t-7.5 -94q0 -57 7.5 -96 t23 -62.5t39.5 -34t57 -10.5q27 0 52 11t45 35.5t32 63t12 93.5z" />
<glyph unicode="h" d="M155 438q14 27 31.5 45.5t38 31t44.5 18t55 5.5q51 0 83 -13.5t51 -38.5t26 -59t7 -75v-352h-88v335q0 34 -4 59t-16 42t-33.5 25.5t-55.5 8.5q-31 0 -56.5 -11t-43 -31.5t-27.5 -50t-10 -65.5v-312h-88v725h88v-189q0 -16 -0.5 -32t-1 -30t-1 -23.5t-1.5 -12.5h2z" />
<glyph unicode="i" horiz-adv-x="222" d="M67 641v84h88v-84h-88zM67 0v528h88v-528h-88z" />
<glyph unicode="j" horiz-adv-x="222" d="M67 641v84h88v-84h-88zM155 -65q0 -31 -5 -56.5t-18.5 -45t-36 -30.5t-57.5 -11q-17 0 -33 1t-29 4v68q6 -1 15 -2t15 -1q18 0 30 5t19 15.5t9.5 26.5t2.5 39v580h88v-593z" />
<glyph unicode="k" horiz-adv-x="500" d="M398 0l-178 241l-65 -53v-188h-88v725h88v-453l232 256h103l-214 -227l225 -301h-103z" />
<glyph unicode="l" horiz-adv-x="222" d="M67 0v725h88v-725h-88z" />
<glyph unicode="m" horiz-adv-x="833" d="M375 0v335q0 39 -5 64.5t-16.5 41.5t-30 22.5t-45.5 6.5q-28 0 -50 -11t-38 -31.5t-24.5 -51t-8.5 -70.5v-306h-88v416v34.5t-0.5 34.5t-1 28t-1.5 15h83q1 -2 1.5 -13t1 -24.5t1 -28t0.5 -24.5h2q12 23 25.5 41.5t31.5 31.5t42 20t55 7q60 0 95 -24t49 -76h1 q12 23 26.5 41.5t34 31.5t44 20t55.5 7q40 0 69 -10.5t48 -33t27.5 -58t8.5 -84.5v-352h-87v335q0 39 -5 64.5t-16.5 41.5t-30 22.5t-45.5 6.5t-49.5 -10.5t-38.5 -31t-24.5 -51t-8.5 -71.5v-306h-87z" />
<glyph unicode="n" d="M403 0v335q0 39 -5.5 64.5t-18.5 41.5t-33.5 22.5t-51.5 6.5t-56.5 -11t-43 -31.5t-27.5 -51t-10 -70.5v-306h-88v416v34.5t-0.5 34.5t-1 28t-1.5 15h83q1 -2 1.5 -13t1 -24.5t1 -28t0.5 -24.5h2q12 23 27.5 41.5t35.5 31.5t46 20t60 7q44 0 75.5 -10.5t52 -33t30 -58 t9.5 -84.5v-352h-88z" />
<glyph unicode="o" d="M514 265q0 -139 -61 -207t-177 -68q-55 0 -98.5 16.5t-73.5 51t-46 86t-16 121.5q0 273 237 273q61 0 106 -17t73.5 -51t42 -85.5t13.5 -119.5zM422 265q0 61 -9.5 101t-28 64t-45 33.5t-59.5 9.5t-60.5 -10t-46.5 -34t-29 -64t-10 -100q0 -62 11 -102t29.5 -64t44.5 -34 t56 -10q34 0 61 9.5t46 33.5t29.5 64.5t10.5 102.5z" />
<glyph unicode="p" d="M514 267q0 -60 -9.5 -111t-32.5 -87.5t-60 -57.5t-92 -21q-57 0 -99.5 21.5t-64.5 70.5h-3q1 -1 1 -9t0.5 -19.5t0.5 -26v-28.5v-207h-88v628v37t-0.5 32t-1 24.5t-1.5 14.5h85q1 -1 1.5 -10t1.5 -21.5t1.5 -26.5t0.5 -27h2q12 26 28 43.5t36 29t44.5 17t55.5 5.5 q55 0 92 -19.5t60 -55t32.5 -85.5t9.5 -111zM422 265q0 48 -6 86.5t-20.5 64.5t-38.5 40t-60 14q-29 0 -55 -8.5t-45 -32t-30.5 -64.5t-11.5 -107q0 -56 9.5 -95t27 -63t44 -34.5t60.5 -10.5q37 0 61 14t38.5 41t20.5 66t6 89z" />
<glyph unicode="q" d="M236 -10q-100 0 -147 68t-47 204q0 137 48 206.5t146 69.5q33 0 58 -6t45 -17.5t35 -28.5t27 -40h1q0 12 0.5 27t1.5 28.5t2 23t2 10.5h84q-1 -8 -2 -43t-1 -101v-599h-88v215v26.5t1 25.5q0 14 1 28h-1q-13 -25 -28.5 -43.5t-35.5 -30.5t-45 -17.5t-57 -5.5zM401 271 q0 57 -10 96t-28.5 62.5t-44.5 33.5t-58 10q-34 0 -58 -12.5t-39 -38t-22 -65t-7 -92.5t6.5 -92t21.5 -64.5t39 -38t58 -12.5q29 0 55 9t45 33t30.5 65t11.5 106z" />
<glyph unicode="r" horiz-adv-x="333" d="M69 0v405v34.5t-0.5 33.5t-1 30t-1.5 25h83q1 -11 1.5 -25.5t1.5 -29.5t1 -29v-24h2q10 31 20.5 53t24.5 36.5t33.5 21.5t47.5 7q11 0 20.5 -1.5t14.5 -3.5v-80q-8 2 -20 3.5t-26 1.5q-31 0 -52 -14t-34.5 -38t-20 -57.5t-6.5 -73.5v-275h-88z" />
<glyph unicode="s" horiz-adv-x="500" d="M464 146q0 -37 -14.5 -66t-42 -49t-67 -30.5t-90.5 -10.5q-46 0 -83 7t-65 23t-46.5 41.5t-27.5 62.5l77 15q12 -42 47 -62t98 -20q28 0 51.5 4t40.5 13.5t26.5 25.5t9.5 39q0 24 -11 39.5t-31 25.5t-48.5 17.5t-62.5 17.5q-32 8 -63.5 18.5t-56.5 27t-40.5 41.5 t-15.5 63q0 72 51.5 110t149.5 38q88 0 139.5 -31t65.5 -99l-80 -10q-4 21 -15.5 35t-28.5 22.5t-37.5 12t-43.5 3.5q-59 0 -87.5 -18t-28.5 -55q0 -21 10.5 -35t29.5 -23.5t45.5 -16.5t57.5 -15q21 -5 43 -11t43 -15t39 -20t32 -27.5t22 -38t8 -49.5z" />
<glyph unicode="t" horiz-adv-x="278" d="M271 4q-21 -5 -41.5 -8.5t-47.5 -3.5q-106 0 -106 120v352h-61v64h65l25 118h59v-118h98v-64h-98v-333q0 -38 12.5 -53.5t43.5 -15.5q12 0 24 2t27 5v-65z" />
<glyph unicode="u" d="M153 528v-335q0 -38 6 -64t18.5 -42t33 -22.5t51.5 -6.5t56.5 11t43 32t27.5 51.5t10 69.5v306h88v-415v-35t0.5 -34.5t1 -28.5t1.5 -15h-83q-1 2 -1.5 13t-1 25t-1 28.5t-0.5 23.5h-2q-12 -23 -27.5 -41.5t-35.5 -31.5t-45.5 -20t-60.5 -7q-44 0 -75.5 11t-52 33.5 t-30 57.5t-9.5 84v352h88z" />
<glyph unicode="v" horiz-adv-x="500" d="M299 0h-104l-192 528h94l116 -343q4 -11 8.5 -26.5t9.5 -32t9 -32t7 -25.5q3 10 7.5 25.5t9.5 31.5t10 31.5t9 26.5l120 344h94z" />
<glyph unicode="w" horiz-adv-x="722" d="M573 0h-102l-84 341q-4 13 -8 32.5t-8 38.5q-5 21 -10 44q-4 -22 -9 -43q-4 -19 -8.5 -39t-8.5 -35l-87 -339h-102l-147 528h86l90 -359q3 -11 6.5 -27.5t6.5 -31.5q4 -18 8 -37l8 36q4 15 8 30.5t7 26.5l95 362h95l92 -362q3 -13 7 -29t8 -31q4 -16 7 -33l8 36 q4 15 7.5 31.5t6.5 28.5l94 359h86z" />
<glyph unicode="x" horiz-adv-x="500" d="M391 0l-142 217l-143 -217h-95l188 271l-179 257h97l132 -205l131 205h98l-179 -256l190 -272h-98z" />
<glyph unicode="y" horiz-adv-x="500" d="M295 0q-19 -48 -38 -86.5t-43 -65.5t-53.5 -41.5t-67.5 -14.5q-16 0 -30.5 1t-29.5 5v66q9 -2 20.5 -2.5t20.5 -0.5q38 0 71.5 28.5t58.5 91.5l8 21l-210 526h94l112 -292q4 -13 12 -35t15.5 -44t13 -39.5t6.5 -21.5q2 5 7.5 21t12.5 35.5t14.5 39.5t12.5 35l103 301h93z " />
<glyph unicode="z" horiz-adv-x="500" d="M24 0v67l323 393h-304v68h403v-67l-323 -393h341v-68h-440z" />
<glyph unicode="{" horiz-adv-x="334" d="M250 -208q-31 0 -55.5 10t-40.5 29t-24 45t-8 60v176q0 31 -7.5 52.5t-20.5 35t-32.5 20.5t-44.5 8v62q25 1 44.5 7.5t32.5 20.5t20.5 35.5t7.5 51.5v177q0 68 32.5 105.5t95.5 37.5h66v-63h-30q-45 0 -63.5 -26.5t-18.5 -78.5v-174q0 -25 -7.5 -45.5t-20 -36t-30 -26 t-37.5 -15.5v-1q21 -5 38.5 -16t29.5 -26.5t19.5 -36t7.5 -45.5v-175q0 -51 18.5 -78t63.5 -27h30v-63h-66z" />
<glyph unicode="|" horiz-adv-x="260" d="M89 -212v937h81v-937h-81z" />
<glyph unicode="}" horiz-adv-x="334" d="M46 -145q44 0 63.5 27t19.5 78v175q0 25 7 45.5t19 36t29.5 26.5t38.5 16v1q-20 5 -37.5 15.5t-30 26t-19.5 36t-7 45.5v174q0 52 -19.5 78.5t-63.5 26.5h-29v63h64q64 0 96.5 -37.5t32.5 -105.5v-177q0 -30 7 -51.5t20.5 -35.5t33.5 -20.5t45 -7.5v-62q-25 -1 -45 -8 t-33.5 -20.5t-20.5 -35t-7 -52.5v-176q0 -34 -8.5 -60t-24.5 -45t-40 -29t-56 -10h-64v63h29z" />
<glyph unicode="~" horiz-adv-x="584" d="M412 270q-34 0 -69 11t-71 23q-63 22 -106 22q-19 0 -34.5 -3t-30.5 -8.5t-28.5 -13.5t-27.5 -18v70q24 19 56.5 30t71.5 11q20 0 39.5 -3t38.5 -8t37 -11.5t36 -12.5q10 -4 22.5 -7.5l25 -7t25 -5.5t23.5 -2q34 0 64 12t55 33v-73q-16 -11 -30 -18.5t-29 -12t-31.5 -6.5 t-36.5 -2z" />
<glyph horiz-adv-x="0" />
<glyph unicode="&#x17d;" horiz-adv-x="611" d="M580 0h-548v70l419 542h-384v76h490v-68l-419 -544h442v-76zM366 747h-99l-115 117v10h51l113 -68h1l107 68h52v-10z" />
<glyph horiz-adv-x="611" d="M580 0h-548v70l419 542h-384v76h490v-68l-419 -544h442v-76zM366 747h-99l-115 117v10h51l113 -68h1l107 68h52v-10z" />
<glyph unicode="&#x17e;" horiz-adv-x="500" d="M24 0v67l323 393h-304v68h403v-67l-323 -393h341v-68h-440zM290 586h-100l-114 132v10h51l113 -82h1l107 82h51v-10z" />
<glyph horiz-adv-x="500" d="M24 0v67l323 393h-304v68h403v-67l-323 -393h341v-68h-440zM290 586h-100l-114 132v10h51l113 -82h1l107 82h51v-10z" />
<glyph unicode="&#xa1;" horiz-adv-x="333" d="M130 334h72l12 -494h-96zM215 528v-98h-95v98h95z" />
<glyph unicode="&#xa2;" d="M291 135q47 0 78.5 25.5t38.5 78.5l89 -6q-4 -30 -16.5 -58.5t-34 -51t-52 -37.5t-71.5 -19v-82h-60v82q-55 5 -92.5 27.5t-60.5 59t-33.5 84t-10.5 102.5q0 74 16 124t43 82t63 47.5t75 18.5v76h60v-76q38 -4 67.5 -17t50.5 -34t34 -47.5t19 -57.5l-90 -7q-7 44 -35 70 t-79 26q-38 0 -63 -12.5t-40.5 -37.5t-22 -63t-6.5 -90q0 -45 6.5 -83t22 -65.5t41 -43t63.5 -15.5z" />
<glyph unicode="&#xa3;" d="M539 152q-4 -39 -18 -67.5t-36 -47.5t-50 -28t-60 -9h-341v75q43 23 64 62t21 98v70h-91v63h91v137q0 45 12 81t36 60.5t61 38t87 13.5q35 0 65 -7t54 -21t41.5 -35t25.5 -49l-84 -28q-5 15 -14.5 28t-22.5 21.5t-29 13.5t-34 5q-55 0 -82.5 -28t-27.5 -89v-141h199v-63 h-199v-61q0 -28 -5.5 -53.5t-16 -48t-26 -40t-34.5 -27.5h235q19 0 35.5 4.5t29 14.5t22 26.5t12.5 40.5z" />
<glyph unicode="&#xa4;" d="M67 334q0 35 10 66t28 57l-49 49l51 50l48 -49q27 19 58 29.5t66 10.5t65.5 -10.5t57.5 -28.5l47 47l51 -51l-47 -47q18 -26 28.5 -57t10.5 -66t-10.5 -66t-29.5 -57l49 -49l-50 -51l-49 49q-27 -18 -57.5 -28t-65.5 -10t-66 10.5t-57 28.5l-51 -51l-50 51l50 50 q-18 26 -28 57t-10 66zM142 335q0 -28 11 -53t29.5 -43.5t43.5 -29.5t53 -11t53 11t44 29.5t29.5 43.5t10.5 53t-10.5 53t-29.5 43.5t-44 29.5t-53 11t-53 -11t-43.5 -29.5t-29.5 -43.5t-11 -53z" />
<glyph unicode="&#xa5;" d="M352 346h156v-61h-187v-75h187v-62h-187v-148h-87v148h-186v62h186l1 75h-187v61h157l-206 342h97l181 -316l183 316h98z" />
<glyph unicode="&#xa6;" horiz-adv-x="260" d="M89 345v380h81v-380h-81zM89 -212v380h81v-380h-81z" />
<glyph unicode="&#xa7;" d="M287 725q39 0 72.5 -7.5t60 -23t44 -39.5t25.5 -57l-79 -10q-4 22 -15 36t-27.5 22.5t-37 11.5t-43.5 3q-61 0 -92.5 -19t-31.5 -54q0 -22 12 -37.5t32.5 -27t47 -19t55.5 -14.5q33 -8 67 -19.5t61.5 -29t44.5 -43.5t17 -63q0 -22 -7 -43t-20.5 -39t-33.5 -31.5 t-46 -19.5q24 -11 43.5 -23t32.5 -28t20.5 -35.5t7.5 -44.5q0 -36 -14 -64.5t-41.5 -49t-67.5 -31t-92 -10.5q-46 0 -83.5 6.5t-66 22t-48 41t-28.5 63.5l79 15q6 -27 19 -43.5t32 -25.5t43.5 -12t52.5 -3t53 4.5t43.5 14t29.5 25.5t11 39q0 26 -14 44t-37 30t-53 21t-62 17 q-32 7 -64 18.5t-57.5 29t-41 43.5t-15.5 62q0 22 7.5 42t22 37.5t35 30.5t46.5 20q-20 7 -38.5 18t-32.5 27t-22 35.5t-8 42.5q0 68 51.5 106t150.5 38zM423 324q0 23 -13 40t-34.5 29.5t-49 21t-57.5 15.5q-28 -2 -50 -10t-36.5 -20.5t-22 -29.5t-7.5 -36q0 -22 12 -38.5 t32 -28t46.5 -20t55.5 -15.5q26 0 49 6t39.5 17.5t26 28.5t9.5 40z" />
<glyph unicode="&#xa8;" horiz-adv-x="333" d="M214 595v90h80v-90h-80zM22 595v90h81v-90h-81z" />
<glyph unicode="&#xa9;" horiz-adv-x="737" d="M721 345q0 -49 -12.5 -94t-35.5 -84.5t-55 -71.5t-71.5 -54.5t-84.5 -35.5t-94 -13q-48 0 -93.5 13t-84.5 35.5t-71.5 54.5t-55 71.5t-35.5 84.5t-13 94t13 94t35.5 84t55 71.5t71.5 55.5t84 35.5t94 12.5q73 0 137.5 -27.5t112.5 -75.5t75.5 -112.5t27.5 -137.5z M676 345q0 42 -11 81.5t-31 73.5t-48 62t-62.5 48t-73.5 31t-82 11q-63 0 -119 -24t-97.5 -66t-65.5 -97.5t-24 -119.5t24 -120t65.5 -97.5t97.5 -65.5t119 -24q43 0 82 11t73.5 31t62.5 48t48 62t31 73.5t11 81.5zM243 346q0 -35 8 -64.5t24.5 -50.5t41 -32.5t57.5 -11.5 q23 0 41.5 6.5t32 17.5t23 24.5t16.5 27.5l56 -17q-10 -21 -24.5 -40.5t-34.5 -35t-47 -25t-63 -9.5q-50 0 -86.5 15.5t-60 43.5t-35.5 66.5t-12 84.5q0 48 12 86t35.5 65t59 41.5t83.5 14.5q37 0 64 -8.5t46.5 -23t33 -33t22.5 -37.5l-56 -16q-5 13 -14.5 25t-23 21.5 t-31 15t-40.5 5.5q-34 0 -58 -11.5t-39.5 -31.5t-23 -49t-7.5 -64z" />
<glyph unicode="&#xaa;" horiz-adv-x="370" d="M127 318q-26 0 -47 7t-36 20.5t-23 33.5t-8 46q0 33 12.5 55.5t33.5 36.5t48.5 19.5t57.5 6.5l87 2v29q0 23 -5 37.5t-14.5 23t-23.5 12t-31 3.5q-32 0 -52 -14.5t-24 -51.5l-73 5q3 23 13.5 43t29 35t45 23.5t60.5 8.5q33 0 60 -7t45.5 -21.5t29 -38t10.5 -55.5v-150 q0 -29 6.5 -41t24.5 -12q5 0 10.5 1t10.5 3v-51l-20 -4t-21 -2q-20 0 -34 5.5t-23 15t-14 21.5t-6 27h-2q-19 -38 -51 -55t-76 -17zM146 372q23 0 42.5 8.5t33.5 22t22 30.5t8 35v32l-67 -2q-20 -1 -38.5 -3.5t-31.5 -9.5t-21 -20t-8 -34q0 -27 14 -43t46 -16z" />
<glyph unicode="&#xab;" d="M433 69l-165 178v31l165 181h82v-15l-165 -182l166 -179v-14h-83zM205 69l-164 178v31l164 181h81v-15l-163 -182l164 -179v-14h-82z" />
<glyph unicode="&#xac;" horiz-adv-x="584" d="M464 88v209h-415v71h486v-280h-71z" />
<glyph unicode="&#xad;" horiz-adv-x="333" d="M44 227v78h245v-78h-245z" />
<glyph unicode="&#xae;" horiz-adv-x="737" d="M721 345q0 -49 -12.5 -94t-35.5 -84.5t-55 -71.5t-71.5 -54.5t-84.5 -35.5t-94 -13q-48 0 -93.5 13t-84.5 35.5t-71.5 54.5t-55 71.5t-35.5 84.5t-13 94t13 94t35.5 84t55 71.5t71.5 55.5t84 35.5t94 12.5q73 0 137.5 -27.5t112.5 -75.5t75.5 -112.5t27.5 -137.5z M676 345q0 42 -11 81.5t-31 73.5t-48 62t-62.5 48t-73.5 31t-82 11q-63 0 -119 -24t-97.5 -66t-65.5 -97.5t-24 -119.5t24 -120t65.5 -97.5t97.5 -65.5t119 -24q43 0 82 11t73.5 31t62.5 48t48 62t31 73.5t11 81.5zM466 141l-97 164h-78v-164h-62v406h149q70 0 106.5 -31 t36.5 -85q0 -50 -25 -80t-67 -39l108 -171h-71zM459 430q0 34 -23 51.5t-62 17.5h-83v-147h88q39 0 59.5 21t20.5 57z" />
<glyph unicode="&#xaf;" horiz-adv-x="552" d="M561 709h-569v46h569v-46z" />
<glyph unicode="&#xb0;" horiz-adv-x="400" d="M340 559q0 -29 -11 -54.5t-30 -44t-44.5 -29.5t-54.5 -11t-54.5 11t-44.5 29.5t-30 44t-11 54.5t11 54.5t30 44.5t44.5 29.5t54.5 10.5t54.5 -10.5t44.5 -29.5t30 -44.5t11 -54.5zM287 559q0 18 -7 34t-18.5 28t-27.5 19t-34 7t-34 -7t-28 -19t-18.5 -28t-6.5 -34 t6.5 -34t18.5 -28t28 -19t34 -7t34 7t27.5 19t18.5 28t7 34z" />
<glyph unicode="&#xb1;" horiz-adv-x="549" d="M311 332v-193h-72v193h-207v71h207v192h72v-192h207v-71h-207zM32 0v71h486v-71h-486z" />
<glyph unicode="&#xb2;" horiz-adv-x="333" d="M21 275l-1 50q13 30 34.5 53.5t46 43t49.5 37.5t45 35.5t33 37t13 43.5q0 30 -17.5 48.5t-53.5 18.5q-33 0 -54.5 -18t-25.5 -51l-65 4q3 25 14 46.5t29.5 37t45 24.5t59.5 9q32 0 57 -8t42.5 -23t26.5 -36t9 -47q0 -30 -13.5 -54.5t-33.5 -45.5t-45 -39.5t-48 -36 t-42.5 -35.5t-27.5 -39h216v-55h-293z" />
<glyph unicode="&#xb3;" horiz-adv-x="333" d="M313 388q0 -56 -37.5 -87.5t-107.5 -31.5q-42 0 -70.5 9.5t-46 25t-26.5 35.5t-12 41l67 6q4 -32 25.5 -49t62.5 -17q38 0 58.5 17.5t20.5 54.5q0 22 -9 35t-23 20.5t-30.5 9.5t-30.5 2h-29v53h27q15 0 29.5 3.5t27 11t20 20.5t7.5 32q0 29 -18 46t-52 17t-54.5 -17 t-23.5 -49l-66 6q4 28 16 49t31.5 35t44.5 21t53 7q34 0 59.5 -8t42.5 -22.5t25.5 -34t8.5 -41.5q0 -37 -21 -63.5t-65 -36.5v-1q26 -3 44 -12t30 -22t17 -30t5 -35z" />
<glyph unicode="&#xb4;" horiz-adv-x="333" d="M35 586v10l106 140h101v-14l-161 -136h-46z" />
<glyph unicode="&#xb5;" horiz-adv-x="576" d="M68 -208v736h89v-335q0 -38 7.5 -63.5t22 -41.5t35 -23t45.5 -7q63 0 98.5 42.5t35.5 121.5v306h88v-398q0 -22 2.5 -35.5t7.5 -21.5t12 -11t16 -3q5 0 13 1.5t13 2.5v-63q-12 -4 -24.5 -7t-30.5 -3q-26 0 -43.5 7.5t-28 20t-15.5 30t-6 37.5h-2q-25 -46 -61 -70.5 t-85 -24.5q-32 0 -59 10t-42 29v-237h-88z" />
<glyph unicode="&#xb6;" horiz-adv-x="537" d="M432 638v-767h-55v767h-106v-767h-55v468q-39 0 -71.5 11t-56 32.5t-36.5 54t-13 75.5q0 41 12 73.5t35.5 55.5t57 35t76.5 12h275v-50h-63z" />
<glyph unicode="&#xb8;" horiz-adv-x="333" d="M236 -124q0 -20 -7.5 -36t-23.5 -28t-41 -18t-62 -6q-10 0 -21 0.5t-23 1.5v48q24 -3 42 -3q20 0 33.5 3t22.5 8t12.5 12.5t3.5 16.5q0 18 -15 27.5t-50 9.5h-14t-14 -1l32 89h52l-19 -49q46 -1 69 -21t23 -54z" />
<glyph unicode="&#xb9;" horiz-adv-x="333" d="M39 275v52h103v303l-99 -68v59l103 67h60v-361h105v-52h-272z" />
<glyph unicode="&#xba;" horiz-adv-x="365" d="M353 509q0 -92 -43 -141.5t-128 -49.5q-82 0 -125.5 49t-43.5 142q0 44 10.5 79.5t32 60t53.5 37.5t75 13q45 0 77 -13t52.5 -37t30 -59.5t9.5 -80.5zM280 509q0 40 -6 67t-18 43t-30 22.5t-41 6.5t-41.5 -6.5t-31 -22.5t-19 -43t-6.5 -67q0 -41 7 -68t19.5 -43 t29.5 -22.5t38 -6.5q24 0 42.5 6.5t31 22.5t19 43t6.5 68z" />
<glyph unicode="&#xbb;" d="M351 69h-82v14l165 179l-164 182v15h81l165 -181v-31zM124 69h-83v14l165 179l-164 182v15h82l163 -181v-31z" />
<glyph unicode="&#xbc;" horiz-adv-x="834" d="M28 275v52h103v303l-99 -68v59l103 67h60v-361h105v-52h-272zM241 0h-73l431 688h70zM734 88v-87h-64v87h-198v55l188 272h74v-271h54v-56h-54zM671 350q-4 -7 -9 -16t-11 -18.5t-11.5 -18t-8.5 -13.5l-97 -140h136v141v16v18.5v17.5t1 13z" />
<glyph unicode="&#xbd;" horiz-adv-x="834" d="M28 275v52h103v303l-99 -68v59l103 67h60v-361h105v-52h-272zM241 0h-73l431 688h70zM514 1l-1 51q13 30 34.5 53t46 43t49.5 37.5t45 35.5t33 37.5t13 43.5q0 30 -17.5 48.5t-53.5 18.5q-33 0 -54.5 -18t-25.5 -51l-65 4q3 25 14 46t30 36.5t45 24.5t59 9q32 0 57 -8 t42.5 -22.5t26.5 -35.5t9 -47q0 -31 -13.5 -55t-33.5 -45t-45 -39.5t-48 -36.5t-42 -36t-28 -38h216v-56h-293z" />
<glyph unicode="&#xbe;" horiz-adv-x="834" d="M250 0h-72l430 688h71zM734 88v-87h-64v87h-198v55l188 272h74v-271h54v-56h-54zM671 350q-4 -7 -9 -16t-11 -18.5t-11.5 -18t-8.5 -13.5l-97 -140h136v141v16v18.5v17.5t1 13zM336 388q0 -56 -38 -87.5t-107 -31.5q-43 0 -71 9.5t-46 25t-26.5 35.5t-11.5 41l66 6 q4 -32 25.5 -49t63.5 -17q38 0 58 17.5t20 54.5q0 22 -9 35t-22.5 20.5t-30 9.5t-30.5 2h-30v53h28q14 0 29 3.5t27 11t20 20.5t8 32q0 29 -18 46t-53 17q-33 0 -53.5 -17t-23.5 -49l-66 6q3 28 15.5 49t31.5 35t44 21t54 7q34 0 59 -8t42.5 -22.5t26 -34t8.5 -41.5 q0 -37 -21 -63.5t-65 -36.5v-1q25 -3 43.5 -12t30 -22t17 -30t5.5 -35z" />
<glyph unicode="&#xbf;" horiz-adv-x="611" d="M64 24q0 35 9 61.5t24 47t34.5 37t39.5 31t39 29t34.5 31t25 36.5t10.5 47h85q-1 -33 -10.5 -58.5t-24.5 -45t-34 -35t-38.5 -29.5t-38.5 -28t-33.5 -31t-23.5 -38.5t-9 -50.5q0 -28 10 -50.5t29 -38t45.5 -23.5t59.5 -8q68 0 108 34.5t47 93.5l90 -6q-5 -41 -21.5 -77 t-46 -63.5t-73.5 -43.5t-103 -16q-56 0 -99.5 13.5t-73.5 39t-45.5 61t-15.5 80.5zM369 528v-98h-95v98h95z" />
<glyph unicode="&#xc0;" horiz-adv-x="667" d="M570 0l-79 201h-313l-79 -201h-97l281 688h106l276 -688h-95zM375 501q-8 20 -15 40t-12.5 36t-9 27t-4.5 14q-1 -3 -4 -14t-9 -27.5t-13 -36.5l-14 -40l-88 -226h257zM366 747l-151 106v14h101l106 -110v-10h-56z" />
<glyph unicode="&#xc1;" horiz-adv-x="667" d="M570 0l-79 201h-313l-79 -201h-97l281 688h106l276 -688h-95zM375 501q-8 20 -15 40t-12.5 36t-9 27t-4.5 14q-1 -3 -4 -14t-9 -27.5t-13 -36.5l-14 -40l-88 -226h257zM267 747v10l106 110h101v-14l-151 -106h-56z" />
<glyph unicode="&#xc2;" horiz-adv-x="667" d="M570 0l-79 201h-313l-79 -201h-97l281 688h106l276 -688h-95zM375 501q-8 20 -15 40t-12.5 36t-9 27t-4.5 14q-1 -3 -4 -14t-9 -27.5t-13 -36.5l-14 -40l-88 -226h257zM495 757v-10h-51l-107 68h-1l-113 -68h-51v10l114 117h100z" />
<glyph unicode="&#xc3;" horiz-adv-x="667" d="M570 0l-79 201h-313l-79 -201h-97l281 688h106l276 -688h-95zM375 501q-8 20 -15 40t-12.5 36t-9 27t-4.5 14q-1 -3 -4 -14t-9 -27.5t-13 -36.5l-14 -40l-88 -226h257zM411 747q-20 0 -40.5 9t-39.5 20t-36.5 20t-32.5 9q-27 0 -40.5 -15t-17.5 -43h-44q2 22 7 45 t16 42.5t29 31.5t47 12q21 0 41.5 -9t39.5 -20t36 -20t32 -9q26 0 39.5 15.5t17.5 42.5h45q-3 -22 -7.5 -45t-15 -42t-29 -31.5t-47.5 -12.5z" />
<glyph unicode="&#xc4;" horiz-adv-x="667" d="M570 0l-79 201h-313l-79 -201h-97l281 688h106l276 -688h-95zM375 501q-8 20 -15 40t-12.5 36t-9 27t-4.5 14q-1 -3 -4 -14t-9 -27.5t-13 -36.5l-14 -40l-88 -226h257zM392 747v90h80v-90h-80zM200 747v90h80v-90h-80z" />
<glyph unicode="&#xc5;" horiz-adv-x="667" d="M570 0l-79 201h-313l-79 -201h-97l281 688h106l276 -688h-95zM375 501q-8 20 -15 40t-12.5 36t-9 27t-4.5 14q-1 -3 -4 -14t-9 -27.5t-13 -36.5l-14 -40l-88 -226h257zM453 755q0 -25 -9 -46.5t-25.5 -37.5t-38 -25t-45.5 -9t-45.5 9t-38 25t-25.5 37.5t-9 46.5 q0 24 9 45.5t25.5 37.5t38 25.5t45.5 9.5t45.5 -9.5t38 -25.5t25.5 -37.5t9 -45.5zM400 755q0 14 -5 25.5t-13.5 20.5t-20.5 14t-26 5t-26 -5t-21 -14t-14 -20.5t-5 -25.5t5 -26t14 -21.5t21 -14.5t26 -5t26 5t20.5 14.5t13.5 21.5t5 26z" />
<glyph unicode="&#xc6;" horiz-adv-x="1000" d="M473 0v201h-267l-97 -201h-97l335 688h590v-76h-371v-221h342v-75h-342v-240h391v-76h-484zM473 616h-74q0 -1 -4 -9.5t-9.5 -21t-12 -26.5t-12.5 -26.5t-10 -22t-5 -11.5l-106 -225h233v342z" />
<glyph unicode="&#xc7;" horiz-adv-x="722" d="M387 622q-59 0 -104 -19.5t-75.5 -55.5t-46 -87t-15.5 -113t16.5 -113.5t48 -88.5t77 -57.5t103.5 -20.5q40 0 73 10.5t59.5 29.5t47.5 45t37 58l76 -38q-18 -39 -45.5 -72t-64.5 -57.5t-83.5 -38.5t-104.5 -14q-83 0 -146 26.5t-105 74.5t-63 113.5t-21 142.5 q0 81 22 146t65 110.5t105.5 70t142.5 24.5q110 0 183.5 -43t108.5 -127l-89 -29q-9 24 -26 46t-41.5 39.5t-58 27.5t-76.5 10zM485 -124q0 -20 -7.5 -36t-23.5 -28t-41 -18t-62 -6q-10 0 -21 0.5t-23 1.5v48q24 -3 42 -3q20 0 33.5 3t22.5 8t12.5 12.5t3.5 16.5 q0 18 -15 27.5t-50 9.5h-14t-14 -1l32 89h52l-19 -49q46 -1 69 -21t23 -54z" />
<glyph unicode="&#xc8;" horiz-adv-x="667" d="M82 0v688h522v-76h-429v-221h400v-75h-400v-240h449v-76h-542zM359 747l-151 106v14h101l106 -110v-10h-56z" />
<glyph unicode="&#xc9;" horiz-adv-x="667" d="M82 0v688h522v-76h-429v-221h400v-75h-400v-240h449v-76h-542zM269 747v10l106 110h101v-14l-151 -106h-56z" />
<glyph unicode="&#xca;" horiz-adv-x="667" d="M82 0v688h522v-76h-429v-221h400v-75h-400v-240h449v-76h-542zM506 757v-10h-51l-107 68h-1l-113 -68h-51v10l114 117h100z" />
<glyph unicode="&#xcb;" horiz-adv-x="667" d="M82 0v688h522v-76h-429v-221h400v-75h-400v-240h449v-76h-542zM398 747v90h80v-90h-80zM206 747v90h81v-90h-81z" />
<glyph unicode="&#xcc;" horiz-adv-x="278" d="M92 0v688h94v-688h-94zM156 747l-151 106v14h101l106 -110v-10h-56z" />
<glyph unicode="&#xcd;" horiz-adv-x="278" d="M92 0v688h94v-688h-94zM69 747v10l106 110h101v-14l-151 -106h-56z" />
<glyph unicode="&#xce;" horiz-adv-x="278" d="M92 0v688h94v-688h-94zM301 757v-10h-51l-107 68h-1l-113 -68h-51v10l114 117h100z" />
<glyph unicode="&#xcf;" horiz-adv-x="278" d="M92 0v688h94v-688h-94zM196 747v90h80v-90h-80zM4 747v90h80v-90h-80z" />
<glyph unicode="&#xd0;" horiz-adv-x="722" d="M7 391h75v297h228q79 0 146 -20t115.5 -61t75.5 -104.5t27 -151.5q0 -86 -25.5 -151.5t-70.5 -110t-106.5 -67t-132.5 -22.5h-257v316h-75v75zM581 351q0 70 -20 119.5t-56.5 81t-86.5 46.5t-110 15h-133v-222h199v-75h-199v-241h154q54 0 100 17.5t79.5 52t53 86.5 t19.5 120z" />
<glyph unicode="&#xd1;" horiz-adv-x="722" d="M528 0l-368 586q1 -24 3 -47q1 -20 1.5 -42.5t0.5 -39.5v-457h-83v688h108l372 -590l-2 48q-1 21 -2 45t-1 46v451h84v-688h-113zM444 747q-21 0 -41.5 9t-39.5 20t-36 20t-33 9q-26 0 -39.5 -15t-17.5 -43h-45q3 22 8 45t16 42.5t29 31.5t47 12q21 0 41.5 -9t39.5 -20 t36 -20t31 -9q27 0 40.5 15.5t17.5 42.5h44q-2 -22 -7 -45t-15.5 -42t-28.5 -31.5t-47 -12.5z" />
<glyph unicode="&#xd2;" horiz-adv-x="778" d="M730 347q0 -80 -23 -146t-67 -113t-107.5 -72.5t-144.5 -25.5q-85 0 -149 26.5t-106.5 74.5t-64 113.5t-21.5 142.5q0 81 22.5 146t66 110.5t107.5 70t146 24.5t146 -25t107 -70.5t65.5 -110.5t22.5 -145zM635 347q0 62 -16 113t-47 87t-77 55.5t-106 19.5 q-61 0 -107.5 -19.5t-77.5 -55.5t-46.5 -87t-15.5 -113t16 -113.5t47 -89t77 -58t106 -20.5q65 0 111.5 21t76.5 58.5t44.5 89t14.5 112.5zM417 747l-151 106v14h101l106 -110v-10h-56z" />
<glyph unicode="&#xd3;" horiz-adv-x="778" d="M730 347q0 -80 -23 -146t-67 -113t-107.5 -72.5t-144.5 -25.5q-85 0 -149 26.5t-106.5 74.5t-64 113.5t-21.5 142.5q0 81 22.5 146t66 110.5t107.5 70t146 24.5t146 -25t107 -70.5t65.5 -110.5t22.5 -145zM635 347q0 62 -16 113t-47 87t-77 55.5t-106 19.5 q-61 0 -107.5 -19.5t-77.5 -55.5t-46.5 -87t-15.5 -113t16 -113.5t47 -89t77 -58t106 -20.5q65 0 111.5 21t76.5 58.5t44.5 89t14.5 112.5zM303 747v10l106 110h101v-14l-151 -106h-56z" />
<glyph unicode="&#xd4;" horiz-adv-x="778" d="M730 347q0 -80 -23 -146t-67 -113t-107.5 -72.5t-144.5 -25.5q-85 0 -149 26.5t-106.5 74.5t-64 113.5t-21.5 142.5q0 81 22.5 146t66 110.5t107.5 70t146 24.5t146 -25t107 -70.5t65.5 -110.5t22.5 -145zM635 347q0 62 -16 113t-47 87t-77 55.5t-106 19.5 q-61 0 -107.5 -19.5t-77.5 -55.5t-46.5 -87t-15.5 -113t16 -113.5t47 -89t77 -58t106 -20.5q65 0 111.5 21t76.5 58.5t44.5 89t14.5 112.5zM552 757v-10h-51l-107 68h-1l-113 -68h-51v10l114 117h100z" />
<glyph unicode="&#xd5;" horiz-adv-x="778" d="M730 347q0 -80 -23 -146t-67 -113t-107.5 -72.5t-144.5 -25.5q-85 0 -149 26.5t-106.5 74.5t-64 113.5t-21.5 142.5q0 81 22.5 146t66 110.5t107.5 70t146 24.5t146 -25t107 -70.5t65.5 -110.5t22.5 -145zM635 347q0 62 -16 113t-47 87t-77 55.5t-106 19.5 q-61 0 -107.5 -19.5t-77.5 -55.5t-46.5 -87t-15.5 -113t16 -113.5t47 -89t77 -58t106 -20.5q65 0 111.5 21t76.5 58.5t44.5 89t14.5 112.5zM459 747q-20 0 -40.5 9t-39.5 20t-36.5 20t-32.5 9q-27 0 -40 -15t-18 -43h-44q2 22 7 45t16 42.5t29 31.5t47 12q22 0 42.5 -9 t39.5 -20t35.5 -20t31.5 -9q26 0 39.5 15.5t17.5 42.5h45q-2 -22 -7 -45t-15.5 -42t-28.5 -31.5t-48 -12.5z" />
<glyph unicode="&#xd6;" horiz-adv-x="778" d="M730 347q0 -80 -23 -146t-67 -113t-107.5 -72.5t-144.5 -25.5q-85 0 -149 26.5t-106.5 74.5t-64 113.5t-21.5 142.5q0 81 22.5 146t66 110.5t107.5 70t146 24.5t146 -25t107 -70.5t65.5 -110.5t22.5 -145zM635 347q0 62 -16 113t-47 87t-77 55.5t-106 19.5 q-61 0 -107.5 -19.5t-77.5 -55.5t-46.5 -87t-15.5 -113t16 -113.5t47 -89t77 -58t106 -20.5q65 0 111.5 21t76.5 58.5t44.5 89t14.5 112.5zM444 747v90h80v-90h-80zM252 747v90h81v-90h-81z" />
<glyph unicode="&#xd7;" horiz-adv-x="584" d="M69 161l173 173l-172 172l51 50l171 -172l171 171l51 -51l-171 -170l172 -172l-50 -51l-172 172l-174 -173z" />
<glyph unicode="&#xd8;" horiz-adv-x="778" d="M730 347q0 -80 -23 -146t-67 -113t-107.5 -72.5t-144.5 -25.5q-62 0 -112 14.5t-90 40.5l-59 -71h-92l97 118q-43 47 -64 112t-21 143q0 81 22.5 146t66 110.5t107.5 70t146 24.5q61 0 111.5 -13.5t90.5 -39.5l59 71h94l-98 -118q41 -46 62.5 -109.5t21.5 -141.5z M635 347q0 55 -12 100t-36 80l-346 -417q29 -21 65.5 -32.5t81.5 -11.5q65 0 111.5 21t76.5 58.5t44.5 89t14.5 112.5zM142 347q0 -55 12.5 -101.5t36.5 -82.5l346 416q-29 21 -66 32t-82 11q-61 0 -107.5 -19.5t-77.5 -55.5t-46.5 -87t-15.5 -113z" />
<glyph unicode="&#xd9;" horiz-adv-x="722" d="M357 -10q-57 0 -107.5 15.5t-89 47t-61 81t-22.5 116.5v438h93v-430q0 -52 14 -88.5t39 -59.5t59 -33.5t74 -10.5t76 10.5t62.5 34t42 61.5t15.5 92v424h93v-429q0 -69 -22.5 -119.5t-62 -84t-91.5 -49.5t-112 -16zM397 747l-151 106v14h101l106 -110v-10h-56z" />
<glyph unicode="&#xda;" horiz-adv-x="722" d="M357 -10q-57 0 -107.5 15.5t-89 47t-61 81t-22.5 116.5v438h93v-430q0 -52 14 -88.5t39 -59.5t59 -33.5t74 -10.5t76 10.5t62.5 34t42 61.5t15.5 92v424h93v-429q0 -69 -22.5 -119.5t-62 -84t-91.5 -49.5t-112 -16zM276 747v10l106 110h101v-14l-151 -106h-56z" />
<glyph unicode="&#xdb;" horiz-adv-x="722" d="M357 -10q-57 0 -107.5 15.5t-89 47t-61 81t-22.5 116.5v438h93v-430q0 -52 14 -88.5t39 -59.5t59 -33.5t74 -10.5t76 10.5t62.5 34t42 61.5t15.5 92v424h93v-429q0 -69 -22.5 -119.5t-62 -84t-91.5 -49.5t-112 -16zM522 757v-10h-51l-107 68h-1l-113 -68h-51v10l114 117 h100z" />
<glyph unicode="&#xdc;" horiz-adv-x="722" d="M357 -10q-57 0 -107.5 15.5t-89 47t-61 81t-22.5 116.5v438h93v-430q0 -52 14 -88.5t39 -59.5t59 -33.5t74 -10.5t76 10.5t62.5 34t42 61.5t15.5 92v424h93v-429q0 -69 -22.5 -119.5t-62 -84t-91.5 -49.5t-112 -16zM417 747v90h79v-90h-79zM224 747v90h81v-90h-81z" />
<glyph unicode="&#xdd;" horiz-adv-x="667" d="M379 285v-285h-92v285l-265 403h103l209 -328l208 328h103zM262 747v10l106 110h101v-14l-152 -106h-55z" />
<glyph unicode="&#xde;" horiz-adv-x="667" d="M614 359q0 -43 -14.5 -82t-44 -68t-74 -46.5t-104.5 -17.5h-202v-145h-93v688h93v-123h197q61 0 106 -14.5t75.5 -42t45.5 -65.5t15 -84zM521 357q0 65 -40.5 101.5t-120.5 36.5h-185v-281h189q40 0 69.5 10.5t49 30t29 45.5t9.5 57z" />
<glyph unicode="&#xdf;" horiz-adv-x="611" d="M570 144q0 -32 -10 -60t-31.5 -49t-54.5 -33t-79 -12q-39 0 -75 6t-63 18l-1 80q12 -7 28.5 -13t34.5 -10.5t37 -7t37 -2.5q45 0 69 21t24 59q0 27 -13.5 46t-33 34t-42.5 29t-43 32t-33 42t-13 59q0 25 8 43t20 32t26 26t26 24.5t20 28t8 36.5q0 18 -8 33t-23.5 26 t-37.5 17.5t-50 6.5q-33 0 -59 -8.5t-44 -27.5t-27.5 -48.5t-9.5 -72.5v-499h-88v501q0 58 15.5 100.5t45 69.5t72 40.5t95.5 13.5q50 0 88 -11.5t63.5 -31t38.5 -46t13 -56.5t-8 -52t-20.5 -39t-26.5 -30t-26.5 -24.5t-20.5 -23t-8 -25.5q0 -18 13.5 -32.5t33.5 -28.5 t43 -29.5t43 -36.5t33.5 -48.5t13.5 -66.5z" />
<glyph unicode="&#xe0;" d="M202 -10q-79 0 -119.5 42t-40.5 115q0 53 20 86.5t52 52.5t73 26t84 8l118 2v29q0 33 -7 56t-21 37t-35 20.5t-50 6.5q-26 0 -46.5 -3.5t-35.5 -13t-24 -26t-12 -41.5l-92 9q5 31 18.5 57t38.5 45t63 29.5t92 10.5q99 0 149.5 -45.5t50.5 -132.5v-227q0 -39 10.5 -59 t38.5 -20q8 0 15 1t14 3v-55q-16 -4 -32.5 -6t-35.5 -2q-25 0 -42.5 6.5t-29 20t-17 33.5t-7.5 46h-3q-14 -25 -31 -45.5t-39.5 -35t-51 -22.5t-65.5 -8zM222 56q42 0 73.5 15.5t52.5 39.5t31 52t10 54v44l-96 -2q-32 -1 -61 -5t-51 -16t-35 -34t-13 -58q0 -43 23 -66.5 t66 -23.5zM305 586l-161 136v14h101l106 -140v-10h-46z" />
<glyph unicode="&#xe1;" d="M202 -10q-79 0 -119.5 42t-40.5 115q0 53 20 86.5t52 52.5t73 26t84 8l118 2v29q0 33 -7 56t-21 37t-35 20.5t-50 6.5q-26 0 -46.5 -3.5t-35.5 -13t-24 -26t-12 -41.5l-92 9q5 31 18.5 57t38.5 45t63 29.5t92 10.5q99 0 149.5 -45.5t50.5 -132.5v-227q0 -39 10.5 -59 t38.5 -20q8 0 15 1t14 3v-55q-16 -4 -32.5 -6t-35.5 -2q-25 0 -42.5 6.5t-29 20t-17 33.5t-7.5 46h-3q-14 -25 -31 -45.5t-39.5 -35t-51 -22.5t-65.5 -8zM222 56q42 0 73.5 15.5t52.5 39.5t31 52t10 54v44l-96 -2q-32 -1 -61 -5t-51 -16t-35 -34t-13 -58q0 -43 23 -66.5 t66 -23.5zM201 586v10l106 140h101v-14l-161 -136h-46z" />
<glyph unicode="&#xe2;" d="M202 -10q-79 0 -119.5 42t-40.5 115q0 53 20 86.5t52 52.5t73 26t84 8l118 2v29q0 33 -7 56t-21 37t-35 20.5t-50 6.5q-26 0 -46.5 -3.5t-35.5 -13t-24 -26t-12 -41.5l-92 9q5 31 18.5 57t38.5 45t63 29.5t92 10.5q99 0 149.5 -45.5t50.5 -132.5v-227q0 -39 10.5 -59 t38.5 -20q8 0 15 1t14 3v-55q-16 -4 -32.5 -6t-35.5 -2q-25 0 -42.5 6.5t-29 20t-17 33.5t-7.5 46h-3q-14 -25 -31 -45.5t-39.5 -35t-51 -22.5t-65.5 -8zM222 56q42 0 73.5 15.5t52.5 39.5t31 52t10 54v44l-96 -2q-32 -1 -61 -5t-51 -16t-35 -34t-13 -58q0 -43 23 -66.5 t66 -23.5zM430 596v-10h-52l-107 83v0l-114 -83h-51v10l115 132h99z" />
<glyph unicode="&#xe3;" d="M202 -10q-79 0 -119.5 42t-40.5 115q0 53 20 86.5t52 52.5t73 26t84 8l118 2v29q0 33 -7 56t-21 37t-35 20.5t-50 6.5q-26 0 -46.5 -3.5t-35.5 -13t-24 -26t-12 -41.5l-92 9q5 31 18.5 57t38.5 45t63 29.5t92 10.5q99 0 149.5 -45.5t50.5 -132.5v-227q0 -39 10.5 -59 t38.5 -20q8 0 15 1t14 3v-55q-16 -4 -32.5 -6t-35.5 -2q-25 0 -42.5 6.5t-29 20t-17 33.5t-7.5 46h-3q-14 -25 -31 -45.5t-39.5 -35t-51 -22.5t-65.5 -8zM222 56q42 0 73.5 15.5t52.5 39.5t31 52t10 54v44l-96 -2q-32 -1 -61 -5t-51 -16t-35 -34t-13 -58q0 -43 23 -66.5 t66 -23.5zM360 586q-21 0 -41.5 9t-39.5 20t-36 20.5t-33 9.5q-26 0 -39.5 -15.5t-17.5 -43.5h-45q3 22 8 45.5t16 42.5t29 31t47 12q21 0 41.5 -9t39.5 -20t36 -20t31 -9q27 0 40.5 15.5t17.5 42.5h44q-2 -21 -7 -44.5t-15.5 -42.5t-28.5 -31.5t-47 -12.5z" />
<glyph unicode="&#xe4;" d="M202 -10q-79 0 -119.5 42t-40.5 115q0 53 20 86.5t52 52.5t73 26t84 8l118 2v29q0 33 -7 56t-21 37t-35 20.5t-50 6.5q-26 0 -46.5 -3.5t-35.5 -13t-24 -26t-12 -41.5l-92 9q5 31 18.5 57t38.5 45t63 29.5t92 10.5q99 0 149.5 -45.5t50.5 -132.5v-227q0 -39 10.5 -59 t38.5 -20q8 0 15 1t14 3v-55q-16 -4 -32.5 -6t-35.5 -2q-25 0 -42.5 6.5t-29 20t-17 33.5t-7.5 46h-3q-14 -25 -31 -45.5t-39.5 -35t-51 -22.5t-65.5 -8zM222 56q42 0 73.5 15.5t52.5 39.5t31 52t10 54v44l-96 -2q-32 -1 -61 -5t-51 -16t-35 -34t-13 -58q0 -43 23 -66.5 t66 -23.5zM329 595v90h80v-90h-80zM137 595v90h80v-90h-80z" />
<glyph unicode="&#xe5;" d="M202 -10q-79 0 -119.5 42t-40.5 115q0 53 20 86.5t52 52.5t73 26t84 8l118 2v29q0 33 -7 56t-21 37t-35 20.5t-50 6.5q-26 0 -46.5 -3.5t-35.5 -13t-24 -26t-12 -41.5l-92 9q5 31 18.5 57t38.5 45t63 29.5t92 10.5q99 0 149.5 -45.5t50.5 -132.5v-227q0 -39 10.5 -59 t38.5 -20q8 0 15 1t14 3v-55q-16 -4 -32.5 -6t-35.5 -2q-25 0 -42.5 6.5t-29 20t-17 33.5t-7.5 46h-3q-14 -25 -31 -45.5t-39.5 -35t-51 -22.5t-65.5 -8zM222 56q42 0 73.5 15.5t52.5 39.5t31 52t10 54v44l-96 -2q-32 -1 -61 -5t-51 -16t-35 -34t-13 -58q0 -43 23 -66.5 t66 -23.5zM390 688q0 -24 -9 -45.5t-25.5 -37.5t-38 -25.5t-45.5 -9.5t-45.5 9.5t-38 25.5t-25.5 37.5t-9 45.5q0 25 9 46.5t25.5 37.5t38 25t45.5 9t45.5 -9t38 -25t25.5 -37.5t9 -46.5zM337 688q0 14 -5 26t-13.5 21t-20.5 14t-26 5t-26 -5t-21 -14t-14 -21t-5 -26t5 -26 t14 -21t21 -14t26 -5t26 5t20.5 14t13.5 21t5 26z" />
<glyph unicode="&#xe6;" horiz-adv-x="889" d="M473 246v-9q0 -40 8.5 -73t25.5 -57t43.5 -37.5t64.5 -13.5q57 0 91.5 23t46.5 58l78 -22q-9 -22 -24 -44t-39.5 -40t-62 -29.5t-90.5 -11.5q-157 0 -206 126q-14 -25 -32.5 -48t-43 -40t-58 -27.5t-79.5 -10.5q-81 0 -122.5 42t-41.5 115q0 35 9.5 61.5t25.5 45.5 t38.5 31.5t48.5 20t54.5 11t58.5 3.5l117 2v29q0 33 -6.5 56t-20.5 37t-35.5 20.5t-50.5 6.5q-27 0 -48.5 -3.5t-37 -13t-25 -26t-13.5 -41.5l-91 9q5 31 19 57t39.5 45t64.5 29.5t93 10.5q63 0 105 -17t66 -51q31 36 74 52t95 16q66 0 111 -21.5t72 -59.5t38.5 -89 t11.5 -111v-11h-372zM384 261l-95 -2q-20 -1 -40 -2.5t-38.5 -5.5t-34.5 -12t-28 -20t-18.5 -30t-6.5 -43q0 -42 24 -66t70 -24q44 0 75.5 15.5t51.5 39.5t30 52t10 54v44zM754 313q-7 83 -42.5 121.5t-101.5 38.5q-22 0 -45 -7t-43 -25t-33 -49t-15 -79h280z" />
<glyph unicode="&#xe7;" horiz-adv-x="500" d="M134 267q0 -46 6.5 -84t22.5 -65.5t41.5 -42.5t63.5 -15q46 0 77.5 25t39.5 78l89 -6q-5 -32 -19.5 -62.5t-39.5 -53.5t-61.5 -37t-83.5 -14q-62 0 -105.5 21t-70.5 58t-39.5 87t-12.5 109q0 53 9 93.5t25 71t37.5 51.5t46.5 33.5t53 18t56 5.5q44 0 79 -12t60 -33.5 t40.5 -50t22.5 -62.5l-91 -6q-6 43 -34 69t-79 26q-38 0 -63 -12.5t-41 -37.5t-22.5 -63t-6.5 -89zM367 -124q0 -20 -7.5 -36t-23.5 -28t-41 -18t-62 -6q-10 0 -21 0.5t-23 1.5v48q24 -3 42 -3q20 0 33.5 3t22 8t12.5 12.5t4 16.5q0 18 -15 27.5t-50 9.5h-14t-14 -1l32 89 h52l-19 -49q46 -1 69 -21t23 -54z" />
<glyph unicode="&#xe8;" d="M135 246q0 -42 8.5 -77t26 -60t45.5 -39t67 -14q57 0 91.5 23t46.5 58l78 -22q-9 -22 -24 -44t-39.5 -40t-62 -29.5t-90.5 -11.5q-117 0 -178.5 70t-61.5 208q0 74 19 125.5t51 83.5t75 46.5t92 14.5q66 0 111 -21.5t72 -59.5t38.5 -89t11.5 -111v-11h-377zM421 313 q-7 83 -42.5 121.5t-101.5 38.5q-22 0 -46 -7t-44.5 -25t-34.5 -49t-16 -79h285zM321 586l-161 136v14h101l106 -140v-10h-46z" />
<glyph unicode="&#xe9;" d="M135 246q0 -42 8.5 -77t26 -60t45.5 -39t67 -14q57 0 91.5 23t46.5 58l78 -22q-9 -22 -24 -44t-39.5 -40t-62 -29.5t-90.5 -11.5q-117 0 -178.5 70t-61.5 208q0 74 19 125.5t51 83.5t75 46.5t92 14.5q66 0 111 -21.5t72 -59.5t38.5 -89t11.5 -111v-11h-377zM421 313 q-7 83 -42.5 121.5t-101.5 38.5q-22 0 -46 -7t-44.5 -25t-34.5 -49t-16 -79h285zM215 586v10l106 140h101v-14l-161 -136h-46z" />
<glyph unicode="&#xea;" d="M135 246q0 -42 8.5 -77t26 -60t45.5 -39t67 -14q57 0 91.5 23t46.5 58l78 -22q-9 -22 -24 -44t-39.5 -40t-62 -29.5t-90.5 -11.5q-117 0 -178.5 70t-61.5 208q0 74 19 125.5t51 83.5t75 46.5t92 14.5q66 0 111 -21.5t72 -59.5t38.5 -89t11.5 -111v-11h-377zM421 313 q-7 83 -42.5 121.5t-101.5 38.5q-22 0 -46 -7t-44.5 -25t-34.5 -49t-16 -79h285zM443 596v-10h-51l-107 83h-1l-114 -83h-50v10l114 132h99z" />
<glyph unicode="&#xeb;" d="M135 246q0 -42 8.5 -77t26 -60t45.5 -39t67 -14q57 0 91.5 23t46.5 58l78 -22q-9 -22 -24 -44t-39.5 -40t-62 -29.5t-90.5 -11.5q-117 0 -178.5 70t-61.5 208q0 74 19 125.5t51 83.5t75 46.5t92 14.5q66 0 111 -21.5t72 -59.5t38.5 -89t11.5 -111v-11h-377zM421 313 q-7 83 -42.5 121.5t-101.5 38.5q-22 0 -46 -7t-44.5 -25t-34.5 -49t-16 -79h285zM335 595v90h80v-90h-80zM143 595v90h81v-90h-81z" />
<glyph unicode="&#xec;" horiz-adv-x="278" d="M95 0v528h88v-528h-88zM167 586l-162 136v14h101l106 -140v-10h-45z" />
<glyph unicode="&#xed;" horiz-adv-x="278" d="M95 0v528h88v-528h-88zM66 586v10l106 140h101v-14l-161 -136h-46z" />
<glyph unicode="&#xee;" horiz-adv-x="278" d="M95 0v528h88v-528h-88zM302 596v-10h-52l-106 83h-1l-114 -83h-50v10l114 132h99z" />
<glyph unicode="&#xef;" horiz-adv-x="278" d="M95 0v528h88v-528h-88zM197 595v90h79v-90h-79zM4 595v90h81v-90h-81z" />
<glyph unicode="&#xf0;" d="M276 -10q-61 0 -105 18t-73 50t-42.5 77.5t-13.5 99.5q0 52 12.5 96.5t41 77t74 51t110.5 18.5q34 0 63 -8t50 -21q-21 42 -49.5 85t-65.5 77l-147 -65v56l107 45q-28 22 -57 41.5t-61 36.5h102q22 -10 42 -22.5t41 -27.5l149 64v-54l-103 -45q39 -36 70.5 -79t53 -92 t33 -103.5t11.5 -113.5v-3q0 -60 -14 -107.5t-43 -81.5t-75 -52t-111 -18zM427 235q0 46 -8 79.5t-25.5 55.5t-45 32.5t-66.5 10.5q-40 0 -68 -11t-46 -33.5t-26 -56t-8 -77.5q0 -93 35.5 -136.5t105.5 -43.5q40 0 69 11t47 33t27 55.5t9 80.5z" />
<glyph unicode="&#xf1;" d="M405 0v335q0 39 -5.5 64.5t-18.5 41.5t-33.5 22.5t-51.5 6.5t-56.5 -11t-43 -31.5t-27.5 -51t-10 -70.5v-306h-88v416v34.5t-0.5 34.5t-1 28t-1.5 15h83q1 -2 1.5 -13t1 -24.5t1 -28t0.5 -24.5h2q12 23 27.5 41.5t35.5 31.5t46 20t60 7q44 0 75.5 -10.5t52 -33t30 -58 t9.5 -84.5v-352h-88zM360 586q-21 0 -41.5 9t-39.5 20t-36 20.5t-33 9.5q-26 0 -39.5 -15.5t-17.5 -43.5h-45q3 22 8 45.5t16 42.5t29 31t47 12q21 0 41.5 -9t39.5 -20t36 -20t31 -9q27 0 40.5 15.5t17.5 42.5h44q-2 -21 -7 -44.5t-15.5 -42.5t-28.5 -31.5t-47 -12.5z" />
<glyph unicode="&#xf2;" d="M514 265q0 -139 -61 -207t-177 -68q-55 0 -98.5 16.5t-73.5 51t-46 86t-16 121.5q0 273 237 273q61 0 106 -17t73.5 -51t42 -85.5t13.5 -119.5zM422 265q0 61 -9.5 101t-28 64t-45 33.5t-59.5 9.5t-60.5 -10t-46.5 -34t-29 -64t-10 -100q0 -62 11 -102t29.5 -64t44.5 -34 t56 -10q34 0 61 9.5t46 33.5t29.5 64.5t10.5 102.5zM322 586l-161 136v14h101l106 -140v-10h-46z" />
<glyph unicode="&#xf3;" d="M514 265q0 -139 -61 -207t-177 -68q-55 0 -98.5 16.5t-73.5 51t-46 86t-16 121.5q0 273 237 273q61 0 106 -17t73.5 -51t42 -85.5t13.5 -119.5zM422 265q0 61 -9.5 101t-28 64t-45 33.5t-59.5 9.5t-60.5 -10t-46.5 -34t-29 -64t-10 -100q0 -62 11 -102t29.5 -64t44.5 -34 t56 -10q34 0 61 9.5t46 33.5t29.5 64.5t10.5 102.5zM210 586v10l106 140h101v-14l-161 -136h-46z" />
<glyph unicode="&#xf4;" d="M514 265q0 -139 -61 -207t-177 -68q-55 0 -98.5 16.5t-73.5 51t-46 86t-16 121.5q0 273 237 273q61 0 106 -17t73.5 -51t42 -85.5t13.5 -119.5zM422 265q0 61 -9.5 101t-28 64t-45 33.5t-59.5 9.5t-60.5 -10t-46.5 -34t-29 -64t-10 -100q0 -62 11 -102t29.5 -64t44.5 -34 t56 -10q34 0 61 9.5t46 33.5t29.5 64.5t10.5 102.5zM440 596v-10h-51l-107 83h-1l-113 -83h-51v10l114 132h100z" />
<glyph unicode="&#xf5;" d="M514 265q0 -139 -61 -207t-177 -68q-55 0 -98.5 16.5t-73.5 51t-46 86t-16 121.5q0 273 237 273q61 0 106 -17t73.5 -51t42 -85.5t13.5 -119.5zM422 265q0 61 -9.5 101t-28 64t-45 33.5t-59.5 9.5t-60.5 -10t-46.5 -34t-29 -64t-10 -100q0 -62 11 -102t29.5 -64t44.5 -34 t56 -10q34 0 61 9.5t46 33.5t29.5 64.5t10.5 102.5zM361 586q-21 0 -41.5 9t-39.5 20t-36 20.5t-33 9.5q-26 0 -39.5 -15.5t-17.5 -43.5h-45q3 22 8 45.5t16 42.5t29 31t46 12q22 0 42.5 -9t39.5 -20t36 -20t31 -9q27 0 40.5 15.5t17.5 42.5h44q-2 -21 -7 -44.5t-15.5 -42.5 t-28.5 -31.5t-47 -12.5z" />
<glyph unicode="&#xf6;" d="M514 265q0 -139 -61 -207t-177 -68q-55 0 -98.5 16.5t-73.5 51t-46 86t-16 121.5q0 273 237 273q61 0 106 -17t73.5 -51t42 -85.5t13.5 -119.5zM422 265q0 61 -9.5 101t-28 64t-45 33.5t-59.5 9.5t-60.5 -10t-46.5 -34t-29 -64t-10 -100q0 -62 11 -102t29.5 -64t44.5 -34 t56 -10q34 0 61 9.5t46 33.5t29.5 64.5t10.5 102.5zM336 595v90h80v-90h-80zM144 595v90h81v-90h-81z" />
<glyph unicode="&#xf7;" horiz-adv-x="549" d="M233 468v89h82v-89h-82zM32 297v71h486v-71h-486zM233 109v89h82v-89h-82z" />
<glyph unicode="&#xf8;" horiz-adv-x="611" d="M543 265q0 -139 -61 -207t-177 -68q-48 0 -86 12t-67 36l-49 -57h-82l90 105q-20 33 -30 77.5t-10 101.5q0 273 237 273q50 0 88 -11t66 -33l44 51h82l-85 -98q21 -34 30.5 -79t9.5 -103zM451 265q0 33 -3 59.5t-9 48.5l-235 -275q18 -24 43.5 -33.5t56.5 -9.5 q33 0 60.5 9.5t46.5 33.5t29.5 64.5t10.5 102.5zM163 265q0 -64 12 -105l235 274q-18 22 -43.5 30.5t-57.5 8.5q-34 0 -61 -10t-46 -34t-29 -64t-10 -100z" />
<glyph unicode="&#xf9;" d="M156 528v-335q0 -38 5.5 -64t18.5 -42t33.5 -22.5t51.5 -6.5t56.5 11t43 32t27.5 51.5t10 69.5v306h88v-415v-35t0.5 -34.5t1 -28.5t1.5 -15h-83q-1 2 -1.5 13t-1 25t-1 28.5t-0.5 23.5h-2q-12 -23 -27.5 -41.5t-35.5 -31.5t-45.5 -20t-60.5 -7q-44 0 -75.5 11t-52 33.5 t-30 57.5t-9.5 84v352h88zM328 586l-161 136v14h101l106 -140v-10h-46z" />
<glyph unicode="&#xfa;" d="M156 528v-335q0 -38 5.5 -64t18.5 -42t33.5 -22.5t51.5 -6.5t56.5 11t43 32t27.5 51.5t10 69.5v306h88v-415v-35t0.5 -34.5t1 -28.5t1.5 -15h-83q-1 2 -1.5 13t-1 25t-1 28.5t-0.5 23.5h-2q-12 -23 -27.5 -41.5t-35.5 -31.5t-45.5 -20t-60.5 -7q-44 0 -75.5 11t-52 33.5 t-30 57.5t-9.5 84v352h88zM203 586v10l106 140h101v-14l-161 -136h-46z" />
<glyph unicode="&#xfb;" d="M156 528v-335q0 -38 5.5 -64t18.5 -42t33.5 -22.5t51.5 -6.5t56.5 11t43 32t27.5 51.5t10 69.5v306h88v-415v-35t0.5 -34.5t1 -28.5t1.5 -15h-83q-1 2 -1.5 13t-1 25t-1 28.5t-0.5 23.5h-2q-12 -23 -27.5 -41.5t-35.5 -31.5t-45.5 -20t-60.5 -7q-44 0 -75.5 11t-52 33.5 t-30 57.5t-9.5 84v352h88zM440 596v-10h-51l-107 83h-1l-114 -83h-50v10l114 132h100z" />
<glyph unicode="&#xfc;" d="M156 528v-335q0 -38 5.5 -64t18.5 -42t33.5 -22.5t51.5 -6.5t56.5 11t43 32t27.5 51.5t10 69.5v306h88v-415v-35t0.5 -34.5t1 -28.5t1.5 -15h-83q-1 2 -1.5 13t-1 25t-1 28.5t-0.5 23.5h-2q-12 -23 -27.5 -41.5t-35.5 -31.5t-45.5 -20t-60.5 -7q-44 0 -75.5 11t-52 33.5 t-30 57.5t-9.5 84v352h88zM330 595v90h80v-90h-80zM138 595v90h80v-90h-80z" />
<glyph unicode="&#xfd;" horiz-adv-x="500" d="M295 0q-19 -48 -38 -86.5t-43 -65.5t-53.5 -41.5t-67.5 -14.5q-16 0 -30.5 1t-29.5 5v66q9 -2 20.5 -2.5t20.5 -0.5q38 0 71.5 28.5t58.5 91.5l8 21l-210 526h94l112 -292q4 -13 12 -35t15.5 -44t13 -39.5t6.5 -21.5q2 5 7.5 21t12.5 35.5t14.5 39.5t12.5 35l103 301h93z M173 586v10l106 140h101v-14l-161 -136h-46z" />
<glyph unicode="&#xfe;" d="M67 725h88v-207v-28t-1 -24q0 -12 -1 -23h3q12 26 28 43.5t36 29t44.5 17t55.5 5.5q55 0 92 -19.5t60 -55t32.5 -85.5t9.5 -111q0 -60 -9.5 -111t-32.5 -87.5t-60 -57.5t-92 -21q-57 0 -99.5 21.5t-64.5 70.5h-3q1 -1 1 -9t0.5 -19.5t0.5 -26v-28.5v-207h-88v933z M422 265q0 48 -6 86.5t-20.5 64.5t-38.5 40t-60 14q-29 0 -55 -8.5t-45 -32t-30.5 -64.5t-11.5 -107q0 -56 9.5 -95t27 -63t44 -34.5t60.5 -10.5q37 0 61 14t38.5 41t20.5 66t6 89z" />
<glyph unicode="&#xff;" horiz-adv-x="500" d="M295 0q-19 -48 -38 -86.5t-43 -65.5t-53.5 -41.5t-67.5 -14.5q-16 0 -30.5 1t-29.5 5v66q9 -2 20.5 -2.5t20.5 -0.5q38 0 71.5 28.5t58.5 91.5l8 21l-210 526h94l112 -292q4 -13 12 -35t15.5 -44t13 -39.5t6.5 -21.5q2 5 7.5 21t12.5 35.5t14.5 39.5t12.5 35l103 301h93z M306 595v90h79v-90h-79zM113 595v90h81v-90h-81z" />
<glyph unicode="&#x100;" horiz-adv-x="667" d="M570 0l-79 201h-313l-79 -201h-97l281 688h106l276 -688h-95zM375 501q-8 20 -15 40t-12.5 36t-9 27t-4.5 14q-1 -3 -4 -14t-9 -27.5t-13 -36.5l-14 -40l-88 -226h257zM469 767h-268v62h268v-62z" />
<glyph unicode="&#x101;" d="M202 -10q-79 0 -119.5 42t-40.5 115q0 53 20 86.5t52 52.5t73 26t84 8l118 2v29q0 33 -7 56t-21 37t-35 20.5t-50 6.5q-26 0 -46.5 -3.5t-35.5 -13t-24 -26t-12 -41.5l-92 9q5 31 18.5 57t38.5 45t63 29.5t92 10.5q99 0 149.5 -45.5t50.5 -132.5v-227q0 -39 10.5 -59 t38.5 -20q8 0 15 1t14 3v-55q-16 -4 -32.5 -6t-35.5 -2q-25 0 -42.5 6.5t-29 20t-17 33.5t-7.5 46h-3q-14 -25 -31 -45.5t-39.5 -35t-51 -22.5t-65.5 -8zM222 56q42 0 73.5 15.5t52.5 39.5t31 52t10 54v44l-96 -2q-32 -1 -61 -5t-51 -16t-35 -34t-13 -58q0 -43 23 -66.5 t66 -23.5zM407 604h-268v62h268v-62z" />
<glyph unicode="&#x102;" horiz-adv-x="667" d="M570 0l-79 201h-313l-79 -201h-97l281 688h106l276 -688h-95zM375 501q-8 20 -15 40t-12.5 36t-9 27t-4.5 14q-1 -3 -4 -14t-9 -27.5t-13 -36.5l-14 -40l-88 -226h257zM334 747q-36 0 -64 10t-48.5 27t-33 39t-16.5 46h57q9 -26 35.5 -41t70.5 -15q45 0 71 15t34 41h58 q-5 -24 -17 -46t-32.5 -39t-48.5 -27t-66 -10z" />
<glyph unicode="&#x103;" d="M202 -10q-79 0 -119.5 42t-40.5 115q0 53 20 86.5t52 52.5t73 26t84 8l118 2v29q0 33 -7 56t-21 37t-35 20.5t-50 6.5q-26 0 -46.5 -3.5t-35.5 -13t-24 -26t-12 -41.5l-92 9q5 31 18.5 57t38.5 45t63 29.5t92 10.5q99 0 149.5 -45.5t50.5 -132.5v-227q0 -39 10.5 -59 t38.5 -20q8 0 15 1t14 3v-55q-16 -4 -32.5 -6t-35.5 -2q-25 0 -42.5 6.5t-29 20t-17 33.5t-7.5 46h-3q-14 -25 -31 -45.5t-39.5 -35t-51 -22.5t-65.5 -8zM222 56q42 0 73.5 15.5t52.5 39.5t31 52t10 54v44l-96 -2q-32 -1 -61 -5t-51 -16t-35 -34t-13 -58q0 -43 23 -66.5 t66 -23.5zM273 586q-36 0 -64 12.5t-48.5 33.5t-33 48.5t-16.5 56.5h57q4 -21 13.5 -35.5t23.5 -23t31.5 -12t37.5 -3.5q21 0 38.5 3.5t31 12.5t22.5 23.5t13 34.5h58q-5 -29 -17 -56.5t-32.5 -48.5t-48.5 -33.5t-66 -12.5z" />
<glyph unicode="&#x104;" horiz-adv-x="667" d="M570 0l-79 201h-313l-79 -201h-97l281 688h106l276 -688h-95zM375 501q-8 20 -15 40t-12.5 36t-9 27t-4.5 14q-1 -3 -4 -14t-9 -27.5t-13 -36.5l-14 -40l-88 -226h257zM673 -190q-13 -6 -30.5 -9.5t-37.5 -3.5q-51 0 -77 25t-26 66q0 23 8.5 42.5t20 34t24.5 25t23 15.5 h65q-12 -6 -25 -17t-23.5 -25.5t-17 -31.5t-6.5 -36q0 -21 12 -32.5t34 -11.5q14 0 28.5 3t27.5 8v-52z" />
<glyph unicode="&#x105;" d="M202 -10q-79 0 -119.5 42t-40.5 115q0 53 20 86.5t52 52.5t73 26t84 8l118 2v29q0 33 -7 56t-21 37t-35 20.5t-50 6.5q-26 0 -46.5 -3.5t-35.5 -13t-24 -26t-12 -41.5l-92 9q5 31 18.5 57t38.5 45t63 29.5t92 10.5q99 0 149.5 -45.5t50.5 -132.5v-227q0 -39 10.5 -59 t38.5 -20q8 0 15 1t14 3v-55q-16 -4 -32.5 -6t-35.5 -2q-25 0 -42.5 6.5t-29 20t-17 33.5t-7.5 46h-3q-14 -25 -31 -45.5t-39.5 -35t-51 -22.5t-65.5 -8zM222 56q42 0 73.5 15.5t52.5 39.5t31 52t10 54v44l-96 -2q-32 -1 -61 -5t-51 -16t-35 -34t-13 -58q0 -43 23 -66.5 t66 -23.5zM556 -195q-14 -6 -31 -9.5t-37 -3.5q-51 0 -77 24.5t-26 66.5q0 23 8.5 42t20 34t24.5 25.5t23 15.5h65q-12 -7 -25 -18t-23.5 -25.5t-17 -31.5t-6.5 -36q0 -20 12 -32t34 -12q14 0 28 3.5t28 8.5v-52z" />
<glyph unicode="&#x106;" horiz-adv-x="722" d="M387 622q-59 0 -104 -19.5t-75.5 -55.5t-46 -87t-15.5 -113t16.5 -113.5t48 -88.5t77 -57.5t103.5 -20.5q40 0 73 10.5t59.5 29.5t47.5 45t37 58l76 -38q-18 -39 -45.5 -72t-64.5 -57.5t-83.5 -38.5t-104.5 -14q-83 0 -146 26.5t-105 74.5t-63 113.5t-21 142.5 q0 81 22 146t65 110.5t105.5 70t142.5 24.5q110 0 183.5 -43t108.5 -127l-89 -29q-9 24 -26 46t-41.5 39.5t-58 27.5t-76.5 10zM326 747v10l106 110h101v-14l-152 -106h-55z" />
<glyph unicode="&#x107;" horiz-adv-x="500" d="M134 267q0 -46 6.5 -84t22.5 -65.5t41.5 -42.5t63.5 -15q46 0 77.5 25t39.5 78l89 -6q-5 -32 -19.5 -62.5t-39.5 -53.5t-61.5 -37t-83.5 -14q-62 0 -105.5 21t-70.5 58t-39.5 87t-12.5 109q0 53 9 93.5t25 71t37.5 51.5t46.5 33.5t53 18t56 5.5q44 0 79 -12t60 -33.5 t40.5 -50t22.5 -62.5l-91 -6q-6 43 -34 69t-79 26q-38 0 -63 -12.5t-41 -37.5t-22.5 -63t-6.5 -89zM210 586v10l106 140h101v-14l-161 -136h-46z" />
<glyph unicode="&#x108;" horiz-adv-x="722" d="M387 622q-59 0 -104 -19.5t-75.5 -55.5t-46 -87t-15.5 -113t16.5 -113.5t48 -88.5t77 -57.5t103.5 -20.5q40 0 73 10.5t59.5 29.5t47.5 45t37 58l76 -38q-18 -39 -45.5 -72t-64.5 -57.5t-83.5 -38.5t-104.5 -14q-83 0 -146 26.5t-105 74.5t-63 113.5t-21 142.5 q0 81 22 146t65 110.5t105.5 70t142.5 24.5q110 0 183.5 -43t108.5 -127l-89 -29q-9 24 -26 46t-41.5 39.5t-58 27.5t-76.5 10zM548 757v-10h-51l-107 68h-1l-114 -68h-50v10l114 117h99z" />
<glyph unicode="&#x109;" horiz-adv-x="500" d="M134 267q0 -46 6.5 -84t22.5 -65.5t41.5 -42.5t63.5 -15q46 0 77.5 25t39.5 78l89 -6q-5 -32 -19.5 -62.5t-39.5 -53.5t-61.5 -37t-83.5 -14q-62 0 -105.5 21t-70.5 58t-39.5 87t-12.5 109q0 53 9 93.5t25 71t37.5 51.5t46.5 33.5t53 18t56 5.5q44 0 79 -12t60 -33.5 t40.5 -50t22.5 -62.5l-91 -6q-6 43 -34 69t-79 26q-38 0 -63 -12.5t-41 -37.5t-22.5 -63t-6.5 -89zM425 596v-10h-51l-107 83h-1l-114 -83h-50v10l114 132h99z" />
<glyph unicode="&#x10a;" horiz-adv-x="722" d="M387 622q-59 0 -104 -19.5t-75.5 -55.5t-46 -87t-15.5 -113t16.5 -113.5t48 -88.5t77 -57.5t103.5 -20.5q40 0 73 10.5t59.5 29.5t47.5 45t37 58l76 -38q-18 -39 -45.5 -72t-64.5 -57.5t-83.5 -38.5t-104.5 -14q-83 0 -146 26.5t-105 74.5t-63 113.5t-21 142.5 q0 81 22 146t65 110.5t105.5 70t142.5 24.5q110 0 183.5 -43t108.5 -127l-89 -29q-9 24 -26 46t-41.5 39.5t-58 27.5t-76.5 10zM343 784v84h88v-84h-88z" />
<glyph unicode="&#x10b;" horiz-adv-x="500" d="M134 267q0 -46 6.5 -84t22.5 -65.5t41.5 -42.5t63.5 -15q46 0 77.5 25t39.5 78l89 -6q-5 -32 -19.5 -62.5t-39.5 -53.5t-61.5 -37t-83.5 -14q-62 0 -105.5 21t-70.5 58t-39.5 87t-12.5 109q0 53 9 93.5t25 71t37.5 51.5t46.5 33.5t53 18t56 5.5q44 0 79 -12t60 -33.5 t40.5 -50t22.5 -62.5l-91 -6q-6 43 -34 69t-79 26q-38 0 -63 -12.5t-41 -37.5t-22.5 -63t-6.5 -89zM223 641v84h88v-84h-88z" />
<glyph unicode="&#x10c;" horiz-adv-x="722" d="M387 622q-59 0 -104 -19.5t-75.5 -55.5t-46 -87t-15.5 -113t16.5 -113.5t48 -88.5t77 -57.5t103.5 -20.5q40 0 73 10.5t59.5 29.5t47.5 45t37 58l76 -38q-18 -39 -45.5 -72t-64.5 -57.5t-83.5 -38.5t-104.5 -14q-83 0 -146 26.5t-105 74.5t-63 113.5t-21 142.5 q0 81 22 146t65 110.5t105.5 70t142.5 24.5q110 0 183.5 -43t108.5 -127l-89 -29q-9 24 -26 46t-41.5 39.5t-58 27.5t-76.5 10zM438 747h-99l-114 117v10h50l114 -68h1l107 68h51v-10z" />
<glyph unicode="&#x10d;" horiz-adv-x="500" d="M134 267q0 -46 6.5 -84t22.5 -65.5t41.5 -42.5t63.5 -15q46 0 77.5 25t39.5 78l89 -6q-5 -32 -19.5 -62.5t-39.5 -53.5t-61.5 -37t-83.5 -14q-62 0 -105.5 21t-70.5 58t-39.5 87t-12.5 109q0 53 9 93.5t25 71t37.5 51.5t46.5 33.5t53 18t56 5.5q44 0 79 -12t60 -33.5 t40.5 -50t22.5 -62.5l-91 -6q-6 43 -34 69t-79 26q-38 0 -63 -12.5t-41 -37.5t-22.5 -63t-6.5 -89zM318 586h-99l-115 132v10h51l114 -82h1l106 82h52v-10z" />
<glyph unicode="&#x10e;" horiz-adv-x="722" d="M674 351q0 -86 -25.5 -151.5t-70.5 -110t-106.5 -67t-132.5 -22.5h-257v688h228q79 0 146 -20t115.5 -61t75.5 -104.5t27 -151.5zM581 351q0 70 -20 119.5t-56.5 81t-86.5 46.5t-110 15h-133v-538h154q54 0 100 17.5t79.5 52t53 86.5t19.5 120zM389 747h-100l-114 117v10 h51l113 -68h1l107 68h51v-10z" />
<glyph unicode="&#x10f;" horiz-adv-x="615" d="M401 85q-25 -51 -65 -73t-100 -22q-100 0 -147 67.5t-47 204.5q0 276 194 276q60 0 100 -22t65 -70h1q0 5 -0.5 15.5t-0.5 22v22v14.5v205h88v-616v-36.5t0.5 -32.5t1 -25.5t1.5 -14.5h-84q-1 5 -2 14t-1.5 20.5t-1 24.5t-0.5 26h-2zM134 265q0 -55 7 -94t22 -64 t38.5 -37t57.5 -12t61 11.5t44.5 36.5t27 65.5t9.5 99.5q0 56 -9.5 94.5t-27.5 62.5t-44 34.5t-60 10.5q-32 0 -55.5 -11t-39.5 -36t-23.5 -65t-7.5 -96zM625 673q0 -43 -11 -71.5t-31 -51.5h-57q22 24 34 47.5t12 45.5h-43v82h96v-52z" />
<glyph unicode="&#x110;" horiz-adv-x="722" d="M7 391h75v297h228q79 0 146 -20t115.5 -61t75.5 -104.5t27 -151.5q0 -86 -25.5 -151.5t-70.5 -110t-106.5 -67t-132.5 -22.5h-257v316h-75v75zM581 351q0 70 -20 119.5t-56.5 81t-86.5 46.5t-110 15h-133v-222h199v-75h-199v-241h154q54 0 100 17.5t79.5 52t53 86.5 t19.5 120z" />
<glyph unicode="&#x111;" d="M401 85q-25 -51 -65 -73t-100 -22q-100 0 -147 67.5t-47 204.5q0 276 194 276q60 0 100 -22t65 -70h1q0 5 -0.5 15.5t-0.5 22v22v14.5v69h-147v64h147v72h88v-72h64v-64h-64v-480v-36.5t0.5 -32.5t1 -25.5t1.5 -14.5h-84q-1 5 -2 14t-1.5 20.5t-1 24.5t-0.5 26h-2z M134 265q0 -55 7 -94t22 -64t38.5 -37t57.5 -12t61 11.5t44.5 36.5t27 65.5t9.5 99.5q0 56 -9.5 94.5t-27.5 62.5t-44 34.5t-60 10.5q-32 0 -55.5 -11t-39.5 -36t-23.5 -65t-7.5 -96z" />
<glyph unicode="&#x112;" horiz-adv-x="667" d="M82 0v688h522v-76h-429v-221h400v-75h-400v-240h449v-76h-542zM478 767h-269v62h269v-62z" />
<glyph unicode="&#x113;" d="M135 246q0 -42 8.5 -77t26 -60t45.5 -39t67 -14q57 0 91.5 23t46.5 58l78 -22q-9 -22 -24 -44t-39.5 -40t-62 -29.5t-90.5 -11.5q-117 0 -178.5 70t-61.5 208q0 74 19 125.5t51 83.5t75 46.5t92 14.5q66 0 111 -21.5t72 -59.5t38.5 -89t11.5 -111v-11h-377zM421 313 q-7 83 -42.5 121.5t-101.5 38.5q-22 0 -46 -7t-44.5 -25t-34.5 -49t-16 -79h285zM413 604h-268v62h268v-62z" />
<glyph unicode="&#x114;" horiz-adv-x="667" d="M82 0v688h522v-76h-429v-221h400v-75h-400v-240h449v-76h-542zM342 747q-36 0 -64 10t-49 27t-33 39t-16 46h57q9 -26 35.5 -41t70.5 -15q45 0 71 15t34 41h57q-4 -24 -16 -46t-32.5 -39t-49 -27t-65.5 -10z" />
<glyph unicode="&#x115;" d="M135 246q0 -42 8.5 -77t26 -60t45.5 -39t67 -14q57 0 91.5 23t46.5 58l78 -22q-9 -22 -24 -44t-39.5 -40t-62 -29.5t-90.5 -11.5q-117 0 -178.5 70t-61.5 208q0 74 19 125.5t51 83.5t75 46.5t92 14.5q66 0 111 -21.5t72 -59.5t38.5 -89t11.5 -111v-11h-377zM421 313 q-7 83 -42.5 121.5t-101.5 38.5q-22 0 -46 -7t-44.5 -25t-34.5 -49t-16 -79h285zM278 586q-36 0 -64.5 12.5t-49 33.5t-32.5 48.5t-16 56.5h57q4 -21 13.5 -35.5t23 -23t31 -12t38.5 -3.5q20 0 37.5 3.5t31 12.5t23 23.5t13.5 34.5h57q-4 -29 -16.5 -56.5t-32.5 -48.5 t-48.5 -33.5t-65.5 -12.5z" />
<glyph unicode="&#x116;" horiz-adv-x="667" d="M82 0v688h522v-76h-429v-221h400v-75h-400v-240h449v-76h-542zM299 784v84h88v-84h-88z" />
<glyph unicode="&#x117;" d="M135 246q0 -42 8.5 -77t26 -60t45.5 -39t67 -14q57 0 91.5 23t46.5 58l78 -22q-9 -22 -24 -44t-39.5 -40t-62 -29.5t-90.5 -11.5q-117 0 -178.5 70t-61.5 208q0 74 19 125.5t51 83.5t75 46.5t92 14.5q66 0 111 -21.5t72 -59.5t38.5 -89t11.5 -111v-11h-377zM421 313 q-7 83 -42.5 121.5t-101.5 38.5q-22 0 -46 -7t-44.5 -25t-34.5 -49t-16 -79h285zM234 641v84h88v-84h-88z" />
<glyph unicode="&#x118;" horiz-adv-x="667" d="M82 0v688h522v-76h-429v-221h400v-75h-400v-240h449v-76h-542zM624 -195q-14 -6 -31 -9.5t-37 -3.5q-51 0 -77 24.5t-26 66.5q0 23 8.5 42t20 34t24.5 25.5t23 15.5h65q-12 -7 -25 -18t-23.5 -25.5t-17 -31.5t-6.5 -36q0 -20 12 -32t34 -12q14 0 28 3.5t28 8.5v-52z" />
<glyph unicode="&#x119;" d="M135 246q0 -42 8.5 -77t26 -60t45.5 -39t67 -14q57 0 91.5 23t46.5 58l78 -22q-9 -22 -24 -44t-39.5 -40t-62 -29.5t-90.5 -11.5q-117 0 -178.5 70t-61.5 208q0 74 19 125.5t51 83.5t75 46.5t92 14.5q66 0 111 -21.5t72 -59.5t38.5 -89t11.5 -111v-11h-377zM421 313 q-7 83 -42.5 121.5t-101.5 38.5q-22 0 -46 -7t-44.5 -25t-34.5 -49t-16 -79h285zM396 -195q-14 -6 -31 -9.5t-37 -3.5q-51 0 -77 24.5t-26 66.5q0 23 8.5 42t20 34t24.5 25.5t23 15.5h65q-12 -7 -25 -18t-23.5 -25.5t-17 -31.5t-6.5 -36q0 -20 12 -32t34 -12q14 0 28 3.5 t28 8.5v-52z" />
<glyph unicode="&#x11a;" horiz-adv-x="667" d="M82 0v688h522v-76h-429v-221h400v-75h-400v-240h449v-76h-542zM393 747h-100l-114 117v10h51l113 -68h1l107 68h51v-10z" />
<glyph unicode="&#x11b;" d="M135 246q0 -42 8.5 -77t26 -60t45.5 -39t67 -14q57 0 91.5 23t46.5 58l78 -22q-9 -22 -24 -44t-39.5 -40t-62 -29.5t-90.5 -11.5q-117 0 -178.5 70t-61.5 208q0 74 19 125.5t51 83.5t75 46.5t92 14.5q66 0 111 -21.5t72 -59.5t38.5 -89t11.5 -111v-11h-377zM421 313 q-7 83 -42.5 121.5t-101.5 38.5q-22 0 -46 -7t-44.5 -25t-34.5 -49t-16 -79h285zM328 586h-99l-115 132v10h51l113 -82h1l107 82h51v-10z" />
<glyph unicode="&#x11c;" horiz-adv-x="778" d="M50 347q0 81 22 146t65 110.5t107 70t149 24.5q63 0 111 -11t83 -32t59.5 -51t41.5 -68l-89 -26q-13 25 -30.5 46t-43 35.5t-59 22.5t-76.5 8q-62 0 -108.5 -19.5t-76.5 -55.5t-45 -87t-15 -113t16 -113.5t48 -89t79 -58t109 -20.5q40 0 74.5 7t62 18t48.5 24t35 27v124 h-205v78h291v-237q-23 -24 -54 -45t-69.5 -37t-84.5 -25.5t-98 -9.5q-87 0 -152 26.5t-108 74.5t-65 113.5t-22 142.5zM555 757v-10h-51l-107 68h-1l-113 -68h-51v10l114 117h100z" />
<glyph unicode="&#x11d;" d="M268 -208q-46 0 -81 9.5t-60 27t-40.5 41.5t-22.5 53l88 13q9 -37 39 -57t79 -20q30 0 54.5 8.5t41.5 27t26 47.5t9 71v85h-1q-9 -20 -23.5 -38t-35.5 -32.5t-48 -23t-63 -8.5q-50 0 -86 17t-58.5 50.5t-33 83.5t-10.5 116q0 64 10.5 114.5t34 86t61.5 54.5t92 19 q56 0 97.5 -26t63.5 -73h1q0 12 1 27t1.5 28.5t1.5 23.5t2 11h84q-1 -4 -1.5 -14.5t-1 -25t-0.5 -32.5v-37v-404q0 -111 -54.5 -167t-166.5 -56zM401 264q0 55 -12 94.5t-31.5 64.5t-44.5 36.5t-51 11.5q-34 0 -58 -11.5t-40 -37t-23.5 -64.5t-7.5 -94q0 -57 7.5 -96 t23 -62.5t39.5 -34t57 -10.5q27 0 52 11t45 35.5t32 63t12 93.5zM429 596v-10h-52l-106 83h-1l-114 -83h-51v10l115 132h99z" />
<glyph unicode="&#x11e;" horiz-adv-x="778" d="M50 347q0 81 22 146t65 110.5t107 70t149 24.5q63 0 111 -11t83 -32t59.5 -51t41.5 -68l-89 -26q-13 25 -30.5 46t-43 35.5t-59 22.5t-76.5 8q-62 0 -108.5 -19.5t-76.5 -55.5t-45 -87t-15 -113t16 -113.5t48 -89t79 -58t109 -20.5q40 0 74.5 7t62 18t48.5 24t35 27v124 h-205v78h291v-237q-23 -24 -54 -45t-69.5 -37t-84.5 -25.5t-98 -9.5q-87 0 -152 26.5t-108 74.5t-65 113.5t-22 142.5zM396 747q-37 0 -65 10t-48.5 27t-33 39t-16.5 46h58q8 -26 34.5 -41t70.5 -15q45 0 71 15t34 41h58q-5 -24 -17 -46t-32.5 -39t-48.5 -27t-65 -10z" />
<glyph unicode="&#x11f;" d="M268 -208q-46 0 -81 9.5t-60 27t-40.5 41.5t-22.5 53l88 13q9 -37 39 -57t79 -20q30 0 54.5 8.5t41.5 27t26 47.5t9 71v85h-1q-9 -20 -23.5 -38t-35.5 -32.5t-48 -23t-63 -8.5q-50 0 -86 17t-58.5 50.5t-33 83.5t-10.5 116q0 64 10.5 114.5t34 86t61.5 54.5t92 19 q56 0 97.5 -26t63.5 -73h1q0 12 1 27t1.5 28.5t1.5 23.5t2 11h84q-1 -4 -1.5 -14.5t-1 -25t-0.5 -32.5v-37v-404q0 -111 -54.5 -167t-166.5 -56zM401 264q0 55 -12 94.5t-31.5 64.5t-44.5 36.5t-51 11.5q-34 0 -58 -11.5t-40 -37t-23.5 -64.5t-7.5 -94q0 -57 7.5 -96 t23 -62.5t39.5 -34t57 -10.5q27 0 52 11t45 35.5t32 63t12 93.5zM267 586q-37 0 -65 12.5t-48.5 33.5t-33 48.5t-16.5 56.5h58q4 -21 13.5 -35.5t23 -23t31 -12t38.5 -3.5q20 0 37.5 3.5t31 12.5t23 23.5t13.5 34.5h57q-5 -29 -17 -56.5t-32.5 -48.5t-48.5 -33.5t-65 -12.5z " />
<glyph unicode="&#x120;" horiz-adv-x="778" d="M50 347q0 81 22 146t65 110.5t107 70t149 24.5q63 0 111 -11t83 -32t59.5 -51t41.5 -68l-89 -26q-13 25 -30.5 46t-43 35.5t-59 22.5t-76.5 8q-62 0 -108.5 -19.5t-76.5 -55.5t-45 -87t-15 -113t16 -113.5t48 -89t79 -58t109 -20.5q40 0 74.5 7t62 18t48.5 24t35 27v124 h-205v78h291v-237q-23 -24 -54 -45t-69.5 -37t-84.5 -25.5t-98 -9.5q-87 0 -152 26.5t-108 74.5t-65 113.5t-22 142.5zM352 784v84h88v-84h-88z" />
<glyph unicode="&#x121;" d="M268 -208q-46 0 -81 9.5t-60 27t-40.5 41.5t-22.5 53l88 13q9 -37 39 -57t79 -20q30 0 54.5 8.5t41.5 27t26 47.5t9 71v85h-1q-9 -20 -23.5 -38t-35.5 -32.5t-48 -23t-63 -8.5q-50 0 -86 17t-58.5 50.5t-33 83.5t-10.5 116q0 64 10.5 114.5t34 86t61.5 54.5t92 19 q56 0 97.5 -26t63.5 -73h1q0 12 1 27t1.5 28.5t1.5 23.5t2 11h84q-1 -4 -1.5 -14.5t-1 -25t-0.5 -32.5v-37v-404q0 -111 -54.5 -167t-166.5 -56zM401 264q0 55 -12 94.5t-31.5 64.5t-44.5 36.5t-51 11.5q-34 0 -58 -11.5t-40 -37t-23.5 -64.5t-7.5 -94q0 -57 7.5 -96 t23 -62.5t39.5 -34t57 -10.5q27 0 52 11t45 35.5t32 63t12 93.5zM223 641v84h88v-84h-88z" />
<glyph unicode="&#x122;" horiz-adv-x="778" d="M50 347q0 81 22 146t65 110.5t107 70t149 24.5q63 0 111 -11t83 -32t59.5 -51t41.5 -68l-89 -26q-13 25 -30.5 46t-43 35.5t-59 22.5t-76.5 8q-62 0 -108.5 -19.5t-76.5 -55.5t-45 -87t-15 -113t16 -113.5t48 -89t79 -58t109 -20.5q40 0 74.5 7t62 18t48.5 24t35 27v124 h-205v78h291v-237q-23 -24 -54 -45t-69.5 -37t-84.5 -25.5t-98 -9.5q-87 0 -152 26.5t-108 74.5t-65 113.5t-22 142.5zM448 -94q0 -43 -10.5 -69t-30.5 -49h-57q22 24 34 45t12 43h-43v76h95v-46z" />
<glyph unicode="&#x123;" d="M268 -208q-46 0 -81 9.5t-60 27t-40.5 41.5t-22.5 53l88 13q9 -37 39 -57t79 -20q30 0 54.5 8.5t41.5 27t26 47.5t9 71v85h-1q-9 -20 -23.5 -38t-35.5 -32.5t-48 -23t-63 -8.5q-50 0 -86 17t-58.5 50.5t-33 83.5t-10.5 116q0 64 10.5 114.5t34 86t61.5 54.5t92 19 q56 0 97.5 -26t63.5 -73h1q0 12 1 27t1.5 28.5t1.5 23.5t2 11h84q-1 -4 -1.5 -14.5t-1 -25t-0.5 -32.5v-37v-404q0 -111 -54.5 -167t-166.5 -56zM401 264q0 55 -12 94.5t-31.5 64.5t-44.5 36.5t-51 11.5q-34 0 -58 -11.5t-40 -37t-23.5 -64.5t-7.5 -94q0 -57 7.5 -96 t23 -62.5t39.5 -34t57 -10.5q27 0 52 11t45 35.5t32 63t12 93.5zM216 643q0 43 10.5 71.5t30.5 51.5h57q-22 -24 -34 -47.5t-12 -45.5h43v-82h-95v52z" />
<glyph unicode="&#x124;" horiz-adv-x="722" d="M547 0v319h-372v-319h-93v688h93v-291h372v291h94v-688h-94zM523 757v-10h-51l-107 68h-1l-114 -68h-50v10l114 117h100z" />
<glyph unicode="&#x125;" d="M155 438q14 27 31.5 45.5t38 31t44.5 18t55 5.5q51 0 83 -13.5t51 -38.5t26 -59t7 -75v-352h-88v335q0 34 -4 59t-16 42t-33.5 25.5t-55.5 8.5q-31 0 -56.5 -11t-43 -31.5t-27.5 -50t-10 -65.5v-312h-88v725h88v-189q0 -16 -0.5 -32t-1 -30t-1 -23.5t-1.5 -12.5h2z M441 788v-10h-51l-107 68h-1l-113 -68h-51v10l114 117h100z" />
<glyph unicode="&#x126;" horiz-adv-x="722" d="M550 0v319h-375v-319h-93v500h-75v76h75v112h93v-112h375v112h91v-112h74v-76h-74v-500h-91zM550 397v103h-375v-103h375z" />
<glyph unicode="&#x127;" d="M155 418q14 27 31.5 46t38 31t44.5 18t55 6q51 0 83 -14t51 -38.5t26 -58.5t7 -75v-333h-88v315q0 34 -4 59.5t-16 42.5t-33.5 25.5t-55.5 8.5q-31 0 -56.5 -11.5t-43 -32t-27.5 -49.5t-10 -66v-292h-88v589h-64v64h64v72h88v-72h147v-64h-147v-72q0 -17 -0.5 -33 t-1 -29.5t-1 -23t-1.5 -13.5h2z" />
<glyph unicode="&#x128;" horiz-adv-x="278" d="M92 0v688h94v-688h-94zM217 747q-21 0 -41.5 9t-39.5 20t-36 20t-33 9q-26 0 -39.5 -15t-17.5 -43h-45q3 22 8 45t16 42.5t29 31.5t46 12q22 0 42.5 -9t39.5 -20t36 -20t31 -9q27 0 40.5 15.5t17.5 42.5h44q-2 -22 -7 -45t-15.5 -42t-28.5 -31.5t-47 -12.5z" />
<glyph unicode="&#x129;" horiz-adv-x="278" d="M95 0v528h88v-528h-88zM217 586q-21 0 -41.5 9t-39.5 20t-36 20.5t-33 9.5q-26 0 -39.5 -15.5t-17.5 -43.5h-45q3 22 8 45.5t16 42.5t29 31t46 12q22 0 42.5 -9t39.5 -20t36 -20t31 -9q27 0 40.5 15.5t17.5 42.5h44q-2 -21 -7 -44.5t-15.5 -42.5t-28.5 -31.5t-47 -12.5z " />
<glyph unicode="&#x12a;" horiz-adv-x="278" d="M92 0v688h94v-688h-94zM274 767h-268v62h268v-62z" />
<glyph unicode="&#x12b;" horiz-adv-x="278" d="M95 0v528h88v-528h-88zM274 604h-268v62h268v-62z" />
<glyph unicode="&#x12c;" horiz-adv-x="278" d="M92 0v688h94v-688h-94zM140 747q-36 0 -64.5 10t-49 27t-32.5 39t-16 46h57q8 -26 35 -41t71 -15q45 0 71 15t34 41h57q-4 -24 -16.5 -46t-32.5 -39t-48.5 -27t-65.5 -10z" />
<glyph unicode="&#x12d;" horiz-adv-x="278" d="M95 0v528h88v-528h-88zM140 586q-36 0 -64.5 12.5t-49 33.5t-32.5 48.5t-16 56.5h57q4 -21 13.5 -35.5t23 -23t31.5 -12t38 -3.5q21 0 38 3.5t31 12.5t23 23.5t13 34.5h57q-4 -29 -16.5 -56.5t-32.5 -48.5t-48.5 -33.5t-65.5 -12.5z" />
<glyph unicode="&#x12e;" horiz-adv-x="278" d="M92 0v688h94v-688h-94zM216 -195q-14 -6 -31.5 -9.5t-36.5 -3.5q-51 0 -77 24.5t-26 66.5q0 23 8.5 42t20 34t24.5 25.5t23 15.5h65q-13 -7 -25.5 -18t-23 -25.5t-17 -31.5t-6.5 -36q0 -20 12 -32t34 -12q14 0 28 3.5t28 8.5v-52z" />
<glyph unicode="&#x12f;" horiz-adv-x="222" d="M67 641v84h88v-84h-88zM67 0v528h88v-528h-88zM187 -195q-14 -6 -31.5 -9.5t-36.5 -3.5q-52 0 -77.5 24.5t-25.5 66.5q0 23 8 42t20 34t25 25.5t22 15.5h65q-12 -7 -24.5 -18t-23 -25.5t-17.5 -31.5t-7 -36q0 -20 12 -32t34 -12q15 0 29 3.5t28 8.5v-52z" />
<glyph unicode="&#x130;" horiz-adv-x="278" d="M92 0v688h94v-688h-94zM95 784v84h88v-84h-88z" />
<glyph unicode="&#x131;" horiz-adv-x="278" d="M95 0v528h88v-528h-88z" />
<glyph unicode="&#x132;" horiz-adv-x="735" d="M83 0v688h94v-688h-94zM458 -10q-83 0 -136.5 43.5t-71.5 137.5l92 15q5 -32 16 -54.5t26.5 -37t34.5 -21.5t39 -7q51 0 80.5 35t29.5 102v409h-132v76h225v-483q0 -49 -14 -88.5t-40 -67.5t-63.5 -43.5t-85.5 -15.5z" />
<glyph unicode="&#x133;" horiz-adv-x="444" d="M67 641v84h88v-84h-88zM67 0v528h88v-528h-88zM289 641v84h87v-84h-87zM376 -65q0 -31 -5 -56.5t-18 -45t-36 -30.5t-58 -11q-16 0 -32 1t-30 4v68q7 -1 15.5 -2t15.5 -1q18 0 30 5t19 15.5t9.5 26.5t2.5 39v580h87v-593z" />
<glyph unicode="&#x134;" horiz-adv-x="500" d="M223 -10q-83 0 -136.5 43.5t-70.5 137.5l91 15q5 -32 16 -54.5t27 -37t35 -21.5t39 -7q50 0 79.5 35t29.5 102v409h-132v76h225v-483q0 -49 -14 -88.5t-40 -67.5t-63.5 -43.5t-85.5 -15.5zM475 757v-10h-51l-107 68h-1l-113 -68h-51v10l114 117h100z" />
<glyph unicode="&#x135;" horiz-adv-x="222" d="M38 -208q-17 0 -33 1t-29 4v68q6 -1 15 -2t15 -1q18 0 30 5t19 15.5t9.5 26.5t2.5 39v580h88v-593q0 -31 -5 -56.5t-18.5 -45t-36 -30.5t-57.5 -11zM273 596v-10h-51l-107 83h-1l-114 -83h-50v10l114 132h100z" />
<glyph unicode="&#x136;" horiz-adv-x="667" d="M540 0l-275 332l-90 -68v-264h-93v688h93v-345l332 345h110l-293 -299l332 -389h-116zM393 -94q0 -43 -10.5 -69t-30.5 -49h-57q22 24 34 45t12 43h-43v76h95v-46z" />
<glyph unicode="&#x137;" horiz-adv-x="500" d="M398 0l-178 241l-65 -53v-188h-88v725h88v-453l232 256h103l-214 -227l225 -301h-103zM323 -94q0 -43 -10.5 -69t-30.5 -49h-57q22 24 34 45t12 43h-43v76h95v-46z" />
<glyph unicode="&#x138;" horiz-adv-x="500" d="M398 0l-178 241l-65 -53v-188h-88v528h88v-256l232 256h103l-214 -227l225 -301h-103z" />
<glyph unicode="&#x139;" d="M82 0v688h93v-612h348v-76h-441zM120 747v10l106 110h101v-14l-152 -106h-55z" />
<glyph unicode="&#x13a;" horiz-adv-x="222" d="M67 0v725h88v-725h-88zM44 785v10l106 110h101v-14l-151 -106h-56z" />
<glyph unicode="&#x13b;" d="M82 0v688h93v-612h348v-76h-441zM350 -94q0 -43 -10.5 -69t-30.5 -49h-57q22 24 34 45t12 43h-43v76h95v-46z" />
<glyph unicode="&#x13c;" horiz-adv-x="222" d="M67 0v725h88v-725h-88zM160 -94q0 -43 -10.5 -69t-30.5 -49h-57q22 24 34 45t12 43h-43v76h95v-46z" />
<glyph unicode="&#x13d;" d="M82 0v688h93v-612h348v-76h-441zM419 636q0 -42 -11 -70.5t-30 -51.5h-57q22 23 34 46.5t12 45.5h-43v82h95v-52z" />
<glyph unicode="&#x13e;" horiz-adv-x="292" d="M67 0v725h88v-725h-88zM301 673q0 -43 -10.5 -71.5t-30.5 -51.5h-57q22 24 34 47.5t12 45.5h-43v82h95v-52z" />
<glyph unicode="&#x13f;" d="M82 0v688h93v-612h348v-76h-441zM305 336v84h88v-84h-88z" />
<glyph unicode="&#x140;" horiz-adv-x="334" d="M67 0v725h88v-725h-88zM233 336v84h88v-84h-88z" />
<glyph unicode="&#x141;" d="M301 389l-126 -73v-240h348v-76h-441v263l-72 -42v77l72 42v348h93v-294l126 72v-77z" />
<glyph unicode="&#x142;" horiz-adv-x="222" d="M67 0v265l-59 -34v78l59 33v383h88v-332l61 35v-78l-61 -35v-315h-88z" />
<glyph unicode="&#x143;" horiz-adv-x="722" d="M528 0l-368 586q1 -24 3 -47q1 -20 1.5 -42.5t0.5 -39.5v-457h-83v688h108l372 -590l-2 48q-1 21 -2 45t-1 46v451h84v-688h-113zM293 747v10l106 110h101v-14l-151 -106h-56z" />
<glyph unicode="&#x144;" d="M405 0v335q0 39 -5.5 64.5t-18.5 41.5t-33.5 22.5t-51.5 6.5t-56.5 -11t-43 -31.5t-27.5 -51t-10 -70.5v-306h-88v416v34.5t-0.5 34.5t-1 28t-1.5 15h83q1 -2 1.5 -13t1 -24.5t1 -28t0.5 -24.5h2q12 23 27.5 41.5t35.5 31.5t46 20t60 7q44 0 75.5 -10.5t52 -33t30 -58 t9.5 -84.5v-352h-88zM225 586v10l106 140h101v-14l-161 -136h-46z" />
<glyph unicode="&#x145;" horiz-adv-x="722" d="M528 0l-368 586q1 -24 3 -47q1 -20 1.5 -42.5t0.5 -39.5v-457h-83v688h108l372 -590l-2 48q-1 21 -2 45t-1 46v451h84v-688h-113zM408 -94q0 -43 -10.5 -69t-30.5 -49h-57q22 24 34 45t12 43h-43v76h95v-46z" />
<glyph unicode="&#x146;" d="M405 0v335q0 39 -5.5 64.5t-18.5 41.5t-33.5 22.5t-51.5 6.5t-56.5 -11t-43 -31.5t-27.5 -51t-10 -70.5v-306h-88v416v34.5t-0.5 34.5t-1 28t-1.5 15h83q1 -2 1.5 -13t1 -24.5t1 -28t0.5 -24.5h2q12 23 27.5 41.5t35.5 31.5t46 20t60 7q44 0 75.5 -10.5t52 -33t30 -58 t9.5 -84.5v-352h-88zM330 -94q0 -43 -11 -69t-30 -49h-58q22 24 34 45t12 43h-43v76h96v-46z" />
<glyph unicode="&#x147;" horiz-adv-x="722" d="M528 0l-368 586q1 -24 3 -47q1 -20 1.5 -42.5t0.5 -39.5v-457h-83v688h108l372 -590l-2 48q-1 21 -2 45t-1 46v451h84v-688h-113zM411 747h-100l-114 117v10h51l113 -68h1l107 68h51v-10z" />
<glyph unicode="&#x148;" d="M405 0v335q0 39 -5.5 64.5t-18.5 41.5t-33.5 22.5t-51.5 6.5t-56.5 -11t-43 -31.5t-27.5 -51t-10 -70.5v-306h-88v416v34.5t-0.5 34.5t-1 28t-1.5 15h83q1 -2 1.5 -13t1 -24.5t1 -28t0.5 -24.5h2q12 23 27.5 41.5t35.5 31.5t46 20t60 7q44 0 75.5 -10.5t52 -33t30 -58 t9.5 -84.5v-352h-88zM332 586h-100l-114 132v10h51l113 -82h1l107 82h51v-10z" />
<glyph unicode="&#x149;" horiz-adv-x="604" d="M451 0v335q0 39 -6 64.5t-18.5 41.5t-33 22.5t-51.5 6.5t-56.5 -11t-43 -31.5t-27.5 -51t-10 -70.5v-306h-88v416v34.5t-0.5 34.5t-1 28t-1.5 15h83q1 -2 1.5 -13t1 -24.5t1 -28t0.5 -24.5h2q12 23 27.5 41.5t35.5 31.5t45.5 20t60.5 7q44 0 75.5 -10.5t52 -33t30 -58 t9.5 -84.5v-352h-88zM98 617q0 -26 -2.5 -47t-7.5 -39t-12 -34.5t-16 -31.5h-60q21 32 33 64t12 63h-43v96h96v-71z" />
<glyph unicode="&#x14a;" horiz-adv-x="723" d="M459 -10q-27 0 -50.5 6t-42.5 15.5t-34.5 23t-27.5 27.5l62 57q18 -22 42.5 -38t53.5 -16q31 0 50 14t29 40.5t13.5 63.5t3.5 84v157q0 53 -9.5 90.5t-29.5 61.5t-51 35t-73 11q-46 0 -86 -15t-69.5 -40.5t-46.5 -59.5t-17 -72v-435h-93v533q0 18 -0.5 40.5t-0.5 44.5 t-0.5 40.5t-0.5 29.5h89q1 -11 1.5 -26.5t1 -32t1 -33.5t0.5 -31h2q16 30 41.5 55t57 42t69 26.5t79.5 9.5q60 0 103.5 -15.5t71 -48t40 -82.5t12.5 -118v-169q0 -64 -7 -114.5t-28 -86.5t-58 -55t-98 -19z" />
<glyph unicode="&#x14b;" d="M375 -208q-16 0 -32 1t-30 4v68q7 -1 15.5 -2t15.5 -1q18 0 30 5t19 15.5t9.5 26.5t2.5 39v387q0 39 -5.5 64.5t-18.5 41.5t-33.5 22.5t-51.5 6.5t-56.5 -11t-43 -31.5t-27.5 -51t-10 -70.5v-306h-88v416v34.5t-0.5 34.5t-1 28t-1.5 15h83q1 -2 1.5 -13t1 -24.5t1 -28 t0.5 -24.5h2q12 23 27.5 41.5t35.5 31.5t46 20t60 7q44 0 75.5 -10.5t52 -33t30 -58t9.5 -84.5v-417q0 -31 -5.5 -56.5t-18.5 -45t-35.5 -30.5t-58.5 -11z" />
<glyph unicode="&#x14c;" horiz-adv-x="778" d="M730 347q0 -80 -23 -146t-67 -113t-107.5 -72.5t-144.5 -25.5q-85 0 -149 26.5t-106.5 74.5t-64 113.5t-21.5 142.5q0 81 22.5 146t66 110.5t107.5 70t146 24.5t146 -25t107 -70.5t65.5 -110.5t22.5 -145zM635 347q0 62 -16 113t-47 87t-77 55.5t-106 19.5 q-61 0 -107.5 -19.5t-77.5 -55.5t-46.5 -87t-15.5 -113t16 -113.5t47 -89t77 -58t106 -20.5q65 0 111.5 21t76.5 58.5t44.5 89t14.5 112.5zM522 767h-268v62h268v-62z" />
<glyph unicode="&#x14d;" d="M514 265q0 -139 -61 -207t-177 -68q-55 0 -98.5 16.5t-73.5 51t-46 86t-16 121.5q0 273 237 273q61 0 106 -17t73.5 -51t42 -85.5t13.5 -119.5zM422 265q0 61 -9.5 101t-28 64t-45 33.5t-59.5 9.5t-60.5 -10t-46.5 -34t-29 -64t-10 -100q0 -62 11 -102t29.5 -64t44.5 -34 t56 -10q34 0 61 9.5t46 33.5t29.5 64.5t10.5 102.5zM412 604h-268v62h268v-62z" />
<glyph unicode="&#x14e;" horiz-adv-x="778" d="M730 347q0 -80 -23 -146t-67 -113t-107.5 -72.5t-144.5 -25.5q-85 0 -149 26.5t-106.5 74.5t-64 113.5t-21.5 142.5q0 81 22.5 146t66 110.5t107.5 70t146 24.5t146 -25t107 -70.5t65.5 -110.5t22.5 -145zM635 347q0 62 -16 113t-47 87t-77 55.5t-106 19.5 q-61 0 -107.5 -19.5t-77.5 -55.5t-46.5 -87t-15.5 -113t16 -113.5t47 -89t77 -58t106 -20.5q65 0 111.5 21t76.5 58.5t44.5 89t14.5 112.5zM388 747q-36 0 -64.5 10t-49 27t-32.5 39t-16 46h57q9 -26 35.5 -41t70.5 -15q45 0 71 15t34 41h57q-4 -24 -16.5 -46t-32.5 -39 t-48.5 -27t-65.5 -10z" />
<glyph unicode="&#x14f;" d="M514 265q0 -139 -61 -207t-177 -68q-55 0 -98.5 16.5t-73.5 51t-46 86t-16 121.5q0 273 237 273q61 0 106 -17t73.5 -51t42 -85.5t13.5 -119.5zM422 265q0 61 -9.5 101t-28 64t-45 33.5t-59.5 9.5t-60.5 -10t-46.5 -34t-29 -64t-10 -100q0 -62 11 -102t29.5 -64t44.5 -34 t56 -10q34 0 61 9.5t46 33.5t29.5 64.5t10.5 102.5zM278 586q-36 0 -64.5 12.5t-49 33.5t-32.5 48.5t-16 56.5h57q4 -21 13.5 -35.5t23 -23t31 -12t38.5 -3.5q20 0 37.5 3.5t31 12.5t23 23.5t13.5 34.5h57q-4 -29 -16.5 -56.5t-32.5 -48.5t-48.5 -33.5t-65.5 -12.5z" />
<glyph unicode="&#x150;" horiz-adv-x="778" d="M730 347q0 -80 -23 -146t-67 -113t-107.5 -72.5t-144.5 -25.5q-85 0 -149 26.5t-106.5 74.5t-64 113.5t-21.5 142.5q0 81 22.5 146t66 110.5t107.5 70t146 24.5t146 -25t107 -70.5t65.5 -110.5t22.5 -145zM635 347q0 62 -16 113t-47 87t-77 55.5t-106 19.5 q-61 0 -107.5 -19.5t-77.5 -55.5t-46.5 -87t-15.5 -113t16 -113.5t47 -89t77 -58t106 -20.5q65 0 111.5 21t76.5 58.5t44.5 89t14.5 112.5zM251 747v10l96 111h101v-14l-151 -107h-46zM420 747v10l97 111h101v-14l-152 -107h-46z" />
<glyph unicode="&#x151;" d="M514 265q0 -139 -61 -207t-177 -68q-55 0 -98.5 16.5t-73.5 51t-46 86t-16 121.5q0 273 237 273q61 0 106 -17t73.5 -51t42 -85.5t13.5 -119.5zM422 265q0 61 -9.5 101t-28 64t-45 33.5t-59.5 9.5t-60.5 -10t-46.5 -34t-29 -64t-10 -100q0 -62 11 -102t29.5 -64t44.5 -34 t56 -10q34 0 61 9.5t46 33.5t29.5 64.5t10.5 102.5zM140 586v10l106 140h101v-14l-161 -136h-46zM310 586v10l106 140h101v-14l-162 -136h-45z" />
<glyph unicode="&#x152;" horiz-adv-x="1000" d="M488 0q-10 -1 -22.5 -2t-26.5 -1.5l-28 -1t-26 -0.5q-82 0 -145.5 26t-106 72.5t-64.5 111.5t-22 142q0 81 23 145t66.5 109t106.5 68.5t143 23.5q13 0 27 -0.5l28 -1t26.5 -1.5t22.5 -2h446v-76h-392v-221h363v-75h-363v-240h412v-76h-468zM385 71q16 0 34.5 0.5 t31.5 1.5v542q-6 1 -13.5 1.5t-16.5 0.5h-18h-17q-61 0 -106.5 -18t-76 -52.5t-46 -85t-15.5 -114.5q0 -63 15.5 -114t46.5 -87t76.5 -55.5t104.5 -19.5z" />
<glyph unicode="&#x153;" horiz-adv-x="944" d="M522 246q0 -42 9 -77t26.5 -60t45.5 -39t67 -14q57 0 91.5 23t46.5 58l77 -22q-8 -22 -23 -44t-40 -40t-62 -29.5t-90 -11.5q-67 0 -115.5 22.5t-77.5 67.5q-31 -46 -80 -68t-116 -22q-55 0 -99.5 16.5t-75.5 51t-47.5 86t-16.5 121.5q0 136 62 204.5t180 68.5 q137 0 194 -86q33 46 81.5 66t107.5 20q66 0 110.5 -21.5t71.5 -59.5t38.5 -89t11.5 -111v-11h-377zM430 265q0 61 -10 101t-29 64t-46 33.5t-60 9.5q-34 0 -61.5 -10t-47.5 -34t-31 -64t-11 -100q0 -62 11.5 -102t31.5 -64t46.5 -34t56.5 -10q33 0 61 9.5t48 33.5 t30.5 64.5t10.5 102.5zM809 313q-8 83 -43 121.5t-101 38.5q-22 0 -46 -7t-44.5 -25t-35 -49t-16.5 -79h286z" />
<glyph unicode="&#x154;" horiz-adv-x="722" d="M568 0l-178 286h-215v-286h-93v688h324q58 0 103.5 -13.5t76 -39t46.5 -62t16 -82.5q0 -33 -9.5 -64.5t-30 -58t-52 -45.5t-76.5 -27l196 -296h-108zM555 490q0 31 -11 54t-31.5 38.5t-49.5 23t-67 7.5h-221v-254h225q40 0 69.5 10t48.5 28t28 41.5t9 51.5zM270 747v10 l106 110h101v-14l-151 -106h-56z" />
<glyph unicode="&#x155;" horiz-adv-x="333" d="M69 0v405v34.5t-0.5 33.5t-1 30t-1.5 25h83q1 -11 1.5 -25.5t1.5 -29.5t1 -29v-24h2q10 31 20.5 53t24.5 36.5t33.5 21.5t47.5 7q11 0 20.5 -1.5t14.5 -3.5v-80q-8 2 -20 3.5t-26 1.5q-31 0 -52 -14t-34.5 -38t-20 -57.5t-6.5 -73.5v-275h-88zM124 586v10l106 140h101 v-14l-161 -136h-46z" />
<glyph unicode="&#x156;" horiz-adv-x="722" d="M568 0l-178 286h-215v-286h-93v688h324q58 0 103.5 -13.5t76 -39t46.5 -62t16 -82.5q0 -33 -9.5 -64.5t-30 -58t-52 -45.5t-76.5 -27l196 -296h-108zM555 490q0 31 -11 54t-31.5 38.5t-49.5 23t-67 7.5h-221v-254h225q40 0 69.5 10t48.5 28t28 41.5t9 51.5zM413 -94 q0 -43 -11 -69t-30 -49h-58q22 24 34 45t12 43h-43v76h96v-46z" />
<glyph unicode="&#x157;" horiz-adv-x="333" d="M69 0v405v34.5t-0.5 33.5t-1 30t-1.5 25h83q1 -11 1.5 -25.5t1.5 -29.5t1 -29v-24h2q10 31 20.5 53t24.5 36.5t33.5 21.5t47.5 7q11 0 20.5 -1.5t14.5 -3.5v-80q-8 2 -20 3.5t-26 1.5q-31 0 -52 -14t-34.5 -38t-20 -57.5t-6.5 -73.5v-275h-88zM161 -94q0 -43 -10.5 -69 t-30.5 -49h-57q22 24 34 45t12 43h-43v76h95v-46z" />
<glyph unicode="&#x158;" horiz-adv-x="722" d="M568 0l-178 286h-215v-286h-93v688h324q58 0 103.5 -13.5t76 -39t46.5 -62t16 -82.5q0 -33 -9.5 -64.5t-30 -58t-52 -45.5t-76.5 -27l196 -296h-108zM555 490q0 31 -11 54t-31.5 38.5t-49.5 23t-67 7.5h-221v-254h225q40 0 69.5 10t48.5 28t28 41.5t9 51.5zM389 747h-100 l-114 117v10h51l113 -68h1l107 68h51v-10z" />
<glyph unicode="&#x159;" horiz-adv-x="333" d="M69 0v405v34.5t-0.5 33.5t-1 30t-1.5 25h83q1 -11 1.5 -25.5t1.5 -29.5t1 -29v-24h2q10 31 20.5 53t24.5 36.5t33.5 21.5t47.5 7q11 0 20.5 -1.5t14.5 -3.5v-80q-8 2 -20 3.5t-26 1.5q-31 0 -52 -14t-34.5 -38t-20 -57.5t-6.5 -73.5v-275h-88zM241 586h-99l-115 132v10 h51l113 -82h1l107 82h52v-10z" />
<glyph unicode="&#x15a;" horiz-adv-x="667" d="M621 190q0 -44 -17 -80.5t-52 -63t-88.5 -41.5t-126.5 -15q-129 0 -200.5 45t-91.5 130l91 18q7 -27 21 -49t38 -37.5t60 -24.5t85 -9q42 0 76.5 7t59.5 21.5t39 38t14 55.5q0 34 -15.5 55t-43.5 34.5t-66.5 23t-85.5 19.5q-28 7 -57.5 14.5t-56 18t-50 24.5t-40.5 34 t-26.5 46t-9.5 60q0 49 19.5 84t54.5 57.5t83 32.5t104 10q64 0 109.5 -10t76.5 -30t50 -49.5t30 -68.5l-92 -16q-7 25 -20 44.5t-34 32.5t-51 20t-70 7q-48 0 -80.5 -8.5t-52 -23t-28.5 -34.5t-9 -43q0 -31 15.5 -50.5t42 -33t61 -22t73.5 -17.5q32 -7 63.5 -14.5t60.5 -18 t54 -25t43.5 -35t29 -48t10.5 -65.5zM274 747v10l106 140h101v-14l-161 -136h-46z" />
<glyph unicode="&#x15b;" horiz-adv-x="500" d="M464 146q0 -37 -14.5 -66t-42 -49t-67 -30.5t-90.5 -10.5q-46 0 -83 7t-65 23t-46.5 41.5t-27.5 62.5l77 15q12 -42 47 -62t98 -20q28 0 51.5 4t40.5 13.5t26.5 25.5t9.5 39q0 24 -11 39.5t-31 25.5t-48.5 17.5t-62.5 17.5q-32 8 -63.5 18.5t-56.5 27t-40.5 41.5 t-15.5 63q0 72 51.5 110t149.5 38q88 0 139.5 -31t65.5 -99l-80 -10q-4 21 -15.5 35t-28.5 22.5t-37.5 12t-43.5 3.5q-59 0 -87.5 -18t-28.5 -55q0 -21 10.5 -35t29.5 -23.5t45.5 -16.5t57.5 -15q21 -5 43 -11t43 -15t39 -20t32 -27.5t22 -38t8 -49.5zM188 586v10l106 140 h101v-14l-161 -136h-46z" />
<glyph unicode="&#x15c;" horiz-adv-x="667" d="M621 190q0 -44 -17 -80.5t-52 -63t-88.5 -41.5t-126.5 -15q-129 0 -200.5 45t-91.5 130l91 18q7 -27 21 -49t38 -37.5t60 -24.5t85 -9q42 0 76.5 7t59.5 21.5t39 38t14 55.5q0 34 -15.5 55t-43.5 34.5t-66.5 23t-85.5 19.5q-28 7 -57.5 14.5t-56 18t-50 24.5t-40.5 34 t-26.5 46t-9.5 60q0 49 19.5 84t54.5 57.5t83 32.5t104 10q64 0 109.5 -10t76.5 -30t50 -49.5t30 -68.5l-92 -16q-7 25 -20 44.5t-34 32.5t-51 20t-70 7q-48 0 -80.5 -8.5t-52 -23t-28.5 -34.5t-9 -43q0 -31 15.5 -50.5t42 -33t61 -22t73.5 -17.5q32 -7 63.5 -14.5t60.5 -18 t54 -25t43.5 -35t29 -48t10.5 -65.5zM504 756v-10h-51l-107 83h-1l-114 -83h-50v10l114 132h100z" />
<glyph unicode="&#x15d;" horiz-adv-x="500" d="M464 146q0 -37 -14.5 -66t-42 -49t-67 -30.5t-90.5 -10.5q-46 0 -83 7t-65 23t-46.5 41.5t-27.5 62.5l77 15q12 -42 47 -62t98 -20q28 0 51.5 4t40.5 13.5t26.5 25.5t9.5 39q0 24 -11 39.5t-31 25.5t-48.5 17.5t-62.5 17.5q-32 8 -63.5 18.5t-56.5 27t-40.5 41.5 t-15.5 63q0 72 51.5 110t149.5 38q88 0 139.5 -31t65.5 -99l-80 -10q-4 21 -15.5 35t-28.5 22.5t-37.5 12t-43.5 3.5q-59 0 -87.5 -18t-28.5 -55q0 -21 10.5 -35t29.5 -23.5t45.5 -16.5t57.5 -15q21 -5 43 -11t43 -15t39 -20t32 -27.5t22 -38t8 -49.5zM407 596v-10h-51 l-107 83h-1l-113 -83h-51v10l114 132h100z" />
<glyph unicode="&#x15e;" horiz-adv-x="667" d="M621 190q0 -44 -17 -80.5t-52 -63t-88.5 -41.5t-126.5 -15q-129 0 -200.5 45t-91.5 130l91 18q7 -27 21 -49t38 -37.5t60 -24.5t85 -9q42 0 76.5 7t59.5 21.5t39 38t14 55.5q0 34 -15.5 55t-43.5 34.5t-66.5 23t-85.5 19.5q-28 7 -57.5 14.5t-56 18t-50 24.5t-40.5 34 t-26.5 46t-9.5 60q0 49 19.5 84t54.5 57.5t83 32.5t104 10q64 0 109.5 -10t76.5 -30t50 -49.5t30 -68.5l-92 -16q-7 25 -20 44.5t-34 32.5t-51 20t-70 7q-48 0 -80.5 -8.5t-52 -23t-28.5 -34.5t-9 -43q0 -31 15.5 -50.5t42 -33t61 -22t73.5 -17.5q32 -7 63.5 -14.5t60.5 -18 t54 -25t43.5 -35t29 -48t10.5 -65.5zM442 -124q0 -20 -7.5 -36t-23 -28t-41 -18t-62.5 -6q-10 0 -21 0.5t-23 1.5v48q24 -3 42 -3q20 0 34 3t22.5 8t12 12.5t3.5 16.5q0 18 -15 27.5t-50 9.5h-14t-14 -1l32 89h52l-19 -49q46 -1 69 -21t23 -54z" />
<glyph unicode="&#x15f;" horiz-adv-x="500" d="M464 146q0 -37 -14.5 -66t-42 -49t-67 -30.5t-90.5 -10.5q-46 0 -83 7t-65 23t-46.5 41.5t-27.5 62.5l77 15q12 -42 47 -62t98 -20q28 0 51.5 4t40.5 13.5t26.5 25.5t9.5 39q0 24 -11 39.5t-31 25.5t-48.5 17.5t-62.5 17.5q-32 8 -63.5 18.5t-56.5 27t-40.5 41.5 t-15.5 63q0 72 51.5 110t149.5 38q88 0 139.5 -31t65.5 -99l-80 -10q-4 21 -15.5 35t-28.5 22.5t-37.5 12t-43.5 3.5q-59 0 -87.5 -18t-28.5 -55q0 -21 10.5 -35t29.5 -23.5t45.5 -16.5t57.5 -15q21 -5 43 -11t43 -15t39 -20t32 -27.5t22 -38t8 -49.5zM342 -124 q0 -20 -7 -36t-23 -28t-41.5 -18t-62.5 -6q-9 0 -20 0.5t-23 1.5v48q23 -3 42 -3q20 0 33.5 3t22 8t12 12.5t3.5 16.5q0 18 -14.5 27.5t-50.5 9.5h-13.5t-13.5 -1l31 89h53l-20 -49q46 -1 69 -21t23 -54z" />
<glyph unicode="&#x160;" horiz-adv-x="667" d="M621 190q0 -44 -17 -80.5t-52 -63t-88.5 -41.5t-126.5 -15q-129 0 -200.5 45t-91.5 130l91 18q7 -27 21 -49t38 -37.5t60 -24.5t85 -9q42 0 76.5 7t59.5 21.5t39 38t14 55.5q0 34 -15.5 55t-43.5 34.5t-66.5 23t-85.5 19.5q-28 7 -57.5 14.5t-56 18t-50 24.5t-40.5 34 t-26.5 46t-9.5 60q0 49 19.5 84t54.5 57.5t83 32.5t104 10q64 0 109.5 -10t76.5 -30t50 -49.5t30 -68.5l-92 -16q-7 25 -20 44.5t-34 32.5t-51 20t-70 7q-48 0 -80.5 -8.5t-52 -23t-28.5 -34.5t-9 -43q0 -31 15.5 -50.5t42 -33t61 -22t73.5 -17.5q32 -7 63.5 -14.5t60.5 -18 t54 -25t43.5 -35t29 -48t10.5 -65.5zM395 747h-100l-114 117v10h51l113 -68h1l107 68h51v-10z" />
<glyph unicode="&#x161;" horiz-adv-x="500" d="M464 146q0 -37 -14.5 -66t-42 -49t-67 -30.5t-90.5 -10.5q-46 0 -83 7t-65 23t-46.5 41.5t-27.5 62.5l77 15q12 -42 47 -62t98 -20q28 0 51.5 4t40.5 13.5t26.5 25.5t9.5 39q0 24 -11 39.5t-31 25.5t-48.5 17.5t-62.5 17.5q-32 8 -63.5 18.5t-56.5 27t-40.5 41.5 t-15.5 63q0 72 51.5 110t149.5 38q88 0 139.5 -31t65.5 -99l-80 -10q-4 21 -15.5 35t-28.5 22.5t-37.5 12t-43.5 3.5q-59 0 -87.5 -18t-28.5 -55q0 -21 10.5 -35t29.5 -23.5t45.5 -16.5t57.5 -15q21 -5 43 -11t43 -15t39 -20t32 -27.5t22 -38t8 -49.5zM298 586h-99l-115 132 v10h51l114 -82h1l106 82h52v-10z" />
<glyph unicode="&#x162;" horiz-adv-x="611" d="M352 612v-612h-93v612h-237v76h566v-76h-236zM353 -94q0 -43 -10.5 -69t-30.5 -49h-57q22 24 34 45t12 43h-43v76h95v-46z" />
<glyph unicode="&#x163;" horiz-adv-x="278" d="M271 4q-21 -5 -41.5 -8.5t-47.5 -3.5q-106 0 -106 120v352h-61v64h65l25 118h59v-118h98v-64h-98v-333q0 -38 12.5 -53.5t43.5 -15.5q12 0 24 2t27 5v-65zM216 -94q0 -43 -10.5 -69t-30.5 -49h-57q22 24 34 45t12 43h-43v76h95v-46z" />
<glyph unicode="&#x164;" horiz-adv-x="611" d="M352 612v-612h-93v612h-237v76h566v-76h-236zM355 747h-100l-114 117v10h51l113 -68h1l107 68h51v-10z" />
<glyph unicode="&#x165;" horiz-adv-x="375" d="M271 4q-21 -5 -41.5 -8.5t-47.5 -3.5q-106 0 -106 120v352h-61v64h65l25 118h59v-118h98v-64h-98v-333q0 -38 12.5 -53.5t43.5 -15.5q12 0 24 2t27 5v-65zM383 673q0 -43 -10.5 -71.5t-30.5 -51.5h-57q22 24 34 47.5t12 45.5h-43v82h95v-52z" />
<glyph unicode="&#x166;" horiz-adv-x="611" d="M352 612v-221h137v-75h-137v-316h-93v316h-136v75h136v221h-237v76h566v-76h-236z" />
<glyph unicode="&#x167;" horiz-adv-x="278" d="M164 252v-121q0 -38 12.5 -53.5t43.5 -15.5q12 0 24 2t27 5v-65q-21 -5 -41.5 -8.5t-47.5 -3.5q-106 0 -106 120v140h-61v64h61v148h-61v64h65l25 118h59v-118h98v-64h-98v-148h98v-64h-98z" />
<glyph unicode="&#x168;" horiz-adv-x="722" d="M357 -10q-57 0 -107.5 15.5t-89 47t-61 81t-22.5 116.5v438h93v-430q0 -52 14 -88.5t39 -59.5t59 -33.5t74 -10.5t76 10.5t62.5 34t42 61.5t15.5 92v424h93v-429q0 -69 -22.5 -119.5t-62 -84t-91.5 -49.5t-112 -16zM437 747q-20 0 -40.5 9t-39.5 20t-36.5 20t-32.5 9 q-27 0 -40 -15t-18 -43h-44q2 22 7 45t16 42.5t29 31.5t47 12q22 0 42.5 -9t39.5 -20t35.5 -20t31.5 -9q26 0 39.5 15.5t17.5 42.5h45q-2 -22 -7 -45t-15.5 -42t-28.5 -31.5t-48 -12.5z" />
<glyph unicode="&#x169;" d="M153 528v-335q0 -38 6 -64t18.5 -42t33 -22.5t51.5 -6.5t56.5 11t43 32t27.5 51.5t10 69.5v306h88v-415v-35t0.5 -34.5t1 -28.5t1.5 -15h-83q-1 2 -1.5 13t-1 25t-1 28.5t-0.5 23.5h-2q-12 -23 -27.5 -41.5t-35.5 -31.5t-45.5 -20t-60.5 -7q-44 0 -75.5 11t-52 33.5 t-30 57.5t-9.5 84v352h88zM360 586q-20 0 -40.5 9t-39.5 20t-36.5 20.5t-32.5 9.5q-27 0 -40 -15.5t-18 -43.5h-44q2 22 7 45.5t16 42.5t29 31t47 12q21 0 42 -9t40 -20t35.5 -20t31.5 -9q26 0 39.5 15.5t17.5 42.5h45q-2 -21 -7 -44.5t-15.5 -42.5t-28.5 -31.5t-48 -12.5z " />
<glyph unicode="&#x16a;" horiz-adv-x="722" d="M357 -10q-57 0 -107.5 15.5t-89 47t-61 81t-22.5 116.5v438h93v-430q0 -52 14 -88.5t39 -59.5t59 -33.5t74 -10.5t76 10.5t62.5 34t42 61.5t15.5 92v424h93v-429q0 -69 -22.5 -119.5t-62 -84t-91.5 -49.5t-112 -16zM496 764h-268v62h268v-62z" />
<glyph unicode="&#x16b;" d="M153 528v-335q0 -38 6 -64t18.5 -42t33 -22.5t51.5 -6.5t56.5 11t43 32t27.5 51.5t10 69.5v306h88v-415v-35t0.5 -34.5t1 -28.5t1.5 -15h-83q-1 2 -1.5 13t-1 25t-1 28.5t-0.5 23.5h-2q-12 -23 -27.5 -41.5t-35.5 -31.5t-45.5 -20t-60.5 -7q-44 0 -75.5 11t-52 33.5 t-30 57.5t-9.5 84v352h88zM410 604h-268v62h268v-62z" />
<glyph unicode="&#x16c;" horiz-adv-x="722" d="M357 -10q-57 0 -107.5 15.5t-89 47t-61 81t-22.5 116.5v438h93v-430q0 -52 14 -88.5t39 -59.5t59 -33.5t74 -10.5t76 10.5t62.5 34t42 61.5t15.5 92v424h93v-429q0 -69 -22.5 -119.5t-62 -84t-91.5 -49.5t-112 -16zM360 747q-36 0 -64 10t-48.5 27t-33 39t-16.5 46h57 q9 -26 35.5 -41t70.5 -15q45 0 71 15t34 41h57q-4 -24 -16 -46t-32.5 -39t-49 -27t-65.5 -10z" />
<glyph unicode="&#x16d;" d="M153 528v-335q0 -38 6 -64t18.5 -42t33 -22.5t51.5 -6.5t56.5 11t43 32t27.5 51.5t10 69.5v306h88v-415v-35t0.5 -34.5t1 -28.5t1.5 -15h-83q-1 2 -1.5 13t-1 25t-1 28.5t-0.5 23.5h-2q-12 -23 -27.5 -41.5t-35.5 -31.5t-45.5 -20t-60.5 -7q-44 0 -75.5 11t-52 33.5 t-30 57.5t-9.5 84v352h88zM275 586q-36 0 -64 12.5t-48.5 33.5t-33 48.5t-16.5 56.5h57q4 -21 13.5 -35.5t23.5 -23t31.5 -12t37.5 -3.5q21 0 38.5 3.5t31 12.5t22.5 23.5t13 34.5h57q-4 -29 -16 -56.5t-32.5 -48.5t-49 -33.5t-65.5 -12.5z" />
<glyph unicode="&#x16e;" horiz-adv-x="722" d="M357 -10q-57 0 -107.5 15.5t-89 47t-61 81t-22.5 116.5v438h93v-430q0 -52 14 -88.5t39 -59.5t59 -33.5t74 -10.5t76 10.5t62.5 34t42 61.5t15.5 92v424h93v-429q0 -69 -22.5 -119.5t-62 -84t-91.5 -49.5t-112 -16zM479 788q0 -25 -9 -46.5t-25 -37.5t-37.5 -25.5 t-46.5 -9.5q-24 0 -45.5 9.5t-37.5 25.5t-25.5 37.5t-9.5 46.5q0 24 9.5 45.5t25.5 37.5t37.5 25t45.5 9q25 0 46.5 -9t37.5 -25t25 -37.5t9 -45.5zM427 788q0 13 -5 25t-14 21t-21 14t-26 5t-26 -5t-20.5 -14t-14 -21t-5.5 -25q0 -15 5.5 -26.5t14 -21t20.5 -14.5t26 -5 t26 5t21 14.5t14 21t5 26.5z" />
<glyph unicode="&#x16f;" d="M153 528v-335q0 -38 6 -64t18.5 -42t33 -22.5t51.5 -6.5t56.5 11t43 32t27.5 51.5t10 69.5v306h88v-415v-35t0.5 -34.5t1 -28.5t1.5 -15h-83q-1 2 -1.5 13t-1 25t-1 28.5t-0.5 23.5h-2q-12 -23 -27.5 -41.5t-35.5 -31.5t-45.5 -20t-60.5 -7q-44 0 -75.5 11t-52 33.5 t-30 57.5t-9.5 84v352h88zM396 688q0 -24 -9.5 -45.5t-25.5 -37.5t-37.5 -25.5t-45.5 -9.5q-25 0 -46.5 9.5t-37.5 25.5t-25 37.5t-9 45.5q0 25 9 46.5t25 37.5t37.5 25t46.5 9q24 0 45.5 -9t37.5 -25t25.5 -37.5t9.5 -46.5zM343 688q0 14 -5 26t-14 21t-20.5 14t-25.5 5 t-26 -5t-21 -14t-14 -21t-5 -26t5 -26t14 -21t21 -14t26 -5t25.5 5t20.5 14t14 21t5 26z" />
<glyph unicode="&#x170;" horiz-adv-x="722" d="M357 -10q-57 0 -107.5 15.5t-89 47t-61 81t-22.5 116.5v438h93v-430q0 -52 14 -88.5t39 -59.5t59 -33.5t74 -10.5t76 10.5t62.5 34t42 61.5t15.5 92v424h93v-429q0 -69 -22.5 -119.5t-62 -84t-91.5 -49.5t-112 -16zM217 747v10l96 111h102v-14l-152 -107h-46zM387 747v10 l96 111h101v-14l-151 -107h-46z" />
<glyph unicode="&#x171;" d="M153 528v-335q0 -38 6 -64t18.5 -42t33 -22.5t51.5 -6.5t56.5 11t43 32t27.5 51.5t10 69.5v306h88v-415v-35t0.5 -34.5t1 -28.5t1.5 -15h-83q-1 2 -1.5 13t-1 25t-1 28.5t-0.5 23.5h-2q-12 -23 -27.5 -41.5t-35.5 -31.5t-45.5 -20t-60.5 -7q-44 0 -75.5 11t-52 33.5 t-30 57.5t-9.5 84v352h88zM138 586v10l106 140h101v-14l-161 -136h-46zM308 586v10l106 140h101v-14l-161 -136h-46z" />
<glyph unicode="&#x172;" horiz-adv-x="722" d="M357 -10q-57 0 -107.5 15.5t-89 47t-61 81t-22.5 116.5v438h93v-430q0 -52 14 -88.5t39 -59.5t59 -33.5t74 -10.5t76 10.5t62.5 34t42 61.5t15.5 92v424h93v-429q0 -69 -22.5 -119.5t-62 -84t-91.5 -49.5t-112 -16zM476 -195q-14 -6 -31.5 -9.5t-36.5 -3.5 q-52 0 -77.5 24.5t-25.5 66.5q0 23 8 42t20 34t25 25.5t22 15.5h65q-12 -7 -24.5 -18t-23 -25.5t-17 -31.5t-6.5 -36q0 -20 11.5 -32t33.5 -12q15 0 29 3.5t28 8.5v-52z" />
<glyph unicode="&#x173;" d="M153 528v-335q0 -38 6 -64t18.5 -42t33 -22.5t51.5 -6.5t56.5 11t43 32t27.5 51.5t10 69.5v306h88v-415v-35t0.5 -34.5t1 -28.5t1.5 -15h-83q-1 2 -1.5 13t-1 25t-1 28.5t-0.5 23.5h-2q-12 -23 -27.5 -41.5t-35.5 -31.5t-45.5 -20t-60.5 -7q-44 0 -75.5 11t-52 33.5 t-30 57.5t-9.5 84v352h88zM502 -195q-13 -6 -30.5 -9.5t-36.5 -3.5q-52 0 -77.5 24.5t-25.5 66.5q0 23 8 42t20 34t24.5 25.5t22.5 15.5h65q-12 -7 -24.5 -18t-23 -25.5t-17.5 -31.5t-7 -36q0 -20 12 -32t34 -12q14 0 28.5 3.5t27.5 8.5v-52z" />
<glyph unicode="&#x174;" horiz-adv-x="944" d="M738 0h-112l-119 437q-5 19 -11 44t-11 48q-6 27 -12 55q-6 -28 -12 -55q-5 -24 -11 -48.5t-12 -43.5l-120 -437h-111l-203 688h98l123 -437q8 -31 16 -61t13 -54q6 -29 12 -54q7 34 15 66q3 14 6.5 29l7 30t7.5 28.5t7 24.5l119 428h90l119 -428q3 -11 6.5 -24.5 t7.5 -28t7.5 -29.5t6.5 -29q8 -33 15 -67q1 0 4.5 17t9.5 42.5t13 55t15 54.5l121 437h97zM632 757v-10h-51l-107 68h-1l-113 -68h-51v10l114 117h100z" />
<glyph unicode="&#x175;" horiz-adv-x="722" d="M573 0h-102l-84 341q-4 13 -8 32.5t-8 38.5q-5 21 -10 44q-4 -22 -9 -43q-4 -19 -8.5 -39t-8.5 -35l-87 -339h-102l-147 528h86l90 -359q3 -11 6.5 -27.5t6.5 -31.5q4 -18 8 -37l8 36q4 15 8 30.5t7 26.5l95 362h95l92 -362q3 -13 7 -29t8 -31q4 -16 7 -33l8 36 q4 15 7.5 31.5t6.5 28.5l94 359h86zM521 596v-10h-52l-107 83h-1l-113 -83h-51v10l115 132h99z" />
<glyph unicode="&#x176;" horiz-adv-x="667" d="M379 285v-285h-92v285l-265 403h103l209 -328l208 328h103zM493 757v-10h-52l-107 68h-1l-113 -68h-51v10l115 117h99z" />
<glyph unicode="&#x177;" horiz-adv-x="500" d="M295 0q-19 -48 -38 -86.5t-43 -65.5t-53.5 -41.5t-67.5 -14.5q-16 0 -30.5 1t-29.5 5v66q9 -2 20.5 -2.5t20.5 -0.5q38 0 71.5 28.5t58.5 91.5l8 21l-210 526h94l112 -292q4 -13 12 -35t15.5 -44t13 -39.5t6.5 -21.5q2 5 7.5 21t12.5 35.5t14.5 39.5t12.5 35l103 301h93z M412 596v-10h-51l-107 83h-1l-113 -83h-51v10l114 132h100z" />
<glyph unicode="&#x178;" horiz-adv-x="667" d="M379 285v-285h-92v285l-265 403h103l209 -328l208 328h103zM390 747v90h80v-90h-80zM198 747v90h80v-90h-80z" />
<glyph unicode="&#x179;" horiz-adv-x="611" d="M580 0h-548v70l419 542h-384v76h490v-68l-419 -544h442v-76zM238 747v10l106 110h101v-14l-151 -106h-56z" />
<glyph unicode="&#x17a;" horiz-adv-x="500" d="M24 0v67l323 393h-304v68h403v-67l-323 -393h341v-68h-440zM186 586v10l106 140h101v-14l-161 -136h-46z" />
<glyph unicode="&#x17b;" horiz-adv-x="611" d="M580 0h-548v70l419 542h-384v76h490v-68l-419 -544h442v-76zM262 784v84h88v-84h-88z" />
<glyph unicode="&#x17c;" horiz-adv-x="500" d="M24 0v67l323 393h-304v68h403v-67l-323 -393h341v-68h-440zM200 641v84h88v-84h-88z" />
<glyph unicode="&#x17f;" horiz-adv-x="222" d="M155 0h-88v588q0 29 5.5 53.5t20 43t39.5 29t64 10.5q16 0 33 -1.5t29 -4.5v-67q-8 1 -19 2.5t-20 1.5q-19 0 -31.5 -5.5t-19.5 -15.5t-10 -24.5t-3 -33.5v-576z" />
<glyph unicode="&#x192;" d="M455 641q-8 2 -23 4.5t-31 2.5q-15 0 -26 -4.5t-19 -14.5t-14 -25.5t-10 -37.5l-13 -67h103l-12 -64h-104l-124 -647h-88l124 647h-74l13 64h73l15 74q5 29 15 54t27.5 43.5t44 29t65.5 10.5q16 0 36 -2.5t37 -7.5z" />
<glyph unicode="&#x1fa;" horiz-adv-x="667" d="M452 680q0 -22 -9 -41.5t-26 -34.5q-7 -7 -16 -12l264 -592h-95l-79 181h-313l-79 -181h-97l268 590q-11 6 -20 14q-16 15 -25 34.5t-9 41.5t9 41t25.5 33.5t38 23t45.5 8.5t45.5 -8.5t38 -23t25.5 -33.5t9 -41zM375 451q-8 17 -15 35t-12.5 33t-9 25t-4.5 12 q-1 -2 -4 -12t-9 -25.5t-13 -33t-14 -35.5l-88 -203h257zM399 680q0 12 -5 22.5t-13.5 18.5t-20.5 13t-26 5t-26 -5t-21 -13t-14 -18.5t-5 -22.5q0 -13 5 -23.5t14 -19.5t21 -13q10 -4 22 -5h4q14 0 26 4.5t20.5 13.5t13.5 19.5t5 23.5zM279 809v8l106 88h101v-11l-152 -85 h-55z" />
<glyph unicode="&#x1fb;" d="M202 -10q-79 0 -119.5 42t-40.5 115q0 53 20 86.5t52 52.5t73 26t84 8l118 2v29q0 33 -7 56t-21 37t-35 20.5t-50 6.5q-26 0 -46.5 -3.5t-35.5 -13t-24 -26t-12 -41.5l-92 9q5 31 18.5 57t38.5 45t63 29.5t92 10.5q99 0 149.5 -45.5t50.5 -132.5v-227q0 -39 10.5 -59 t38.5 -20q8 0 15 1t14 3v-55q-16 -4 -32.5 -6t-35.5 -2q-25 0 -42.5 6.5t-29 20t-17 33.5t-7.5 46h-3q-14 -25 -31 -45.5t-39.5 -35t-51 -22.5t-65.5 -8zM222 56q42 0 73.5 15.5t52.5 39.5t31 52t10 54v44l-96 -2q-32 -1 -61 -5t-51 -16t-35 -34t-13 -58q0 -43 23 -66.5 t66 -23.5zM396 605q0 -24 -9.5 -45.5t-25.5 -37.5t-37.5 -25.5t-45.5 -9.5q-25 0 -46.5 9.5t-37.5 25.5t-25 37.5t-9 45.5q0 25 9 46.5t25 37.5t37.5 25t46.5 9q24 0 45.5 -9t37.5 -25t25.5 -37.5t9.5 -46.5zM343 605q0 14 -5 26t-14 21t-20.5 14t-25.5 5t-26 -5t-21 -14 t-14 -21t-5 -26t5 -26t14 -21t21 -14t26 -5t25.5 5t20.5 14t14 21t5 26zM208 755v10l106 140h102v-14l-162 -136h-46z" />
<glyph unicode="&#x1fc;" horiz-adv-x="1000" d="M473 0v201h-267l-97 -201h-97l335 688h590v-76h-371v-221h342v-75h-342v-240h391v-76h-484zM473 616h-74q0 -1 -4 -9.5t-9.5 -21t-12 -26.5t-12.5 -26.5t-10 -22t-5 -11.5l-106 -225h233v342zM521 747v10l106 110h102v-14l-152 -106h-56z" />
<glyph unicode="&#x1fd;" horiz-adv-x="889" d="M473 246v-9q0 -40 8.5 -73t25.5 -57t43.5 -37.5t64.5 -13.5q57 0 91.5 23t46.5 58l78 -22q-9 -22 -24 -44t-39.5 -40t-62 -29.5t-90.5 -11.5q-157 0 -206 126q-14 -25 -32.5 -48t-43 -40t-58 -27.5t-79.5 -10.5q-81 0 -122.5 42t-41.5 115q0 35 9.5 61.5t25.5 45.5 t38.5 31.5t48.5 20t54.5 11t58.5 3.5l117 2v29q0 33 -6.5 56t-20.5 37t-35.5 20.5t-50.5 6.5q-27 0 -48.5 -3.5t-37 -13t-25 -26t-13.5 -41.5l-91 9q5 31 19 57t39.5 45t64.5 29.5t93 10.5q63 0 105 -17t66 -51q31 36 74 52t95 16q66 0 111 -21.5t72 -59.5t38.5 -89 t11.5 -111v-11h-372zM384 261l-95 -2q-20 -1 -40 -2.5t-38.5 -5.5t-34.5 -12t-28 -20t-18.5 -30t-6.5 -43q0 -42 24 -66t70 -24q44 0 75.5 15.5t51.5 39.5t30 52t10 54v44zM754 313q-7 83 -42.5 121.5t-101.5 38.5q-22 0 -45 -7t-43 -25t-33 -49t-15 -79h280zM371 586v10 l106 140h101v-14l-161 -136h-46z" />
<glyph unicode="&#x1fe;" horiz-adv-x="778" d="M730 347q0 -80 -23 -146t-67 -113t-107.5 -72.5t-144.5 -25.5q-62 0 -112 14.5t-90 40.5l-59 -71h-92l97 118q-43 47 -64 112t-21 143q0 81 22.5 146t66 110.5t107.5 70t146 24.5q61 0 111.5 -13.5t90.5 -39.5l59 71h94l-98 -118q41 -46 62.5 -109.5t21.5 -141.5z M635 347q0 55 -12 100t-36 80l-346 -417q29 -21 65.5 -32.5t81.5 -11.5q65 0 111.5 21t76.5 58.5t44.5 89t14.5 112.5zM142 347q0 -55 12.5 -101.5t36.5 -82.5l346 416q-29 21 -66 32t-82 11q-61 0 -107.5 -19.5t-77.5 -55.5t-46.5 -87t-15.5 -113zM322 747v10l106 110h101 v-14l-152 -106h-55z" />
<glyph unicode="&#x1ff;" horiz-adv-x="611" d="M543 265q0 -139 -61 -207t-177 -68q-48 0 -86 12t-67 36l-49 -57h-82l90 105q-20 33 -30 77.5t-10 101.5q0 273 237 273q50 0 88 -11t66 -33l44 51h82l-85 -98q21 -34 30.5 -79t9.5 -103zM451 265q0 33 -3 59.5t-9 48.5l-235 -275q18 -24 43.5 -33.5t56.5 -9.5 q33 0 60.5 9.5t46.5 33.5t29.5 64.5t10.5 102.5zM163 265q0 -64 12 -105l235 274q-18 22 -43.5 30.5t-57.5 8.5q-34 0 -61 -10t-46 -34t-29 -64t-10 -100zM247 586v10l106 140h101v-14l-161 -136h-46z" />
<glyph unicode="&#x292;" horiz-adv-x="527" d="M256 376q23 8 52 8q32 0 58 -13t45 -36t29 -51.5t10 -60.5q0 -36 -15 -76.5t-41.5 -75.5t-62 -57t-76.5 -22q-82 0 -127.5 36t-45.5 94q0 23 14 40t34 17t34.5 -17t14.5 -40q0 -21 -14.5 -36t-35.5 -15q12 -28 40 -41.5t85 -13.5q30 0 57 18.5t46.5 47.5t30 63t10.5 63 q0 54 -26 99t-72 45q-28 0 -55.5 -3.5t-47.5 -12.5q11 14 33.5 42.5t61 77.5t67 83t34.5 38q-62 0 -107.5 -8t-80 -22.5t-61.5 -33.5t-66 -50q13 24 26.5 56t24 63.5t16 50.5t8.5 27q8 -30 46.5 -43t95.5 -13q28 0 58.5 2.5t55.5 6t39 6.5t19 4z" />
<glyph unicode="&#x2c6;" horiz-adv-x="333" d="M323 596v-10h-51l-107 83h-1l-113 -83h-51v10l114 132h100z" />
<glyph unicode="&#x2c7;" horiz-adv-x="333" d="M214 586h-100l-114 132v10h51l113 -82h1l107 82h51v-10z" />
<glyph unicode="&#x2c9;" horiz-adv-x="333" d="M293 604h-268v62h268v-62z" />
<glyph unicode="&#x2d8;" horiz-adv-x="333" d="M145 586q-36 0 -64.5 12.5t-49 33.5t-32.5 48.5t-16 56.5h57q4 -21 13.5 -35.5t23 -23t31 -12t38.5 -3.5t38 3.5t31 12.5t23 23.5t13 34.5h57q-4 -29 -16.5 -56.5t-32.5 -48.5t-48.5 -33.5t-65.5 -12.5z" />
<glyph unicode="&#x2d9;" horiz-adv-x="333" d="M76 641v84h88v-84h-88z" />
<glyph unicode="&#x2da;" horiz-adv-x="333" d="M261 688q0 -24 -9 -45.5t-25.5 -37.5t-38 -25.5t-45.5 -9.5t-45.5 9.5t-38 25.5t-25.5 37.5t-9 45.5q0 25 9 46.5t25.5 37.5t38 25t45.5 9t45.5 -9t38 -25t25.5 -37.5t9 -46.5zM208 688q0 14 -5 26t-13.5 21t-20.5 14t-26 5t-26 -5t-21 -14t-14 -21t-5 -26t5 -26t14 -21 t21 -14t26 -5t26 5t20.5 14t13.5 21t5 26z" />
<glyph unicode="&#x2db;" horiz-adv-x="333" d="M210 -195q-14 -6 -31 -9.5t-37 -3.5q-51 0 -77 24.5t-26 66.5q0 23 8.5 42t20 34t24.5 25.5t23 15.5h65q-13 -7 -25.5 -18t-23 -25.5t-17 -31.5t-6.5 -36q0 -20 12 -32t34 -12q14 0 28 3.5t28 8.5v-52z" />
<glyph unicode="&#x2dc;" horiz-adv-x="333" d="M240 586q-20 0 -40.5 9t-39.5 20t-36.5 20.5t-32.5 9.5q-27 0 -40 -15.5t-18 -43.5h-44q2 22 7 45.5t16 42.5t29 31t47 12q21 0 41.5 -9t39.5 -20t36 -20t32 -9q26 0 39.5 15.5t17.5 42.5h45q-3 -21 -7.5 -44.5t-15 -42.5t-28.5 -31.5t-48 -12.5z" />
<glyph unicode="&#x2dd;" horiz-adv-x="333" d="M11 586v10l106 140h101v-14l-161 -136h-46zM180 586v10l106 140h101v-14l-161 -136h-46z" />
<glyph unicode="&#x37e;" horiz-adv-x="278" d="M188 101v-76q0 -26 -2 -47t-7 -39.5t-12 -34.5t-17 -32h-60q22 32 34 64t12 64h-43v101h95zM93 427v101h95v-101h-95z" />
<glyph unicode="&#x384;" horiz-adv-x="333" d="M100 595v16l34 142h101v-18l-98 -140h-37z" />
<glyph unicode="&#x385;" horiz-adv-x="333" d="M122 586v16l34 180h91v-18l-88 -178h-37zM14 601v84h73v-84h-73zM245 601v84h73v-84h-73z" />
<glyph unicode="&#x386;" horiz-adv-x="667" d="M570 0l-79 201h-313l-79 -201h-97l281 688h106l276 -688h-95zM375 501q-8 20 -15 40t-12.5 36t-9 27t-4.5 14q-1 -3 -4 -14t-9 -27.5t-13 -36.5l-14 -40l-88 -226h257zM28 531v16l34 142h101v-18l-98 -140h-37z" />
<glyph unicode="&#x387;" horiz-adv-x="278" d="M91 218v107h96v-107h-96z" />
<glyph unicode="&#x388;" horiz-adv-x="784" d="M199 0v688h522v-76h-429v-221h400v-75h-400v-240h449v-76h-542zM-5 531v16l34 142h101v-18l-98 -140h-37z" />
<glyph unicode="&#x389;" horiz-adv-x="838" d="M663 0v319h-372v-319h-93v688h93v-291h372v291h93v-688h-93zM-6 531v16l33 142h101v-18l-98 -140h-36z" />
<glyph unicode="&#x38a;" horiz-adv-x="384" d="M198 0v688h94v-688h-94zM-11 531v16l33 142h102v-18l-99 -140h-36z" />
<glyph unicode="&#x38c;" horiz-adv-x="774" d="M729 347q0 -80 -23.5 -146t-67.5 -113t-107.5 -72.5t-143.5 -25.5q-85 0 -149 26.5t-106.5 74.5t-64 113.5t-21.5 142.5q0 81 22.5 146t66 110.5t107 70t146.5 24.5q82 0 145.5 -25t107 -70.5t66 -110.5t22.5 -145zM633 347q0 62 -15.5 113t-46.5 87t-77 55.5t-106 19.5 q-62 0 -108.5 -19.5t-77.5 -55.5t-46 -87t-15 -113t15.5 -113.5t46.5 -89t77.5 -58t106.5 -20.5q64 0 110.5 21t76.5 58.5t44.5 89t14.5 112.5zM-33 531v16l33 142h102v-18l-99 -140h-36z" />
<glyph unicode="&#x38e;" horiz-adv-x="855" d="M568 285v-285h-93v285l-265 403h103l209 -328l209 328h102zM32 531v16l34 142h101v-18l-98 -140h-37z" />
<glyph unicode="&#x38f;" horiz-adv-x="752" d="M378 698q74 0 133 -21t100 -60.5t63 -96.5t22 -129q0 -52 -14.5 -98.5t-41 -87t-65 -74.5t-86.5 -60q20 1 39 2q16 1 33.5 2t28.5 1h119v-76h-287v109q47 25 81 56t55.5 66t32 73.5t10.5 80.5q0 56 -15 100.5t-43.5 74.5t-69.5 46t-94 16t-94.5 -16t-70 -46t-43.5 -74.5 t-15 -100.5q0 -42 10.5 -80.5t32 -73.5t55.5 -66t81 -56v-109h-288v76h120q11 0 28 -1l34 -2q19 -1 39 -2q-48 26 -86.5 60t-65 74.5t-41 87t-14.5 98.5q0 72 22 129t63 96.5t100 60.5t132 21zM-33 531v16l33 142h102v-18l-99 -140h-36z" />
<glyph unicode="&#x390;" horiz-adv-x="222" d="M97 0q-7 8 -13 21t-9.5 28.5t-5.5 32.5t-2 33v413h88v-417q0 -16 2.5 -31.5t7.5 -30t12.5 -27.5t16.5 -22h-97zM69 586v16l34 180h91v-18l-88 -178h-37zM-39 601v84h74v-84h-74zM192 601v84h73v-84h-73z" />
<glyph unicode="&#x391;" horiz-adv-x="667" d="M570 0l-79 201h-313l-79 -201h-97l281 688h106l276 -688h-95zM375 501q-8 20 -15 40t-12.5 36t-9 27t-4.5 14q-1 -3 -4 -14t-9 -27.5t-13 -36.5l-14 -40l-88 -226h257z" />
<glyph unicode="&#x392;" horiz-adv-x="667" d="M614 194q0 -52 -20.5 -89t-55 -60.5t-80.5 -34t-97 -10.5h-279v688h250q57 0 102 -9.5t76.5 -30t47.5 -52t16 -75.5q0 -29 -8 -54.5t-24.5 -46t-41 -35.5t-57.5 -22q42 -5 74 -19t53.5 -36t32.5 -51t11 -63zM480 510q0 55 -38 79t-110 24h-157v-217h157q41 0 69.5 8 t46 22.5t25 35.5t7.5 48zM520 201q0 33 -12 56t-34.5 37.5t-54 21.5t-70.5 7h-174v-248h181q36 0 66 5.5t52 20.5t34 39.5t12 60.5z" />
<glyph unicode="&#x393;" horiz-adv-x="551" d="M523 688v-76h-348v-612h-93v688h441z" />
<glyph unicode="&#x395;" horiz-adv-x="667" d="M82 0v688h522v-76h-429v-221h400v-75h-400v-240h449v-76h-542z" />
<glyph unicode="&#x396;" horiz-adv-x="611" d="M580 0h-548v70l419 542h-384v76h490v-68l-419 -544h442v-76z" />
<glyph unicode="&#x397;" horiz-adv-x="722" d="M547 0v319h-372v-319h-93v688h93v-291h372v291h94v-688h-94z" />
<glyph unicode="&#x398;" horiz-adv-x="778" d="M730 347q0 -80 -23 -146t-67 -113t-107.5 -72.5t-144.5 -25.5q-85 0 -149 26.5t-106.5 74.5t-64 113.5t-21.5 142.5q0 81 22.5 146t66 110.5t107.5 70t146 24.5t146 -25t107 -70.5t65.5 -110.5t22.5 -145zM635 347q0 62 -16 113t-47 87t-77 55.5t-106 19.5 q-61 0 -107.5 -19.5t-77.5 -55.5t-46.5 -87t-15.5 -113t16 -113.5t47 -89t77 -58t106 -20.5q65 0 111.5 21t76.5 58.5t44.5 89t14.5 112.5zM245 388h287v-78h-287v78z" />
<glyph unicode="&#x399;" horiz-adv-x="278" d="M92 0v688h94v-688h-94z" />
<glyph unicode="&#x39a;" horiz-adv-x="667" d="M540 0l-275 332l-90 -68v-264h-93v688h93v-345l332 345h110l-293 -299l332 -389h-116z" />
<glyph unicode="&#x39b;" horiz-adv-x="668" d="M663 0h-98l-190 485q-8 23 -15 44.5t-13 38.5q-7 20 -13 38q-6 -19 -13 -39q-6 -17 -13 -38.5t-15 -43.5l-190 -485h-98l281 688h96z" />
<glyph unicode="&#x39c;" horiz-adv-x="833" d="M667 0v459q0 25 0.5 51t1.5 47q1 25 2 48q-6 -24 -14 -49q-6 -21 -13.5 -44.5t-15.5 -42.5l-177 -469h-66l-180 469q-3 7 -6 17t-7 21t-7.5 22.5t-6.5 22.5q-9 26 -16 53q0 -27 1 -54q1 -23 1.5 -48t0.5 -44v-459h-83v688h123l183 -477q3 -10 8 -25.5t9.5 -31.5t8 -30.5 t4.5 -21.5q2 7 6 22t9 31t10 31t9 25l179 477h120v-688h-84z" />
<glyph unicode="&#x39d;" horiz-adv-x="722" d="M528 0l-368 586q1 -24 3 -47q1 -20 1.5 -42.5t0.5 -39.5v-457h-83v688h108l372 -590l-2 48q-1 21 -2 45t-1 46v451h84v-688h-113z" />
<glyph unicode="&#x39e;" horiz-adv-x="650" d="M61 688h528v-76h-528v76zM606 76v-76h-562v76h562zM530 391v-75h-410v75h410z" />
<glyph unicode="&#x39f;" horiz-adv-x="778" d="M730 347q0 -80 -23 -146t-67 -113t-107.5 -72.5t-144.5 -25.5q-85 0 -149 26.5t-106.5 74.5t-64 113.5t-21.5 142.5q0 81 22.5 146t66 110.5t107.5 70t146 24.5t146 -25t107 -70.5t65.5 -110.5t22.5 -145zM635 347q0 62 -16 113t-47 87t-77 55.5t-106 19.5 q-61 0 -107.5 -19.5t-77.5 -55.5t-46.5 -87t-15.5 -113t16 -113.5t47 -89t77 -58t106 -20.5q65 0 111.5 21t76.5 58.5t44.5 89t14.5 112.5z" />
<glyph unicode="&#x3a0;" horiz-adv-x="722" d="M547 0v609h-372v-609h-93v688h559v-688h-94z" />
<glyph unicode="&#x3a1;" horiz-adv-x="667" d="M614 481q0 -45 -15 -84t-44.5 -67.5t-73.5 -45t-104 -16.5h-202v-268h-93v688h290q61 0 106 -15t75.5 -42t45.5 -65.5t15 -84.5zM521 480q0 65 -40.5 99t-120.5 34h-185v-271h189q81 0 119 35.5t38 102.5z" />
<glyph unicode="&#x3a3;" horiz-adv-x="618" d="M53 0v79l262 283l-254 247v79h488v-76h-383l224 -217v-61l-240 -258h429v-76h-526z" />
<glyph unicode="&#x3a4;" horiz-adv-x="611" d="M352 612v-612h-93v612h-237v76h566v-76h-236z" />
<glyph unicode="&#x3a5;" horiz-adv-x="667" d="M379 285v-285h-92v285l-265 403h103l209 -328l208 328h103z" />
<glyph unicode="&#x3a6;" horiz-adv-x="798" d="M741 359q0 -51 -15.5 -97t-47.5 -81t-80 -55.5t-113 -20.5h-41v-110h-90v110h-41q-64 0 -112.5 20.5t-80.5 55.5t-47.5 81t-15.5 97q0 56 16.5 101t49 77t81.5 49.5t115 17.5h35v89h90v-89h35q66 0 115.5 -17.5t81.5 -49.5t48.5 -77t16.5 -101zM647 357q0 92 -45 136 t-134 44h-24v-365h28q45 0 78 13t54.5 37t32 58t10.5 77zM151 357q0 -43 10.5 -77t32 -58t55 -37t78.5 -13h27v365h-25q-89 0 -133.5 -44t-44.5 -136z" />
<glyph unicode="&#x3a7;" horiz-adv-x="667" d="M543 0l-207 301l-211 -301h-103l262 357l-242 331h104l191 -270l186 270h103l-235 -327l255 -361h-103z" />
<glyph unicode="&#x3a8;" horiz-adv-x="835" d="M373 0v208h-41q-65 0 -114 21t-81.5 55.5t-49 80.5t-16.5 97v226h93v-228q0 -39 11.5 -72.5t34 -58t56.5 -38.5t79 -14h28v411h90v-411h27q47 0 81 14t56 38.5t33 58t11 72.5v228h94v-226q0 -51 -17 -97t-49.5 -80.5t-81.5 -55.5t-114 -21h-40v-208h-90z" />
<glyph unicode="&#x3a9;" horiz-adv-x="748" d="M374 698q73 0 132 -21t100 -60.5t63 -96.5t22 -129q0 -52 -14.5 -98.5t-41 -87t-65 -74.5t-86.5 -60q20 1 39 2l34 2t28 1h120v-76h-288v109q47 25 81 56t55.5 66t32 73.5t10.5 80.5q0 56 -15 100.5t-43.5 74.5t-69.5 46t-94 16t-94.5 -16t-70 -46t-43.5 -74.5 t-15 -100.5q0 -42 10.5 -80.5t32 -73.5t55.5 -66t81 -56v-109h-288v76h120q11 0 28.5 -1t33.5 -2q19 -1 39 -2q-48 26 -86.5 60t-65 74.5t-41 87t-14.5 98.5q0 72 22 129t63 96.5t100 60.5t133 21z" />
<glyph unicode="&#x3aa;" horiz-adv-x="278" d="M92 0v688h94v-688h-94zM196 747v90h80v-90h-80zM4 747v90h80v-90h-80z" />
<glyph unicode="&#x3ab;" horiz-adv-x="667" d="M379 285v-285h-92l1 285l-266 403h100l212 -328l211 328h100zM392 747v90h79v-90h-79zM199 747v90h81v-90h-81z" />
<glyph unicode="&#x3ac;" horiz-adv-x="578" d="M412 116q-13 -28 -29 -51t-37 -39.5t-48 -26t-62 -9.5q-100 0 -147 67.5t-47 204.5q0 138 53 207t155 69q34 0 61 -9.5t48 -26.5t36.5 -39.5t25.5 -48.5h1q2 10 5.5 23.5t8 29t10 31.5t12.5 30h91q-10 -23 -21.5 -54t-21 -65t-17 -68t-9.5 -62q1 -50 7 -93t13.5 -78 t16 -62t17.5 -46h-89q-6 14 -11 30t-9 32t-7 30t-4 24h-2zM134 265q0 -55 7 -94t21.5 -64t37 -37t54.5 -12q27 0 51.5 12.5t44.5 39t34.5 65.5t21.5 92q-6 42 -17 79.5t-28 65.5t-42 44.5t-59 16.5q-32 0 -55.5 -11t-39.5 -36t-23.5 -65t-7.5 -96zM241 595v16l34 142h101 v-18l-98 -140h-37z" />
<glyph unicode="&#x3ad;" horiz-adv-x="446" d="M223 56q26 0 49.5 7.5t42.5 19t34.5 25.5t25.5 26l52 -49q-16 -19 -36.5 -36t-46.5 -30t-57.5 -21t-69.5 -8q-47 0 -81.5 11.5t-57 32t-33.5 48.5t-11 62q0 28 10.5 51.5t28 40t41 27t49.5 12.5v1q-25 3 -45.5 13t-35.5 25.5t-23.5 36.5t-8.5 46q0 30 12.5 56t35.5 45 t56 29.5t76 10.5q58 0 104.5 -21t79.5 -69l-63 -43q-23 34 -53.5 51t-67.5 17q-44 0 -67.5 -21t-23.5 -57q0 -28 13.5 -45t37 -26t55.5 -12t69 -3v-66q-35 0 -69 -2.5t-60.5 -12.5t-43 -29.5t-16.5 -52.5q0 -22 7.5 -39t20 -28.5t30.5 -17t40 -5.5zM199 595v16l33 142h101 v-18l-98 -140h-36z" />
<glyph unicode="&#x3ae;" d="M403 -207v542q0 39 -5.5 64.5t-18.5 41.5t-33.5 22.5t-51.5 6.5t-56.5 -11t-43 -31.5t-27.5 -51t-10 -70.5v-306h-88v416q0 33 -5 62.5t-12 49.5h83q4 -10 7.5 -21.5t6 -23.5t3.5 -23.5t1 -21.5h2q12 23 27.5 41.5t35.5 31.5t46 20t60 7q44 0 75.5 -10.5t52 -33t30 -58 t9.5 -84.5v-559h-88zM253 595v16l34 142h101v-18l-98 -140h-37z" />
<glyph unicode="&#x3af;" horiz-adv-x="222" d="M97 0q-7 8 -13 21t-9.5 28.5t-5.5 32.5t-2 33v413h88v-417q0 -16 2.5 -31.5t7.5 -30t12.5 -27.5t16.5 -22h-97zM78 595v16l33 142h101v-18l-98 -140h-36z" />
<glyph unicode="&#x3b0;" horiz-adv-x="547" d="M499 279q0 -67 -13 -120.5t-40.5 -91t-70.5 -57.5t-103 -20q-53 0 -92 12.5t-64.5 38.5t-38 66.5t-12.5 97.5v323h88v-326q0 -72 28.5 -108t94.5 -36q36 0 61 12.5t41 38.5t23.5 67.5t7.5 100.5q0 33 -5 69t-13 70t-18 63t-20 49h92q9 -19 18.5 -46.5t17.5 -60.5 t13 -69.5t5 -72.5zM230 586v16l34 180h91v-18l-88 -178h-37zM123 601v84h73v-84h-73zM353 601v84h73v-84h-73z" />
<glyph unicode="&#x3b1;" horiz-adv-x="578" d="M412 116q-13 -28 -29 -51t-37 -39.5t-48 -26t-62 -9.5q-100 0 -147 67.5t-47 204.5q0 138 53 207t155 69q34 0 61 -9.5t48 -26.5t36.5 -39.5t25.5 -48.5h1q2 10 5.5 23.5t8 29t10 31.5t12.5 30h91q-10 -23 -21.5 -54t-21 -65t-17 -68t-9.5 -62q1 -50 7 -93t13.5 -78 t16 -62t17.5 -46h-89q-6 14 -11 30t-9 32t-7 30t-4 24h-2zM134 265q0 -55 7 -94t21.5 -64t37 -37t54.5 -12q27 0 51.5 12.5t44.5 39t34.5 65.5t21.5 92q-6 42 -17 79.5t-28 65.5t-42 44.5t-59 16.5q-32 0 -55.5 -11t-39.5 -36t-23.5 -65t-7.5 -96z" />
<glyph unicode="&#x3b2;" horiz-adv-x="575" d="M536 198q0 -44 -13 -81.5t-40 -66t-69.5 -44.5t-101.5 -16q-49 0 -88 13.5t-67 32.5h-3q2 -28 2.5 -50.5t0.5 -48.5v-145h-88v709q0 116 56 170t166 54q48 0 85.5 -11.5t62 -33.5t37.5 -54t13 -72q0 -35 -8.5 -62.5t-23.5 -47.5t-34.5 -33.5t-42.5 -22.5q28 -5 56 -18.5 t50 -36t36 -56t14 -79.5zM157 100q14 -9 31.5 -17.5t37 -14.5t41 -9.5t42.5 -3.5q35 0 61.5 10t44.5 28.5t27.5 44.5t9.5 58t-9.5 59t-29 46.5t-51 30.5t-74.5 11v70q62 13 89.5 47t27.5 93q0 22 -6.5 40.5t-20.5 32.5t-35.5 22t-50.5 8q-34 0 -59.5 -8.5t-42 -27.5 t-25 -48.5t-8.5 -72.5v-399z" />
<glyph unicode="&#x3b3;" horiz-adv-x="500" d="M3 528h94l120 -329q3 -11 8 -26.5t10 -31.5t9.5 -31.5t5.5 -26.5q3 10 7.5 25.5t9.5 31.5t10.5 31.5t9.5 26.5l116 330h94l-191 -502q-8 -22 -15.5 -49t-14 -57.5t-12.5 -62.5t-9 -64h-93q8 64 19.5 116t23.5 96z" />
<glyph unicode="&#x3b4;" horiz-adv-x="557" d="M422 230q0 41 -12 76.5t-29 63.5t-35.5 49t-31.5 35q-35 -13 -68 -33t-57.5 -47.5t-39.5 -63.5t-15 -80q0 -37 8.5 -69t26.5 -55.5t45 -37t65 -13.5q39 0 66.5 13.5t44.5 36.5t24.5 55t7.5 70zM296 660q-6 0 -16 0.5t-21 1.5t-21 1.5t-17 0.5l154 -158q27 -27 52 -55.5 t44 -61t31 -71.5t12 -86q0 -54 -15.5 -98.5t-45.5 -76.5t-74 -49.5t-100 -17.5t-100 16.5t-74.5 47.5t-46.5 76t-16 101q0 55 18 98t49 75.5t72 56.5t88 40l-156 166v58h358v-65h-175z" />
<glyph unicode="&#x3b5;" horiz-adv-x="446" d="M223 56q26 0 49.5 7.5t42.5 19t34.5 25.5t25.5 26l52 -49q-16 -19 -36.5 -36t-46.5 -30t-57.5 -21t-69.5 -8q-47 0 -81.5 11.5t-57 32t-33.5 48.5t-11 62q0 28 10.5 51.5t28 40t41 27t49.5 12.5v1q-25 3 -45.5 13t-35.5 25.5t-23.5 36.5t-8.5 46q0 30 12.5 56t35.5 45 t56 29.5t76 10.5q58 0 104.5 -21t79.5 -69l-63 -43q-23 34 -53.5 51t-67.5 17q-44 0 -67.5 -21t-23.5 -57q0 -28 13.5 -45t37 -26t55.5 -12t69 -3v-66q-35 0 -69 -2.5t-60.5 -12.5t-43 -29.5t-16.5 -52.5q0 -22 7.5 -39t20 -28.5t30.5 -17t40 -5.5z" />
<glyph unicode="&#x3b6;" horiz-adv-x="441" d="M135 185q0 -31 10.5 -50.5t28.5 -31.5t42.5 -19.5t52.5 -14.5q26 -7 53.5 -15.5t49.5 -22.5t36 -35.5t14 -54.5q0 -17 -4.5 -33.5t-11 -31.5t-13.5 -27.5t-12 -20.5l-61 27q4 6 8.5 14t8.5 17.5t7 19t3 18.5q0 16 -9 27t-25 19.5t-39 14.5t-51 12l-42 10.5t-42 14.5 t-38 21t-31 30t-20.5 42.5t-7.5 57.5q0 40 12 83t32.5 86t48.5 86t59 83.5t64 78t64 71.5v2q-6 -1 -14.5 -1t-17 -0.5t-17 -0.5h-13.5h-169v64h314v-62q-30 -35 -62 -73t-62.5 -78.5t-56.5 -82.5t-46 -84t-31.5 -82.5t-11.5 -77.5z" />
<glyph unicode="&#x3b7;" d="M403 -207v542q0 39 -5.5 64.5t-18.5 41.5t-33.5 22.5t-51.5 6.5t-56.5 -11t-43 -31.5t-27.5 -51t-10 -70.5v-306h-88v416q0 33 -5 62.5t-12 49.5h83q4 -10 7.5 -21.5t6 -23.5t3.5 -23.5t1 -21.5h2q12 23 27.5 41.5t35.5 31.5t46 20t60 7q44 0 75.5 -10.5t52 -33t30 -58 t9.5 -84.5v-559h-88z" />
<glyph unicode="&#x3b8;" d="M504 358q0 -186 -58.5 -277t-169.5 -91q-53 0 -94.5 22.5t-70.5 68t-44 114.5t-15 163q0 182 57 274t170 92q59 0 101.5 -22.5t70 -68.5t40.5 -114.5t13 -160.5zM275 55q30 0 54.5 13t42.5 44t28 84t12 133h-267q1 -80 11.5 -132.5t28 -84t40.5 -44.5t50 -13zM280 661 q-30 0 -54 -12.5t-41.5 -43t-28 -82.5t-11.5 -130h267q-2 78 -11.5 130t-26.5 82.5t-40.5 43t-53.5 12.5z" />
<glyph unicode="&#x3b9;" horiz-adv-x="222" d="M97 0q-7 8 -13 21t-9.5 28.5t-5.5 32.5t-2 33v413h88v-417q0 -16 2.5 -31.5t7.5 -30t12.5 -27.5t16.5 -22h-97z" />
<glyph unicode="&#x3ba;" horiz-adv-x="500" d="M398 0l-178 241l-65 -53v-188h-88v528h88v-256l232 256h103l-214 -227l225 -301h-103z" />
<glyph unicode="&#x3bb;" horiz-adv-x="500" d="M226 471l-18 49q-13 35 -23 60.5t-21 42t-25 24t-34 7.5q-5 0 -13 -1.5t-10 -3.5l-18 64q13 4 30.5 8t32.5 4q27 0 48.5 -9t39 -29t34 -51.5t34.5 -78.5l208 -557h-93l-101 282q-4 10 -8 24t-8.5 28.5t-8.5 28t-6 23.5q-4 -10 -9.5 -24.5t-11.5 -30t-11.5 -28.5t-9.5 -22 l-126 -281h-91z" />
<glyph unicode="&#x3bc;" horiz-adv-x="576" d="M421 0q-1 3 -1.5 14t-1.5 25.5t-1.5 29t-0.5 24.5h-2q-13 -25 -26.5 -44.5t-30.5 -32.5t-38 -19.5t-48 -6.5q-41 0 -70 15.5t-45 44.5h-2q2 -16 2 -31.5v-28.5v-182h-89v720h89v-314q0 -34 6 -62t20.5 -49t38.5 -32.5t60 -11.5q33 0 57.5 12.5t41 35t24.5 53t8 67.5v301 h88v-414v-35.5t0.5 -35t1 -28.5t1.5 -15h-82z" />
<glyph unicode="&#x3bd;" horiz-adv-x="500" d="M462 413q0 -48 -15.5 -101.5t-41.5 -107.5t-60 -106t-72 -98h-83l-190 528h92l152 -453q69 91 99.5 174.5t30.5 159.5q0 39 -7 68t-17 51h87q11 -22 18 -49.5t7 -65.5z" />
<glyph unicode="&#x3be;" horiz-adv-x="448" d="M42 173q0 37 12.5 73t39.5 66t69.5 52t103.5 32v0q-33 3 -62 12.5t-50 26t-33.5 40t-12.5 53.5q0 32 12 54.5t31.5 38t43 25.5t46.5 15v4q-6 -1 -22.5 -1.5t-36 -1t-38 -1t-27.5 -0.5h-36v64h310v-61q-38 -5 -73 -13t-62.5 -22.5t-44 -36.5t-16.5 -55q0 -31 14.5 -50.5 t38.5 -31.5t56 -18t66 -9v-64q-49 -6 -92 -19t-75 -35t-50.5 -53t-18.5 -72q0 -31 10.5 -50.5t28.5 -31.5t42.5 -19.5t52.5 -14.5q26 -7 54 -15.5t51 -22.5t38 -35.5t15 -54.5q0 -17 -4.5 -33.5t-11 -31.5t-13.5 -27.5t-12 -20.5l-61 27q4 6 8.5 14t8.5 17.5t7 19t3 18.5 q0 16 -9.5 27t-27 19.5t-41 14.5t-51.5 12l-42 10.5t-42 14.5t-38 21t-31 30t-20.5 42.5t-7.5 57.5z" />
<glyph unicode="&#x3bf;" d="M514 265q0 -139 -61 -207t-177 -68q-55 0 -98.5 16.5t-73.5 51t-46 86t-16 121.5q0 273 237 273q61 0 106 -17t73.5 -51t42 -85.5t13.5 -119.5zM422 265q0 61 -9.5 101t-28 64t-45 33.5t-59.5 9.5t-60.5 -10t-46.5 -34t-29 -64t-10 -100q0 -62 11 -102t29.5 -64t44.5 -34 t56 -10q34 0 61 9.5t46 33.5t29.5 64.5t10.5 102.5z" />
<glyph unicode="&#x3c0;" horiz-adv-x="690" d="M550 -10q-29 0 -49 7t-32.5 21.5t-18.5 37.5t-6 55v353h-196v-35q0 -64 -4 -125t-10.5 -117t-15.5 -103.5t-18 -83.5h-92q9 37 18.5 85t17.5 103.5t13 115.5t5 121v39q-19 0 -38.5 -1.5t-36.5 -4t-30 -5.5t-18 -7v68q5 3 15.5 5.5t23 4.5t26 3t24.5 1h518v-64h-114v-334 q0 -22 3 -35.5t9 -21.5t14.5 -11t19.5 -3q3 0 8.5 0.5t11.5 1l12 1t10 1.5v-63q-16 -4 -32.5 -7t-37.5 -3z" />
<glyph unicode="&#x3c1;" horiz-adv-x="569" d="M529 252q0 -58 -15.5 -106t-43.5 -82.5t-67.5 -54t-87.5 -19.5q-30 0 -54 5t-43.5 14t-35.5 22t-30 29h-2q1 -15 1.5 -29.5t0.5 -30.5v-208h-88v492q0 58 15 105t43 80t69.5 51.5t95.5 18.5q50 0 94 -19.5t77 -56t52 -90t19 -121.5zM435 256q0 51 -11 91.5t-31 68.5 t-48.5 43t-63.5 15q-34 0 -58.5 -13t-40 -38t-23 -60.5t-7.5 -80.5v-155q14 -17 31.5 -30.5t37 -22.5t41 -14t42.5 -5q33 0 57.5 14t40.5 40.5t24.5 63.5t8.5 83z" />
<glyph unicode="&#x3c2;" horiz-adv-x="482" d="M284 469q-26 0 -47.5 -12t-38 -31.5t-28.5 -45t-19.5 -51.5t-11.5 -52t-4 -47q0 -33 8 -56.5t26.5 -41t49 -31.5t74.5 -28q26 -9 54 -18t51 -23t38 -36t15 -55q0 -17 -4.5 -33.5t-10.5 -31.5t-13 -27.5t-12 -20.5l-62 27q5 6 9.5 14t8.5 17.5t6.5 19t2.5 18.5 q0 14 -8.5 25t-25 20t-40.5 16.5t-54 15.5q-33 9 -60.5 18.5t-50.5 22t-40.5 29t-29.5 39.5t-18.5 52.5t-6.5 69.5q0 23 5 54.5t16 66t29.5 67.5t45.5 59.5t63 42.5t83 16q33 0 57.5 -5t42 -13.5t31 -19t23.5 -21.5l-56 -59q-9 10 -19 18.5t-22 15.5t-26 11t-31 4z" />
<glyph unicode="&#x3c3;" horiz-adv-x="617" d="M523 240q0 -55 -14.5 -101t-44.5 -79t-75 -51.5t-105 -18.5t-105.5 18t-75.5 52t-45.5 83.5t-15.5 112.5q0 70 21 121.5t58.5 85t89.5 49.5t113 16h278v-64h-81q-4 0 -12.5 0.5t-19 1l-21 1t-19.5 0.5v-2q14 -20 27.5 -44.5t24 -52.5t16.5 -60t6 -68zM431 238 q0 36 -5 68.5t-13 61t-19 52.5t-23 44h-44q-40 0 -75 -12t-61 -37.5t-41 -64.5t-15 -93q0 -101 36.5 -151.5t108.5 -50.5q38 0 66.5 13t47.5 36.5t28 57.5t9 76z" />
<glyph unicode="&#x3c4;" horiz-adv-x="395" d="M137 464q-19 0 -38 -1.5t-36 -4t-30 -5.5t-19 -7v68q6 3 16.5 5.5t23 4.5t25.5 3t25 1h283v-64h-149v-334q0 -22 3.5 -35.5t9 -21.5t14 -11t19.5 -3q4 0 9.5 0.5t11.5 1t11.5 1t9.5 1.5v-63q-15 -4 -32 -7t-38 -3q-28 0 -48.5 7t-33 21.5t-18.5 37.5t-6 55v353h-13z" />
<glyph unicode="&#x3c5;" horiz-adv-x="547" d="M499 279q0 -67 -13 -120.5t-40.5 -91t-70.5 -57.5t-103 -20q-53 0 -92 12.5t-64.5 38.5t-38 66.5t-12.5 97.5v323h88v-326q0 -72 28.5 -108t94.5 -36q36 0 61 12.5t41 38.5t23.5 67.5t7.5 100.5q0 33 -5 69t-13 70t-18 63t-20 49h92q9 -19 18.5 -46.5t17.5 -60.5 t13 -69.5t5 -72.5z" />
<glyph unicode="&#x3c6;" horiz-adv-x="648" d="M606 276q0 -74 -18 -126.5t-50 -86.5t-77 -51.5t-99 -20.5v-199h-83v199q-55 3 -99.5 20.5t-75 51t-46.5 84t-16 119.5q0 50 11.5 96t37 82.5t64 61.5t92.5 34l10 -66q-34 -8 -57.5 -26.5t-38 -46.5t-21 -63t-6.5 -74q0 -104 36 -153t109 -53v283q0 95 37.5 146.5 t115.5 51.5q41 0 73.5 -18.5t55 -53t34 -83t11.5 -108.5zM514 277q0 94 -21 145.5t-60 51.5q-34 0 -52.5 -31.5t-18.5 -99.5v-285q79 4 115.5 57t36.5 162z" />
<glyph unicode="&#x3c7;" horiz-adv-x="525" d="M265 117l-163 -324h-92l215 403l-83 167q-13 27 -24 47t-20.5 33.5t-20 20t-22.5 6.5q-5 0 -13 -1.5t-11 -3.5l-17 64q12 5 27 7.5t31 2.5q23 0 40 -6.5t32 -21.5t29 -40t32 -62l69 -144l129 263h92l-180 -340l198 -395h-93z" />
<glyph unicode="&#x3c8;" horiz-adv-x="713" d="M397 58q43 1 73 8.5t50 25t29 47t9 74.5v315h88v-314q0 -60 -14 -102t-44.5 -68.5t-77.5 -39.5t-113 -14v-198h-83v198q-65 1 -112 14t-77 39.5t-44.5 68.5t-14.5 102v314h88v-315q0 -44 9.5 -73.5t28.5 -47.5t49.5 -25.5t72.5 -8.5v596h83v-596z" />
<glyph unicode="&#x3c9;" horiz-adv-x="781" d="M431 219q0 -76 28 -118.5t78 -42.5q31 0 52.5 13.5t34.5 38.5t18 60.5t5 79.5q0 40 -7 76.5t-21.5 66t-38.5 50t-57 28.5l12 68q53 -9 92 -36.5t64 -67t37 -86.5t12 -97q0 -62 -13 -111t-37.5 -82.5t-61 -51t-82.5 -17.5q-33 0 -58.5 9t-44.5 25.5t-31.5 40.5t-20.5 56 h-2q-8 -32 -20.5 -56t-31.5 -40.5t-44.5 -25.5t-58.5 -9q-46 0 -82 17.5t-61 51t-37.5 82.5t-12.5 111q0 50 11.5 97t37 86.5t64 67t92.5 36.5l11 -68q-33 -8 -56.5 -28.5t-39 -50t-22 -66t-6.5 -76.5q0 -44 5.5 -79.5t18 -60.5t33.5 -38.5t53 -13.5q25 0 45 11t33.5 31.5 t21 50.5t7.5 68v123h81v-123z" />
<glyph unicode="&#x3ca;" horiz-adv-x="222" d="M97 0q-7 8 -13 21t-9.5 28.5t-5.5 32.5t-2 33v413h88v-417q0 -16 2.5 -31.5t7.5 -30t12.5 -27.5t16.5 -22h-97zM168 595v90h80v-90h-80zM-24 595v90h80v-90h-80z" />
<glyph unicode="&#x3cb;" horiz-adv-x="547" d="M499 279q0 -67 -13 -120.5t-40.5 -91t-70.5 -57.5t-103 -20q-53 0 -92 12.5t-64.5 38.5t-38 66.5t-12.5 97.5v323h88v-326q0 -72 28.5 -108t94.5 -36q36 0 61 12.5t41 38.5t23.5 67.5t7.5 100.5q0 33 -5 69t-13 70t-18 63t-20 49h92q9 -19 18.5 -46.5t17.5 -60.5 t13 -69.5t5 -72.5zM333 595v90h79v-90h-79zM140 595v90h81v-90h-81z" />
<glyph unicode="&#x3cc;" d="M514 265q0 -139 -61 -207t-177 -68q-55 0 -98.5 16.5t-73.5 51t-46 86t-16 121.5q0 273 237 273q61 0 106 -17t73.5 -51t42 -85.5t13.5 -119.5zM422 265q0 61 -9.5 101t-28 64t-45 33.5t-59.5 9.5t-60.5 -10t-46.5 -34t-29 -64t-10 -100q0 -62 11 -102t29.5 -64t44.5 -34 t56 -10q34 0 61 9.5t46 33.5t29.5 64.5t10.5 102.5zM245 595v16l34 142h101v-18l-98 -140h-37z" />
<glyph unicode="&#x3cd;" horiz-adv-x="547" d="M499 279q0 -67 -13 -120.5t-40.5 -91t-70.5 -57.5t-103 -20q-53 0 -92 12.5t-64.5 38.5t-38 66.5t-12.5 97.5v323h88v-326q0 -72 28.5 -108t94.5 -36q36 0 61 12.5t41 38.5t23.5 67.5t7.5 100.5q0 33 -5 69t-13 70t-18 63t-20 49h92q9 -19 18.5 -46.5t17.5 -60.5 t13 -69.5t5 -72.5zM223 595v16l34 142h101v-18l-98 -140h-37z" />
<glyph unicode="&#x3ce;" horiz-adv-x="781" d="M431 219q0 -76 28 -118.5t78 -42.5q31 0 52.5 13.5t34.5 38.5t18 60.5t5 79.5q0 40 -7 76.5t-21.5 66t-38.5 50t-57 28.5l12 68q53 -9 92 -36.5t64 -67t37 -86.5t12 -97q0 -62 -13 -111t-37.5 -82.5t-61 -51t-82.5 -17.5q-33 0 -58.5 9t-44.5 25.5t-31.5 40.5t-20.5 56 h-2q-8 -32 -20.5 -56t-31.5 -40.5t-44.5 -25.5t-58.5 -9q-46 0 -82 17.5t-61 51t-37.5 82.5t-12.5 111q0 50 11.5 97t37 86.5t64 67t92.5 36.5l11 -68q-33 -8 -56.5 -28.5t-39 -50t-22 -66t-6.5 -76.5q0 -44 5.5 -79.5t18 -60.5t33.5 -38.5t53 -13.5q25 0 45 11t33.5 31.5 t21 50.5t7.5 68v123h81v-123zM350 595v16l33 142h101v-18l-98 -140h-36z" />
<glyph unicode="&#x401;" horiz-adv-x="667" d="M82 0v688h522v-76h-429v-221h400v-75h-400v-240h449v-76h-542zM398 747v90h80v-90h-80zM206 747v90h81v-90h-81z" />
<glyph unicode="&#x402;" horiz-adv-x="865" d="M352 612v-172q16 3 42.5 8t57.5 9.5t62.5 8t57.5 3.5q111 0 164 -46t53 -137v-105q0 -45 -10 -80.5t-31 -60t-53.5 -37.5t-77.5 -13q-26 0 -47.5 4.5t-40 12t-34 19t-29.5 24.5l54 60q9 -7 19 -15.5t21.5 -14.5t25.5 -10.5t30 -4.5q41 0 60.5 25t19.5 79v107 q0 58 -31.5 88t-102.5 30q-24 0 -54 -2.5t-59.5 -6.5t-55 -8t-41.5 -8v-369h-93v612h-237v76h566v-76h-236z" />
<glyph unicode="&#x403;" horiz-adv-x="542" d="M523 688v-76h-348v-612h-93v688h441zM215 747v10l106 110h101v-14l-151 -106h-56z" />
<glyph unicode="&#x404;" horiz-adv-x="719" d="M387 622q-54 0 -96.5 -16.5t-73 -47.5t-48 -74.5t-22.5 -96.5h319v-75h-319q4 -55 23 -100t50 -77.5t74 -50t97 -17.5q44 0 78 12t60.5 32t46 46t32.5 52l76 -37q-19 -39 -45.5 -72t-62.5 -57.5t-83 -38.5t-107 -14q-83 0 -146 26.5t-105 74.5t-63 113.5t-21 142.5 q0 81 22 146t65 110.5t105.5 70t142.5 24.5q110 0 183.5 -43t108.5 -127l-89 -29q-9 24 -26 46t-41.5 39.5t-58 27.5t-76.5 10z" />
<glyph unicode="&#x405;" horiz-adv-x="667" d="M621 190q0 -44 -17 -80.5t-52 -63t-88.5 -41.5t-126.5 -15q-129 0 -200.5 45t-91.5 130l91 18q7 -27 21 -49t38 -37.5t60 -24.5t85 -9q42 0 76.5 7t59.5 21.5t39 38t14 55.5q0 34 -15.5 55t-43.5 34.5t-66.5 23t-85.5 19.5q-28 7 -57.5 14.5t-56 18t-50 24.5t-40.5 34 t-26.5 46t-9.5 60q0 49 19.5 84t54.5 57.5t83 32.5t104 10q64 0 109.5 -10t76.5 -30t50 -49.5t30 -68.5l-92 -16q-7 25 -20 44.5t-34 32.5t-51 20t-70 7q-48 0 -80.5 -8.5t-52 -23t-28.5 -34.5t-9 -43q0 -31 15.5 -50.5t42 -33t61 -22t73.5 -17.5q32 -7 63.5 -14.5t60.5 -18 t54 -25t43.5 -35t29 -48t10.5 -65.5z" />
<glyph unicode="&#x406;" horiz-adv-x="278" d="M92 0v688h94v-688h-94z" />
<glyph unicode="&#x407;" horiz-adv-x="278" d="M92 0v688h94v-688h-94zM196 747v90h80v-90h-80zM4 747v90h80v-90h-80z" />
<glyph unicode="&#x408;" horiz-adv-x="500" d="M223 -10q-83 0 -136.5 43.5t-70.5 137.5l91 15q5 -32 16 -54.5t27 -37t35 -21.5t39 -7q50 0 79.5 35t29.5 102v409h-132v76h225v-483q0 -49 -14 -88.5t-40 -67.5t-63.5 -43.5t-85.5 -15.5z" />
<glyph unicode="&#x409;" horiz-adv-x="1057" d="M1005 202q0 -43 -14.5 -79.5t-44 -64t-74 -43t-103.5 -15.5h-286v610h-203l-24 -180q-11 -84 -21.5 -149t-22.5 -113.5t-26.5 -82t-33.5 -54.5t-44 -30t-57 -9q-12 0 -23.5 1.5t-18.5 3.5v74q5 -2 13.5 -2.5t13.5 -0.5q15 0 27.5 5.5t23.5 20.5t21.5 41.5t20 67.5t19 99 t19.5 137l33 249h376v-291h187q61 0 106.5 -14t75.5 -40t45 -61.5t15 -79.5zM912 201q0 59 -40 90.5t-121 31.5h-175v-249h179q80 0 118.5 33t38.5 94z" />
<glyph unicode="&#x40a;" horiz-adv-x="1010" d="M958 202q0 -43 -14.5 -79.5t-44 -64t-74 -43t-103.5 -15.5h-266v319h-281v-319h-93v688h93v-291h281v291h93v-291h167q61 0 106.5 -14t75.5 -40t45 -61.5t15 -79.5zM865 201q0 59 -40 90.5t-120 31.5h-156v-249h159q81 0 119 33t38 94z" />
<glyph unicode="&#x40b;" horiz-adv-x="854" d="M680 0v281q0 59 -31 86t-96 27q-26 0 -54.5 -2.5t-55 -6.5t-50.5 -8t-41 -8v-369h-93v612h-237v76h588v-76h-258v-172q17 4 41 9t51.5 9t56 7.5t56.5 3.5q111 0 163.5 -46t52.5 -132v-291h-93z" />
<glyph unicode="&#x40c;" horiz-adv-x="583" d="M82 688h93v-302q28 0 48 5.5t38.5 22.5t40.5 47t54 78l100 149h98l-138 -200q-64 -92 -88 -110l249 -378h-109l-208 333q-9 -3 -20 -6.5t-22.5 -6t-22.5 -4t-20 -1.5v-315h-93v688zM244 747v10l106 110h101v-14l-151 -106h-56z" />
<glyph unicode="&#x40e;" horiz-adv-x="635" d="M358 155q-23 -43 -42.5 -74t-41.5 -51t-48.5 -30t-63.5 -10q-16 0 -32 2.5t-31.5 7t-29.5 11t-26 13.5l40 71q17 -11 37.5 -20t43.5 -9q18 0 32 5t27 18t27 35t33 55l24 43l-280 466h106l220 -383l187 383h100zM337 747q-54 0 -88.5 14t-54.5 36t-27.5 50t-8.5 56h80 q3 -50 28.5 -73.5t70.5 -23.5t70.5 23.5t28.5 73.5h80q-1 -28 -8.5 -56t-27.5 -50t-54.5 -36t-88.5 -14z" />
<glyph unicode="&#x40f;" horiz-adv-x="719" d="M315 -199v199h-233v688h93v-610h371v610h91v-688h-234v-199h-88z" />
<glyph unicode="&#x410;" horiz-adv-x="667" d="M570 0l-79 201h-313l-79 -201h-97l281 688h106l276 -688h-95zM375 501q-8 20 -15 40t-12.5 36t-9 27t-4.5 14q-1 -3 -4 -14t-9 -27.5t-13 -36.5l-14 -40l-88 -226h257z" />
<glyph unicode="&#x411;" horiz-adv-x="656" d="M604 202q0 -43 -14.5 -79.5t-44 -64t-74 -43t-103.5 -15.5h-286v688h452v-76h-359v-215h187q61 0 106.5 -14t75.5 -40t45 -61.5t15 -79.5zM511 201q0 59 -40 90.5t-120 31.5h-176v-249h179q81 0 119 33t38 94z" />
<glyph unicode="&#x412;" horiz-adv-x="667" d="M614 194q0 -52 -20.5 -89t-55 -60.5t-80.5 -34t-97 -10.5h-279v688h250q57 0 102 -9.5t76.5 -30t47.5 -52t16 -75.5q0 -29 -8 -54.5t-24.5 -46t-41 -35.5t-57.5 -22q42 -5 74 -19t53.5 -36t32.5 -51t11 -63zM480 510q0 55 -38 79t-110 24h-157v-217h157q41 0 69.5 8 t46 22.5t25 35.5t7.5 48zM520 201q0 33 -12 56t-34.5 37.5t-54 21.5t-70.5 7h-174v-248h181q36 0 66 5.5t52 20.5t34 39.5t12 60.5z" />
<glyph unicode="&#x413;" horiz-adv-x="542" d="M523 688v-76h-348v-612h-93v688h441z" />
<glyph unicode="&#x414;" horiz-adv-x="677" d="M573 78h86v-277h-88v199h-476v-199h-88v277h71q20 25 36 58.5t29.5 78t24 100t19.5 124.5l33 249h353v-610zM482 78v532h-183l-24 -180q-8 -65 -18 -119t-21 -97.5t-24.5 -77t-28.5 -58.5h299z" />
<glyph unicode="&#x415;" horiz-adv-x="667" d="M82 0v688h522v-76h-429v-221h400v-75h-400v-240h449v-76h-542z" />
<glyph unicode="&#x416;" horiz-adv-x="923" d="M415 315q-8 0 -19 1.5t-23 4t-23 6t-19 6.5l-209 -333h-108l248 378q-23 18 -87 110l-138 200h97l100 -149q33 -48 55 -78t40.5 -47t38 -22.5t47.5 -5.5v302h93v-302q28 0 48 5.5t38.5 22.5t40.5 47t54 78l100 149h98l-138 -200q-64 -92 -88 -110l249 -378h-109l-208 333 q-9 -3 -20 -6.5t-22.5 -6t-22.5 -4t-20 -1.5v-315h-93v315z" />
<glyph unicode="&#x417;" horiz-adv-x="604" d="M303 -10q-57 0 -100 12.5t-75 34.5t-55 53.5t-40 69.5l80 38q12 -27 28 -51t38.5 -42.5t52 -29t68.5 -10.5q37 0 67 9t50.5 26t31.5 41.5t11 55.5q0 65 -46.5 93.5t-145.5 28.5h-35v73h35q88 0 130.5 29t42.5 89q0 27 -9.5 48t-27 35t-43 21.5t-57.5 7.5q-37 0 -65 -9.5 t-48.5 -26.5t-34 -39t-22.5 -46l-87 30q16 40 39.5 71t55.5 52.5t73 32.5t93 11t94 -13t71.5 -36.5t45 -56.5t15.5 -74q0 -33 -9.5 -59t-27.5 -45.5t-43.5 -33t-56.5 -21.5q33 -5 61.5 -17t50 -32t34 -48t12.5 -64q0 -46 -17 -84t-49 -65.5t-79 -43t-107 -15.5z" />
<glyph unicode="&#x418;" horiz-adv-x="719" d="M82 0v688h84v-451q0 -25 -0.5 -49t-1.5 -43q-1 -22 -2 -42l366 585h109v-688h-83v457v41t1 40q1 22 2 43l-363 -581h-112z" />
<glyph unicode="&#x419;" horiz-adv-x="719" d="M82 0v688h84v-451q0 -25 -0.5 -49t-1.5 -43q-1 -22 -2 -42l366 585h109v-688h-83v457v41t1 40q1 22 2 43l-363 -581h-112zM362 747q-54 0 -88.5 14t-54 36t-27.5 50t-9 56h80q3 -50 28.5 -73.5t70.5 -23.5q46 0 71 23.5t28 73.5h81q-1 -28 -9 -56t-28 -50t-54 -36 t-89 -14z" />
<glyph unicode="&#x41a;" horiz-adv-x="583" d="M82 688h93v-302q28 0 48 5.5t38.5 22.5t40.5 47t54 78l100 149h98l-138 -200q-64 -92 -88 -110l249 -378h-109l-208 333q-9 -3 -20 -6.5t-22.5 -6t-22.5 -4t-20 -1.5v-315h-93v688z" />
<glyph unicode="&#x41b;" horiz-adv-x="656" d="M484 610h-204l-24 -180q-11 -84 -21.5 -149t-22.5 -113.5t-26.5 -82t-33.5 -54.5t-44 -30t-57 -9q-12 0 -23.5 1.5t-18.5 3.5v74q5 -2 13.5 -2.5t13.5 -0.5q15 0 27.5 5.5t23.5 20.5t21.5 41.5t20 67.5t19 99t19.5 137l33 249h375v-688h-91v610z" />
<glyph unicode="&#x41c;" horiz-adv-x="833" d="M667 0v459q0 25 0.5 51t1.5 47q1 25 2 48q-6 -24 -14 -49q-6 -21 -13.5 -44.5t-15.5 -42.5l-177 -469h-66l-180 469q-3 7 -6 17t-7 21t-7.5 22.5t-6.5 22.5q-9 26 -16 53q0 -27 1 -54q1 -23 1.5 -48t0.5 -44v-459h-83v688h123l183 -477q3 -10 8 -25.5t9.5 -31.5t8 -30.5 t4.5 -21.5q2 7 6 22t9 31t10 31t9 25l179 477h120v-688h-84z" />
<glyph unicode="&#x41d;" horiz-adv-x="722" d="M547 0v319h-372v-319h-93v688h93v-291h372v291h94v-688h-94z" />
<glyph unicode="&#x41e;" horiz-adv-x="778" d="M730 347q0 -80 -23 -146t-67 -113t-107.5 -72.5t-144.5 -25.5q-85 0 -149 26.5t-106.5 74.5t-64 113.5t-21.5 142.5q0 81 22.5 146t66 110.5t107.5 70t146 24.5t146 -25t107 -70.5t65.5 -110.5t22.5 -145zM635 347q0 62 -16 113t-47 87t-77 55.5t-106 19.5 q-61 0 -107.5 -19.5t-77.5 -55.5t-46.5 -87t-15.5 -113t16 -113.5t47 -89t77 -58t106 -20.5q65 0 111.5 21t76.5 58.5t44.5 89t14.5 112.5z" />
<glyph unicode="&#x41f;" horiz-adv-x="719" d="M547 0v609h-372v-609h-93v688h558v-688h-93z" />
<glyph unicode="&#x420;" horiz-adv-x="667" d="M614 481q0 -45 -15 -84t-44.5 -67.5t-73.5 -45t-104 -16.5h-202v-268h-93v688h290q61 0 106 -15t75.5 -42t45.5 -65.5t15 -84.5zM521 480q0 65 -40.5 99t-120.5 34h-185v-271h189q81 0 119 35.5t38 102.5z" />
<glyph unicode="&#x421;" horiz-adv-x="722" d="M387 622q-59 0 -104 -19.5t-75.5 -55.5t-46 -87t-15.5 -113t16.5 -113.5t48 -88.5t77 -57.5t103.5 -20.5q40 0 73 10.5t59.5 29.5t47.5 45t37 58l76 -38q-18 -39 -45.5 -72t-64.5 -57.5t-83.5 -38.5t-104.5 -14q-83 0 -146 26.5t-105 74.5t-63 113.5t-21 142.5 q0 81 22 146t65 110.5t105.5 70t142.5 24.5q110 0 183.5 -43t108.5 -127l-89 -29q-9 24 -26 46t-41.5 39.5t-58 27.5t-76.5 10z" />
<glyph unicode="&#x422;" horiz-adv-x="611" d="M352 612v-612h-93v612h-237v76h566v-76h-236z" />
<glyph unicode="&#x423;" horiz-adv-x="635" d="M358 155q-23 -43 -42.5 -74t-41.5 -51t-48.5 -30t-63.5 -10q-16 0 -32 2.5t-31.5 7t-29.5 11t-26 13.5l40 71q17 -11 37.5 -20t43.5 -9q18 0 32 5t27 18t27 35t33 55l24 43l-280 466h106l220 -383l187 383h100z" />
<glyph unicode="&#x424;" horiz-adv-x="760" d="M703 359q0 -51 -16 -97t-48 -81t-80 -55.5t-113 -20.5h-19v-110h-94v110h-19q-65 0 -113 20.5t-80 55.5t-47.5 81t-15.5 97q0 56 16 101t48.5 77t81.5 49.5t115 17.5h14v89h94v-89h13q66 0 115.5 -17.5t82 -49.5t49 -77t16.5 -101zM609 357q0 92 -45 136t-135 44h-2v-365 h6q45 0 78 13t55 37t32.5 58t10.5 77zM151 357q0 -43 10.5 -77t32.5 -58t55 -37t78 -13h6v365h-4q-89 0 -133.5 -44t-44.5 -136z" />
<glyph unicode="&#x425;" horiz-adv-x="667" d="M543 0l-207 301l-211 -301h-103l262 357l-242 331h104l191 -270l186 270h103l-235 -327l255 -361h-103z" />
<glyph unicode="&#x426;" horiz-adv-x="740" d="M721 78v-277h-88v199h-551v688h93v-610h370v610h91v-610h85z" />
<glyph unicode="&#x427;" horiz-adv-x="667" d="M492 248q-17 -4 -40 -9t-49.5 -9t-54.5 -7t-55 -3q-56 0 -96.5 11.5t-66.5 34t-39 55.5t-13 77v290h93v-280q0 -60 31.5 -86.5t97.5 -26.5q26 0 52.5 2.5t52 6t48 7.5t39.5 8v369h93v-688h-93v248z" />
<glyph unicode="&#x428;" horiz-adv-x="917" d="M82 0v688h93v-610h239v610h91v-610h239v610h90v-688h-752z" />
<glyph unicode="&#x429;" horiz-adv-x="937" d="M898 78v-277h-88v199h-728v688h93v-610h228v610h91v-610h228v610h90v-610h86z" />
<glyph unicode="&#x42a;" horiz-adv-x="792" d="M340 397h157q61 0 106.5 -14t75.5 -40t45.5 -61.5t15.5 -79.5q0 -43 -15 -79.5t-44.5 -64t-74 -43t-103.5 -15.5h-256v612h-225v76h318v-291zM646 201q0 59 -40 90.5t-120 31.5h-146v-249h150q80 0 118 33t38 94z" />
<glyph unicode="&#x42b;" horiz-adv-x="885" d="M604 202q0 -43 -14.5 -79.5t-44 -64t-74 -43t-103.5 -15.5h-286v688h93v-291h187q61 0 106.5 -14t75.5 -40t45 -61.5t15 -79.5zM511 201q0 59 -40 90.5t-120 31.5h-176v-249h179q81 0 119 33t38 94zM710 0v688h93v-688h-93z" />
<glyph unicode="&#x42c;" horiz-adv-x="656" d="M604 202q0 -43 -14.5 -79.5t-44 -64t-74 -43t-103.5 -15.5h-286v688h93v-291h187q61 0 106.5 -14t75.5 -40t45 -61.5t15 -79.5zM511 199q0 59 -40 91t-120 32h-176v-248h179q81 0 119 32t38 93z" />
<glyph unicode="&#x42d;" horiz-adv-x="719" d="M348 622q-43 0 -76.5 -10t-58.5 -27.5t-41.5 -39.5t-25.5 -46l-89 29q35 84 108.5 127t183.5 43q80 0 142.5 -24.5t105.5 -70t65 -110.5t22 -146q0 -77 -21 -142.5t-63 -113.5t-104.5 -74.5t-146.5 -26.5q-57 0 -103.5 13.5t-83 37.5t-64 57t-47.5 74l76 38 q14 -27 33.5 -52.5t46 -46t61 -32.5t76.5 -12q53 0 96 17.5t74.5 50t50 77.5t23.5 100h-319v75h319q-5 53 -23 96.5t-48 74.5t-72.5 47.5t-96.5 16.5z" />
<glyph unicode="&#x42e;" horiz-adv-x="1010" d="M962 347q0 -80 -22 -146t-63.5 -113t-101 -72.5t-135.5 -25.5t-134.5 24.5t-98.5 68t-62 104t-26 132.5h-144v-319h-93v688h93v-291h146q6 69 30 125t65 95t97.5 60t127.5 21q78 0 137.5 -25t100.5 -70.5t62 -110.5t21 -145zM867 347q0 62 -14.5 113t-43 87t-71 55.5 t-97.5 19.5q-57 0 -99.5 -19.5t-71 -55.5t-42.5 -87t-14 -113t14.5 -113.5t43 -89t70.5 -58t98 -20.5q59 0 102 21t71 58.5t41 89t13 112.5z" />
<glyph unicode="&#x42f;" horiz-adv-x="722" d="M47 0l195 296q-44 8 -76 27t-52.5 45.5t-30 58t-9.5 64.5q0 46 16 82.5t47 62t76 39t104 13.5h324v-688h-94v286h-214l-179 -286h-107zM168 490q0 -28 9 -51.5t28 -41.5t48 -28t69 -10h225v254h-221q-37 0 -66.5 -7.5t-50 -23t-31 -38.5t-10.5 -54z" />
<glyph unicode="&#x430;" d="M202 -10q-79 0 -119.5 42t-40.5 115q0 53 20 86.5t52 52.5t73 26t84 8l118 2v29q0 33 -7 56t-21 37t-35 20.5t-50 6.5q-26 0 -46.5 -3.5t-35.5 -13t-24 -26t-12 -41.5l-92 9q5 31 18.5 57t38.5 45t63 29.5t92 10.5q99 0 149.5 -45.5t50.5 -132.5v-227q0 -39 10.5 -59 t38.5 -20q8 0 15 1t14 3v-55q-16 -4 -32.5 -6t-35.5 -2q-25 0 -42.5 6.5t-29 20t-17 33.5t-7.5 46h-3q-14 -25 -31 -45.5t-39.5 -35t-51 -22.5t-65.5 -8zM222 56q42 0 73.5 15.5t52.5 39.5t31 52t10 54v44l-96 -2q-32 -1 -61 -5t-51 -16t-35 -34t-13 -58q0 -43 23 -66.5 t66 -23.5z" />
<glyph unicode="&#x431;" horiz-adv-x="573" d="M438 245q0 56 -9.5 93t-27 59t-43 31t-57.5 9q-33 0 -61 -9.5t-48 -32t-30.5 -59t-10.5 -91.5q0 -56 10.5 -92.5t29.5 -58t44.5 -30.5t56.5 -9q33 0 60.5 9t46.5 30.5t29 58t10 92.5zM320 501q108 0 159.5 -63.5t51.5 -191.5q0 -129 -61 -192.5t-178 -63.5 q-55 0 -98.5 17t-73.5 55.5t-45.5 99.5t-15.5 149q0 93 14 161t45 115t81.5 75t122.5 42q28 5 52 9.5t46.5 8t43.5 6t42 5.5v-78q-42 -6 -81.5 -11.5t-83.5 -13.5q-38 -7 -68.5 -15t-53.5 -20t-39 -30t-27 -44.5t-16.5 -63t-6.5 -85.5q9 27 25.5 50.5t40 41t54.5 27.5t70 10 z" />
<glyph unicode="&#x432;" horiz-adv-x="531" d="M275 528q37 0 72.5 -5.5t62.5 -21t44 -40.5t17 -65q0 -26 -8.5 -45.5t-23.5 -34t-35 -23.5t-42 -13v-4q26 -3 49.5 -11.5t40 -23.5t26.5 -37t10 -52q0 -38 -15 -66.5t-41.5 -47.5t-63.5 -28.5t-81 -9.5h-218v528h206zM157 65h115q34 0 57.5 5t37.5 15.5t21 27t7 39.5 q0 24 -7 41t-22.5 28t-40 16t-58.5 5h-110v-177zM157 461v-156h106q33 0 55 4.5t35.5 14t19 24.5t5.5 36q0 40 -24.5 58.5t-83.5 18.5h-113z" />
<glyph unicode="&#x433;" horiz-adv-x="365" d="M335 528v-64h-178v-464h-88v528h266z" />
<glyph unicode="&#x434;" horiz-adv-x="583" d="M407 464h-149q-12 -86 -24 -150t-23.5 -111.5t-23.5 -81t-22 -57.5h242v400zM566 -199h-79v199h-398v-199h-79v263h58q15 24 29 59t28 89t28 130.5t28 185.5h314v-464h71v-263z" />
<glyph unicode="&#x435;" d="M135 246q0 -42 8.5 -77t26 -60t45.5 -39t67 -14q57 0 91.5 23t46.5 58l78 -22q-9 -22 -24 -44t-39.5 -40t-62 -29.5t-90.5 -11.5q-117 0 -178.5 70t-61.5 208q0 74 19 125.5t51 83.5t75 46.5t92 14.5q66 0 111 -21.5t72 -59.5t38.5 -89t11.5 -111v-11h-377zM421 313 q-7 83 -42.5 121.5t-101.5 38.5q-22 0 -46 -7t-44.5 -25t-34.5 -49t-16 -79h285z" />
<glyph unicode="&#x436;" horiz-adv-x="669" d="M291 233q-13 0 -29 3t-25 7l-136 -243h-98l173 289q-9 7 -25 27.5t-38 53.5l-105 158h92l72 -116q23 -38 39 -60.5t28.5 -34.5t24.5 -16t27 -4v231h87v-231q15 0 27 4t24.5 16t28.5 34.5t39 60.5l72 116h92l-105 -158q-22 -33 -38.5 -53.5t-24.5 -27.5l173 -289h-98 l-136 243q-9 -4 -25 -7t-29 -3v-233h-87v233z" />
<glyph unicode="&#x437;" horiz-adv-x="458" d="M224 -10q-82 0 -130 30.5t-70 93.5l78 22q12 -38 42.5 -59t81.5 -21q46 0 74 23t28 67q0 29 -13.5 48t-36 30t-52 15.5t-60.5 4.5v67q31 0 59 3.5t49 12.5t33 25.5t12 42.5q0 36 -24 57t-70 21q-17 0 -34 -3.5t-31.5 -11.5t-25 -21.5t-13.5 -34.5l-79 10q5 33 20.5 57 t39 39.5t54.5 22.5t70 7q41 0 74.5 -10t57.5 -29t37 -44t13 -56q0 -28 -10.5 -49.5t-28 -36.5t-39 -23.5t-43.5 -10.5v-1q27 -3 51.5 -13t43 -26.5t29 -39t10.5 -51.5q0 -33 -12 -62t-36.5 -50.5t-62 -33.5t-86.5 -12z" />
<glyph unicode="&#x438;" horiz-adv-x="559" d="M154 528v-289q0 -11 -0.5 -30t-1.5 -39t-1.5 -38t-1.5 -28l244 424h96v-528h-84v322q0 10 0.5 23.5t1.5 28.5t1.5 29t1.5 23l-247 -426h-94v528h85z" />
<glyph unicode="&#x439;" horiz-adv-x="559" d="M154 528v-289q0 -11 -0.5 -30t-1.5 -39t-1.5 -38t-1.5 -28l244 424h96v-528h-84v322q0 10 0.5 23.5t1.5 28.5t1.5 29t1.5 23l-247 -426h-94v528h85zM280 586q-54 0 -88.5 14t-54 36t-27.5 50t-9 56h80q3 -50 28.5 -73.5t70.5 -23.5q46 0 71 23.5t28 73.5h80 q-1 -28 -8.5 -56t-27.5 -50t-54.5 -36t-88.5 -14z" />
<glyph unicode="&#x43a;" horiz-adv-x="437" d="M67 528h88v-231q15 0 26.5 4t24.5 16t28.5 34.5t39.5 60.5l72 116h92l-105 -158q-22 -33 -38.5 -53.5t-24.5 -27.5l172 -289h-97l-136 243q-9 -4 -25 -7t-29 -3v-233h-88v528z" />
<glyph unicode="&#x43b;" horiz-adv-x="583" d="M426 0v464h-183q-13 -89 -23 -159.5t-21 -123t-23 -89t-29.5 -59t-40.5 -33t-55 -10.5q-14 0 -25.5 2t-20.5 5v63q6 -2 15 -3.5t19 -1.5q17 0 29.5 10.5t22 33.5t17.5 59t16.5 89t17.5 122.5t22 158.5h350v-528h-88z" />
<glyph unicode="&#x43c;" horiz-adv-x="687" d="M384 0h-74l-159 464q1 -12 1.5 -27t1 -29.5t0.5 -28.5v-25v-354h-85v528h137l107 -322q12 -31 21 -68t13 -72q5 35 13.5 72t19.5 68l107 322h132v-528h-85v354q0 10 0.5 25t1 30.5t1 30t1.5 25.5z" />
<glyph unicode="&#x43d;" horiz-adv-x="552" d="M157 528v-223h238v223h88v-528h-88v241h-238v-241h-88v528h88z" />
<glyph unicode="&#x43e;" d="M514 265q0 -139 -61 -207t-177 -68q-55 0 -98.5 16.5t-73.5 51t-46 86t-16 121.5q0 273 237 273q61 0 106 -17t73.5 -51t42 -85.5t13.5 -119.5zM422 265q0 61 -9.5 101t-28 64t-45 33.5t-59.5 9.5t-60.5 -10t-46.5 -34t-29 -64t-10 -100q0 -62 11 -102t29.5 -64t44.5 -34 t56 -10q34 0 61 9.5t46 33.5t29.5 64.5t10.5 102.5z" />
<glyph unicode="&#x43f;" horiz-adv-x="542" d="M472 528v-528h-88v464h-227v-464h-88v528h403z" />
<glyph unicode="&#x440;" d="M514 267q0 -60 -9.5 -111t-32.5 -87.5t-60 -57.5t-92 -21q-57 0 -99.5 21.5t-64.5 70.5h-3q1 -1 1 -9t0.5 -19.5t0.5 -26v-28.5v-207h-88v628v37t-0.5 32t-1 24.5t-1.5 14.5h85q1 -1 1.5 -10t1.5 -21.5t1.5 -26.5t0.5 -27h2q12 26 28 43.5t36 29t44.5 17t55.5 5.5 q55 0 92 -19.5t60 -55t32.5 -85.5t9.5 -111zM422 265q0 48 -6 86.5t-20.5 64.5t-38.5 40t-60 14q-29 0 -55 -8.5t-45 -32t-30.5 -64.5t-11.5 -107q0 -56 9.5 -95t27 -63t44 -34.5t60.5 -10.5q37 0 61 14t38.5 41t20.5 66t6 89z" />
<glyph unicode="&#x441;" horiz-adv-x="500" d="M134 267q0 -46 6.5 -84t22.5 -65.5t41.5 -42.5t63.5 -15q46 0 77.5 25t39.5 78l89 -6q-5 -32 -19.5 -62.5t-39.5 -53.5t-61.5 -37t-83.5 -14q-62 0 -105.5 21t-70.5 58t-39.5 87t-12.5 109q0 53 9 93.5t25 71t37.5 51.5t46.5 33.5t53 18t56 5.5q44 0 79 -12t60 -33.5 t40.5 -50t22.5 -62.5l-91 -6q-6 43 -34 69t-79 26q-38 0 -63 -12.5t-41 -37.5t-22.5 -63t-6.5 -89z" />
<glyph unicode="&#x442;" horiz-adv-x="458" d="M17 528h424v-64h-168v-464h-88v464h-168v64z" />
<glyph unicode="&#x443;" horiz-adv-x="500" d="M295 0q-19 -48 -38 -86.5t-43 -65.5t-53.5 -41.5t-67.5 -14.5q-16 0 -30.5 1t-29.5 5v66q9 -2 20.5 -2.5t20.5 -0.5q38 0 71.5 28.5t58.5 91.5l8 21l-210 526h94l112 -292q4 -13 12 -35t15.5 -44t13 -39.5t6.5 -21.5q2 5 7.5 21t12.5 35.5t14.5 39.5t12.5 35l103 301h93z " />
<glyph unicode="&#x444;" horiz-adv-x="823" d="M780 267q0 -60 -9 -111t-30 -87.5t-55.5 -57.5t-83.5 -21q-51 0 -89.5 21.5t-59.5 70.5h-3q1 -17 2 -36t1 -47v-207h-83v207q0 26 0.5 46t1.5 40h-2q-23 -51 -59.5 -73t-90.5 -22q-91 0 -134.5 67.5t-43.5 204.5q0 138 45 207t133 69q55 0 91.5 -22t58.5 -70h2 q0 5 -0.5 15t-1 21.5t-0.5 21.5v16v205h83v-205q0 -6 -0.5 -16.5t-0.5 -22t-0.5 -22t-0.5 -16.5h3q22 51 57 73t91 22q49 0 83.5 -19.5t55.5 -55t30 -85.5t9 -111zM134 265q0 -55 6.5 -94t20 -64t34.5 -37t50 -12t52 10.5t39 34.5t24.5 62.5t9.5 93.5v12q0 56 -8.5 94.5 t-24 62.5t-38.5 34.5t-53 10.5q-28 0 -49 -11t-35 -36t-21 -65t-7 -96zM688 265q0 48 -5.5 86.5t-18.5 64.5t-34.5 40t-52.5 14q-26 0 -48.5 -8.5t-39.5 -32t-26.5 -64.5t-9.5 -107v-11q0 -53 8.5 -89.5t24.5 -59.5t38.5 -33t51.5 -10q32 0 53.5 14t34.5 41t18.5 66t5.5 89z " />
<glyph unicode="&#x445;" horiz-adv-x="500" d="M391 0l-142 217l-143 -217h-95l188 271l-179 257h97l132 -205l131 205h98l-179 -256l190 -272h-98z" />
<glyph unicode="&#x446;" horiz-adv-x="573" d="M157 528v-464h233v464h88v-464h72v-263h-80v199h-401v528h88z" />
<glyph unicode="&#x447;" horiz-adv-x="521" d="M147 528v-196q0 -17 4 -31t13.5 -25t25.5 -17t39 -6q34 0 66 6.5t68 16.5v252h88v-528h-88v225q-18 -7 -38 -14.5t-41 -13.5t-44 -10t-48 -4q-32 0 -56.5 10t-41.5 28.5t-25.5 45.5t-8.5 61v200h87z" />
<glyph unicode="&#x448;" horiz-adv-x="802" d="M69 0v528h88v-464h200v464h88v-464h200v464h88v-528h-664z" />
<glyph unicode="&#x449;" horiz-adv-x="823" d="M69 0v528h88v-464h198v464h88v-464h197v464h88v-464h72v-263h-80v199h-651z" />
<glyph unicode="&#x44a;" horiz-adv-x="625" d="M381 305q100 0 151.5 -36t51.5 -114q0 -36 -12.5 -64.5t-38 -49t-63.5 -31t-88 -10.5h-200v464h-160v64h248v-223h111zM270 62h99q33 0 56.5 6t38 18t21 29.5t6.5 39.5q0 46 -28.5 67.5t-93.5 21.5h-99v-182z" />
<glyph unicode="&#x44b;" horiz-adv-x="719" d="M269 305q100 0 151 -36t51 -114q0 -36 -12.5 -64.5t-38 -49t-63.5 -31t-88 -10.5h-200v528h88v-223h112zM157 62h99q34 0 57 6t37.5 18t21 29.5t6.5 39.5q0 46 -28.5 67.5t-93.5 21.5h-99v-182zM562 0v528h87v-528h-87z" />
<glyph unicode="&#x44c;" horiz-adv-x="521" d="M277 305q100 0 151.5 -36t51.5 -114q0 -36 -12.5 -64.5t-38 -49t-63.5 -31t-88 -10.5h-209v528h88v-223h120zM157 62h108q33 0 56.5 6t38 18t21 29.5t6.5 39.5q0 46 -28.5 67.5t-93.5 21.5h-108v-182z" />
<glyph unicode="&#x44d;" horiz-adv-x="510" d="M27 154l89 6q8 -53 40 -78.5t81 -25.5q36 0 61 13t41.5 36.5t25 56.5t10.5 73h-201v64h201q-1 44 -9.5 76.5t-25 54t-41.5 32.5t-61 11q-53 0 -82 -26t-36 -70l-90 7q6 33 22 61.5t42 49t61 32t81 11.5q44 0 85.5 -13t74 -44t52.5 -84t20 -132q0 -59 -12.5 -109 t-40.5 -87t-72.5 -58t-107.5 -21q-48 0 -85 13.5t-63 36t-41 52t-19 62.5z" />
<glyph unicode="&#x44e;" horiz-adv-x="750" d="M708 265q0 -139 -57.5 -207t-166.5 -68q-49 0 -88.5 15.5t-67.5 46.5t-44 78t-18 111h-109v-241h-88v528h88v-223h109q16 233 221 233q116 0 168.5 -68.5t52.5 -204.5zM616 265q0 61 -8.5 101t-25 64t-40 33.5t-53.5 9.5q-31 0 -55 -10t-41.5 -34t-26.5 -64t-9 -100 q0 -62 9.5 -102t27 -64t40.5 -34t50 -10q30 0 54.5 9.5t41.5 33.5t26.5 64.5t9.5 102.5z" />
<glyph unicode="&#x44f;" horiz-adv-x="542" d="M261 224l-154 -224h-99l168 230q-64 13 -92.5 53t-28.5 99q0 73 52.5 109.5t153.5 36.5h211v-528h-88v224h-123zM384 466h-114q-63 0 -92.5 -22.5t-29.5 -67.5q0 -46 26 -68.5t87 -22.5h123v181z" />
<glyph unicode="&#x451;" d="M135 246q0 -42 8.5 -77t26 -60t45.5 -39t67 -14q57 0 91.5 23t46.5 58l78 -22q-9 -22 -24 -44t-39.5 -40t-62 -29.5t-90.5 -11.5q-117 0 -178.5 70t-61.5 208q0 74 19 125.5t51 83.5t75 46.5t92 14.5q66 0 111 -21.5t72 -59.5t38.5 -89t11.5 -111v-11h-377zM421 313 q-7 83 -42.5 121.5t-101.5 38.5q-22 0 -46 -7t-44.5 -25t-34.5 -49t-16 -79h285zM335 595v90h80v-90h-80zM143 595v90h81v-90h-81z" />
<glyph unicode="&#x452;" d="M69 0v589h-64v64h64v72h88v-72h147v-64h-147v-72q0 -17 -0.5 -33t-1 -29.5t-1 -23t-1.5 -13.5h2q14 27 31.5 46t38 31t44.5 18t55 6q51 0 83 -14t51 -38.5t26 -58.5t7 -75v-398q0 -31 -5 -56.5t-18 -45t-36 -30.5t-58 -11q-17 0 -32.5 1t-29.5 4v68q6 -1 15 -2t15 -1 q19 0 31 5t18.5 15.5t9 26.5t2.5 39v367q0 34 -4 59.5t-16 42.5t-33.5 25.5t-55.5 8.5q-31 0 -56.5 -11.5t-43 -32t-27.5 -49.5t-10 -66v-292h-88z" />
<glyph unicode="&#x453;" horiz-adv-x="365" d="M335 528v-64h-178v-464h-88v528h266zM141 586v10l106 140h101v-14l-161 -136h-46z" />
<glyph unicode="&#x454;" horiz-adv-x="510" d="M275 -10q-63 0 -107.5 21t-72.5 58t-40.5 87t-12.5 109q0 79 20 132t52.5 84t74 44t85.5 13q46 0 81.5 -11.5t61 -32t41.5 -49t22 -61.5l-90 -7q-7 44 -36 70t-82 26q-36 0 -61 -11t-41.5 -32.5t-24.5 -54t-10 -76.5h201v-64h-202q2 -40 10.5 -73t25.5 -56.5t42 -36.5 t61 -13q49 0 81.5 25t40.5 79l88 -6q-4 -33 -19 -62.5t-41 -52t-62.5 -36t-85.5 -13.5z" />
<glyph unicode="&#x455;" horiz-adv-x="500" d="M464 146q0 -37 -14.5 -66t-42 -49t-67 -30.5t-90.5 -10.5q-46 0 -83 7t-65 23t-46.5 41.5t-27.5 62.5l77 15q12 -42 47 -62t98 -20q28 0 51.5 4t40.5 13.5t26.5 25.5t9.5 39q0 24 -11 39.5t-31 25.5t-48.5 17.5t-62.5 17.5q-32 8 -63.5 18.5t-56.5 27t-40.5 41.5 t-15.5 63q0 72 51.5 110t149.5 38q88 0 139.5 -31t65.5 -99l-80 -10q-4 21 -15.5 35t-28.5 22.5t-37.5 12t-43.5 3.5q-59 0 -87.5 -18t-28.5 -55q0 -21 10.5 -35t29.5 -23.5t45.5 -16.5t57.5 -15q21 -5 43 -11t43 -15t39 -20t32 -27.5t22 -38t8 -49.5z" />
<glyph unicode="&#x456;" horiz-adv-x="222" d="M67 0v528h88v-528h-88zM67 641v84h88v-84h-88z" />
<glyph unicode="&#x457;" horiz-adv-x="278" d="M95 0v528h88v-528h-88zM189 595v90h80v-90h-80zM-3 595v90h80v-90h-80z" />
<glyph unicode="&#x458;" horiz-adv-x="222" d="M67 641v84h88v-84h-88zM155 -65q0 -31 -5 -56.5t-18.5 -45t-36 -30.5t-57.5 -11q-17 0 -33 1t-29 4v68q6 -1 15 -2t15 -1q18 0 30 5t19 15.5t9.5 26.5t2.5 39v580h88v-593z" />
<glyph unicode="&#x459;" horiz-adv-x="906" d="M663 305q100 0 151 -36t51 -114q0 -36 -12.5 -64.5t-38 -49t-63.5 -31t-88 -10.5h-220v464h-200q-13 -89 -23 -159.5t-21 -123t-23 -89t-29.5 -59t-40.5 -33t-55 -10.5q-14 0 -25.5 2t-20.5 5v63q6 -2 15 -3.5t19 -1.5q17 0 29.5 10.5t22 33.5t17.5 59t16.5 89 t17.5 122.5t22 158.5h368v-223h131zM532 62h118q34 0 57 6t37.5 18t21 29.5t6.5 39.5q0 46 -28.5 67.5t-93.5 21.5h-118v-182z" />
<glyph unicode="&#x45a;" horiz-adv-x="812" d="M458 528v-223h111q100 0 151 -36t51 -114q0 -36 -12.5 -64.5t-38 -49t-63 -31t-88.5 -10.5h-200v241h-212v-241h-88v528h88v-223h212v223h89zM458 62h98q34 0 57.5 6t38 18t20.5 29.5t6 39.5q0 46 -28 67.5t-93 21.5h-99v-182z" />
<glyph unicode="&#x45b;" d="M155 418q14 27 31.5 46t38 31t44.5 18t55 6q51 0 83 -14t51 -38.5t26 -58.5t7 -75v-333h-88v315q0 34 -4 59.5t-16 42.5t-33.5 25.5t-55.5 8.5q-31 0 -56.5 -11.5t-43 -32t-27.5 -49.5t-10 -66v-292h-88v589h-64v64h64v72h88v-72h147v-64h-147v-72q0 -17 -0.5 -33 t-1 -29.5t-1 -23t-1.5 -13.5h2z" />
<glyph unicode="&#x45c;" horiz-adv-x="437" d="M67 528h88v-231q15 0 26.5 4t24.5 16t28.5 34.5t39.5 60.5l72 116h92l-105 -158q-22 -33 -38.5 -53.5t-24.5 -27.5l172 -289h-97l-136 243q-9 -4 -25 -7t-29 -3v-233h-88v528zM191 586v10l106 140h101v-14l-161 -136h-46z" />
<glyph unicode="&#x45e;" horiz-adv-x="500" d="M295 0q-19 -48 -38 -86.5t-43 -65.5t-53.5 -41.5t-67.5 -14.5q-16 0 -30.5 1t-29.5 5v66q9 -2 20.5 -2.5t20.5 -0.5q38 0 71.5 28.5t58.5 91.5l8 21l-210 526h94l112 -292q4 -13 12 -35t15.5 -44t13 -39.5t6.5 -21.5q2 5 7.5 21t12.5 35.5t14.5 39.5t12.5 35l103 301h93z M255 586q-54 0 -88.5 14t-54 36t-27.5 50t-9 56h80q3 -50 28.5 -73.5t70.5 -23.5q46 0 71.5 23.5t27.5 73.5h81q-1 -28 -9 -56t-28 -50t-54 -36t-89 -14z" />
<glyph unicode="&#x45f;" horiz-adv-x="552" d="M69 0v528h88v-464h238v464h88v-528h-167v-199h-80v199h-167z" />
<glyph unicode="&#x490;" horiz-adv-x="489" d="M378 688v201h88v-277h-291v-612h-93v688h296z" />
<glyph unicode="&#x491;" horiz-adv-x="411" d="M157 0h-88v528h231v197h80v-261h-223v-464z" />
<glyph unicode="&#x1e80;" horiz-adv-x="944" d="M738 0h-112l-119 437q-5 19 -11 44t-11 48q-6 27 -12 55q-6 -28 -12 -55q-5 -24 -11 -48.5t-12 -43.5l-120 -437h-111l-203 688h98l123 -437q8 -31 16 -61t13 -54q6 -29 12 -54q7 34 15 66q3 14 6.5 29l7 30t7.5 28.5t7 24.5l119 428h90l119 -428q3 -11 6.5 -24.5 t7.5 -28t7.5 -29.5t6.5 -29q8 -33 15 -67q1 0 4.5 17t9.5 42.5t13 55t15 54.5l121 437h97zM485 747l-152 106v14h102l106 -110v-10h-56z" />
<glyph unicode="&#x1e81;" horiz-adv-x="722" d="M573 0h-102l-84 341q-4 13 -8 32.5t-8 38.5q-5 21 -10 44q-4 -22 -9 -43q-4 -19 -8.5 -39t-8.5 -35l-87 -339h-102l-147 528h86l90 -359q3 -11 6.5 -27.5t6.5 -31.5q4 -18 8 -37l8 36q4 15 8 30.5t7 26.5l95 362h95l92 -362q3 -13 7 -29t8 -31q4 -16 7 -33l8 36 q4 15 7.5 31.5t6.5 28.5l94 359h86zM373 586l-161 136v14h101l106 -140v-10h-46z" />
<glyph unicode="&#x1e82;" horiz-adv-x="944" d="M738 0h-112l-119 437q-5 19 -11 44t-11 48q-6 27 -12 55q-6 -28 -12 -55q-5 -24 -11 -48.5t-12 -43.5l-120 -437h-111l-203 688h98l123 -437q8 -31 16 -61t13 -54q6 -29 12 -54q7 34 15 66q3 14 6.5 29l7 30t7.5 28.5t7 24.5l119 428h90l119 -428q3 -11 6.5 -24.5 t7.5 -28t7.5 -29.5t6.5 -29q8 -33 15 -67q1 0 4.5 17t9.5 42.5t13 55t15 54.5l121 437h97zM406 747v10l106 110h101v-14l-152 -106h-55z" />
<glyph unicode="&#x1e83;" horiz-adv-x="722" d="M573 0h-102l-84 341q-4 13 -8 32.5t-8 38.5q-5 21 -10 44q-4 -22 -9 -43q-4 -19 -8.5 -39t-8.5 -35l-87 -339h-102l-147 528h86l90 -359q3 -11 6.5 -27.5t6.5 -31.5q4 -18 8 -37l8 36q4 15 8 30.5t7 26.5l95 362h95l92 -362q3 -13 7 -29t8 -31q4 -16 7 -33l8 36 q4 15 7.5 31.5t6.5 28.5l94 359h86zM304 586v10l106 140h101v-14l-161 -136h-46z" />
<glyph unicode="&#x1e84;" horiz-adv-x="944" d="M738 0h-112l-119 437q-5 19 -11 44t-11 48q-6 27 -12 55q-6 -28 -12 -55q-5 -24 -11 -48.5t-12 -43.5l-120 -437h-111l-203 688h98l123 -437q8 -31 16 -61t13 -54q6 -29 12 -54q7 34 15 66q3 14 6.5 29l7 30t7.5 28.5t7 24.5l119 428h90l119 -428q3 -11 6.5 -24.5 t7.5 -28t7.5 -29.5t6.5 -29q8 -33 15 -67q1 0 4.5 17t9.5 42.5t13 55t15 54.5l121 437h97zM530 747v90h79v-90h-79zM337 747v90h81v-90h-81z" />
<glyph unicode="&#x1e85;" horiz-adv-x="722" d="M573 0h-102l-84 341q-4 13 -8 32.5t-8 38.5q-5 21 -10 44q-4 -22 -9 -43q-4 -19 -8.5 -39t-8.5 -35l-87 -339h-102l-147 528h86l90 -359q3 -11 6.5 -27.5t6.5 -31.5q4 -18 8 -37l8 36q4 15 8 30.5t7 26.5l95 362h95l92 -362q3 -13 7 -29t8 -31q4 -16 7 -33l8 36 q4 15 7.5 31.5t6.5 28.5l94 359h86zM418 595v90h80v-90h-80zM226 595v90h80v-90h-80z" />
<glyph unicode="&#x1ef2;" horiz-adv-x="667" d="M379 285v-285h-92v285l-265 403h103l209 -328l208 328h103zM345 747l-152 106v14h101l106 -110v-10h-55z" />
<glyph unicode="&#x1ef3;" horiz-adv-x="500" d="M295 0q-19 -48 -38 -86.5t-43 -65.5t-53.5 -41.5t-67.5 -14.5q-16 0 -30.5 1t-29.5 5v66q9 -2 20.5 -2.5t20.5 -0.5q38 0 71.5 28.5t58.5 91.5l8 21l-210 526h94l112 -292q4 -13 12 -35t15.5 -44t13 -39.5t6.5 -21.5q2 5 7.5 21t12.5 35.5t14.5 39.5t12.5 35l103 301h93z M264 586l-161 136v14h101l106 -140v-10h-46z" />
<glyph unicode="&#x2013;" d="M0 220v67h556v-67h-556z" />
<glyph unicode="&#x2014;" horiz-adv-x="1000" d="M0 220v67h1000v-67h-1000z" />
<glyph unicode="&#x2015;" horiz-adv-x="1000" d="M0 220v67h1000v-67h-1000z" />
<glyph unicode="&#x2017;" horiz-adv-x="552" d="M-15 -211v63h582v-63h-582zM-15 -106v64h582v-64h-582z" />
<glyph unicode="&#x2018;" horiz-adv-x="222" d="M62 465v71q0 26 2.5 47t7.5 39t12 34t17 32h59q-22 -32 -34 -64t-12 -64h43v-95h-95z" />
<glyph unicode="&#x2019;" horiz-adv-x="222" d="M160 617q0 -26 -2 -47t-7 -39t-12 -34.5t-17 -31.5h-60q22 32 34 64t12 63h-43v96h95v-71z" />
<glyph unicode="&#x201a;" horiz-adv-x="222" d="M160 25q0 -26 -2 -47t-7 -39.5t-12 -34.5t-17 -32h-60q22 32 34 64t12 64h-43v95h95v-70z" />
<glyph unicode="&#x201b;" horiz-adv-x="222" d="M157 688v-96h-43q0 -31 12 -63t34 -64h-60q-10 15 -17 31.5t-12 34.5t-7 39t-2 47v71h95z" />
<glyph unicode="&#x201c;" horiz-adv-x="333" d="M199 465v71q0 26 2.5 47t7 39t11.5 34t17 32h59q-22 -32 -34 -64t-12 -64h43v-95h-94zM37 465v71q0 26 2.5 47t7 39t12 34t17.5 32h59q-22 -32 -34.5 -64t-12.5 -64h44v-95h-95z" />
<glyph unicode="&#x201d;" horiz-adv-x="333" d="M296 617q0 -26 -2 -47t-7 -39t-12 -34.5t-17 -31.5h-59q22 32 34 64t12 64h-43v95h94v-71zM135 617q0 -26 -2.5 -47t-7 -39t-12 -34.5t-16.5 -31.5h-60q22 32 34 64t12 64h-43v95h95v-71z" />
<glyph unicode="&#x201e;" horiz-adv-x="333" d="M296 25q0 -26 -2 -47t-7 -39.5t-12 -34.5t-17 -32h-59q22 32 34 64t12 64h-43v95h94v-70zM135 25q0 -26 -2.5 -47t-7 -39.5t-12 -34.5t-16.5 -32h-60q22 32 34 64t12 64h-43v95h95v-70z" />
<glyph unicode="&#x2020;" d="M317 488l-11 -555h-56l-11 555l-172 -13v80l172 -14l-13 184h105l-14 -184l172 14v-80z" />
<glyph unicode="&#x2021;" d="M243 488l-176 -13v80l176 -14l-8 184h85l-8 -184l177 14v-80l-177 13l-12 -161l12 -160l176 14v-80l-176 14l8 -184h-85l8 184l-177 -14v80l177 -14l12 160z" />
<glyph unicode="&#x2022;" horiz-adv-x="350" d="M311 333q0 -28 -11 -53t-30 -44t-43.5 -29.5t-53.5 -10.5q-27 0 -51.5 10.5t-42.5 29.5t-28.5 44t-10.5 53t10.5 52.5t28.5 42.5t42.5 28.5t51.5 10.5q29 0 53.5 -10.5t43.5 -28.5t30 -42.5t11 -52.5z" />
<glyph unicode="&#x2026;" horiz-adv-x="1000" d="M770 0v107h94v-107h-94zM454 0v107h93v-107h-93zM136 0v107h95v-107h-95z" />
<glyph unicode="&#x2030;" horiz-adv-x="1000" d="M148 0h-75l450 688h77zM174 694q29 0 55 -8t45.5 -28.5t31 -54.5t11.5 -85q0 -50 -11.5 -84.5t-31 -55.5t-46 -30t-56.5 -9q-31 0 -57.5 9t-46 30t-30.5 55t-11 85t11 85t31 54.5t47 28.5t58 8zM245 518q0 35 -4.5 59t-13.5 38t-22.5 20t-30.5 6q-19 0 -33 -6t-23.5 -20 t-14 -38t-4.5 -59t4.5 -58.5t14 -38t23.5 -21t32 -6.5q16 0 29.5 6.5t23 21t14.5 38t5 58.5zM510 350q29 0 55 -8.5t45.5 -28.5t31 -54t11.5 -86q0 -49 -11.5 -83.5t-31 -55.5t-46 -30t-56.5 -9q-31 0 -57.5 9t-46 30t-30.5 55t-11 84q0 52 11 86t31 54t47 28.5t58 8.5z M581 173q0 36 -4.5 60t-13.5 38t-22.5 20t-30.5 6q-19 0 -33 -6t-23.5 -20.5t-14 -38t-4.5 -59.5q0 -34 4.5 -58t14 -38.5t23.5 -20.5t32 -6q16 0 29.5 6t23 20.5t14.5 38.5t5 58zM830 350q29 0 55 -8.5t45.5 -28.5t31 -54t11.5 -86q0 -49 -11.5 -83.5t-31 -55.5t-46 -30 t-56.5 -9q-31 0 -57.5 9t-46 30t-30.5 55t-11 84q0 52 11 86t31 54t46.5 28.5t58.5 8.5zM901 173q0 36 -4.5 60t-13.5 38t-22.5 20t-30.5 6q-19 0 -33 -6t-23.5 -20.5t-14.5 -38t-5 -59.5q0 -34 5 -58t14.5 -38.5t23.5 -20.5t32 -6q16 0 29.5 6t23 20.5t14.5 38.5t5 58z" />
<glyph unicode="&#x2032;" horiz-adv-x="187" d="M42 435l31 253h95l-77 -253h-49z" />
<glyph unicode="&#x2033;" horiz-adv-x="354" d="M42 435l31 253h95l-77 -253h-49zM208 435l32 253h95l-77 -253h-50z" />
<glyph unicode="&#x2039;" horiz-adv-x="333" d="M207 69l-164 178v31l164 181h82v-15l-164 -182l165 -179v-14h-83z" />
<glyph unicode="&#x203a;" horiz-adv-x="333" d="M125 69h-82v14l165 179l-164 182v15h81l165 -181v-31z" />
<glyph unicode="&#x203c;" horiz-adv-x="500" d="M175 194h-72l-12 494h96zM90 0v98h95v-98h-95zM398 194h-72l-12 494h96zM313 0v98h95v-98h-95z" />
<glyph unicode="&#x203e;" horiz-adv-x="333" d="M365 734h-396v57h396v-57z" />
<glyph unicode="&#x2041;" horiz-adv-x="419" d="M220 248l142 -246h-42l-118 203l-110 -203h-41l133 246h36z" />
<glyph unicode="&#x207f;" horiz-adv-x="365" d="M251 253v195q0 22 -3 37t-10.5 24t-18.5 13t-29 4q-35 0 -55.5 -24.5t-20.5 -70.5v-178h-63v250v21t-0.5 21t-1 17t-0.5 9h58q0 -2 0.5 -8.5t1 -14.5t1 -17t0.5 -14h1q8 13 17 24.5t21 19t27.5 12t36.5 4.5q54 0 77.5 -26.5t23.5 -85.5v-212h-63z" />
<glyph unicode="&#x20a3;" d="M175 612v-232h336v-77h-336v-104h197v-63h-197v-136h-88v136h-85v63h85v489h435v-76h-347z" />
<glyph unicode="&#x20a4;" d="M539 152q-4 -39 -18 -67.5t-36 -47.5t-50 -28t-60 -9h-341v75q43 23 64 62t21 98v12h-91v63h91v68h-91v63h91v64q0 45 12 81t36 60.5t61 38t87 13.5q35 0 65 -7t54 -21t41.5 -35t25.5 -49l-84 -28q-5 15 -14.5 28t-22.5 21.5t-29 13.5t-34 5q-55 0 -82.5 -28t-27.5 -89 v-68h199v-63h-199v-68h199v-63h-199v-3q0 -28 -5.5 -53.5t-16 -48t-26 -40t-34.5 -27.5h235q19 0 35.5 4.5t29 14.5t22 26.5t12.5 40.5z" />
<glyph unicode="&#x20a7;" horiz-adv-x="1094" d="M466 481q0 -45 -15 -84t-44.5 -67.5t-74 -45t-103.5 -16.5h-63v-268h-89v688h146q61 0 106.5 -15t76 -42t45.5 -65.5t15 -84.5zM377 480q0 65 -40 99t-120 34h-51v-271h55q80 0 118 35.5t38 102.5zM687 4q-17 -5 -35 -8.5t-42 -3.5q-51 0 -73.5 30t-22.5 90v221h-51v64 h54l26 118h54v-118h76v-64h-76v-202q0 -38 10 -56t37 -18q11 0 20.5 2t22.5 5v-60zM1050 112q0 -59 -44.5 -90.5t-127.5 -31.5q-37 0 -66.5 6t-52 19t-37 34.5t-22.5 53.5l78 12q8 -30 32 -44t67 -14q20 0 36.5 2.5t28.5 8.5t18.5 16t6.5 24q0 15 -8 25t-23.5 17t-36.5 12.5 t-46 12.5q-24 6 -47.5 13.5t-42.5 20.5t-30.5 32.5t-11.5 48.5q0 54 41 83t120 29q69 0 109 -25.5t51 -82.5l-79 -8q-3 14 -10.5 23t-18.5 15t-24 8.5t-28 2.5q-75 0 -75 -42q0 -12 7.5 -20.5t21.5 -15.5t33.5 -12.5t43.5 -10.5q23 -5 47.5 -13t44.5 -21t32.5 -34t12.5 -54z " />
<glyph unicode="&#x20ac;" d="M337 62q49 0 78.5 24t36.5 69l90 -7q-6 -33 -21.5 -62t-40.5 -50t-61 -33.5t-84 -12.5q-58 0 -101.5 19t-73 53t-46 80.5t-23.5 102.5h-83l19 63h59q-1 4 -1.5 15t-0.5 23q0 13 0.5 26t1.5 16h-78l19 62h63q8 60 25.5 106t47.5 78t72.5 48t98.5 16q47 0 83 -12t61 -33.5 t40.5 -50t22.5 -61.5l-91 -7q-7 44 -36.5 68.5t-80.5 24.5q-34 0 -59.5 -9.5t-45 -31t-31.5 -54.5t-18 -82h218l-20 -62h-201q-1 -8 -1.5 -19.5t-0.5 -22.5t0.5 -20t1.5 -18h221l-20 -63h-197q5 -39 15 -73t29 -58.5t46.5 -38t66.5 -13.5z" />
<glyph unicode="&#x2105;" horiz-adv-x="885" d="M852 212q0 -61 -12.5 -103t-34 -67.5t-49.5 -36.5t-61 -11q-32 0 -60 11t-49 36.5t-32.5 67t-11.5 103.5q0 65 11.5 107.5t32.5 67.5t49.5 35t61.5 10q32 0 60.5 -10t49 -35t33 -67.5t12.5 -107.5zM255 0h-75l450 688h77zM779 212q0 48 -5 80t-15.5 51t-26 27t-35.5 8 t-35.5 -8t-26.5 -27t-16.5 -51t-5.5 -80q0 -46 6 -77.5t16.5 -51t25.5 -27.5t35 -8q19 0 34.5 8t26.5 27.5t16.5 51t5.5 77.5zM105 476q0 -37 5 -67t16.5 -52t29.5 -34t45 -12q33 0 56 20t29 62l68 -4q-2 -27 -13 -51t-30 -42.5t-46 -29.5t-62 -11q-46 0 -78.5 17 t-52.5 46.5t-29 69.5t-9 87q0 63 14 105.5t38 67.5t54 35t62 10q33 0 59 -9.5t44.5 -26.5t30.5 -40t16 -50l-70 -5q-5 35 -25 55.5t-57 20.5q-53 0 -74 -40t-21 -122z" />
<glyph unicode="&#x2108;" horiz-adv-x="592" d="M480 333q0 -82 -20 -141t-51.5 -94t-67 -50t-70.5 -15q-28 0 -72 13q-44 12 -70 12q-22 0 -39 -12.5t-35 -33.5q-13 -15 -17 -15t-4 8q0 7 7 31q5 19 8 31t3 23q0 15 -7 47q-5 22 -5 29q0 9 5 9l8 -9q13 -17 28 -32.5t40 -32.5t59.5 -28.5t77.5 -11.5q31 0 57 12t46 41.5 t32 80t12 124.5h-184q-9 0 -15.5 -7.5t-11.5 -17t-7 -17t-3 -11.5v132q1 -3 3 -10.5t7 -16.5t11.5 -16t15.5 -7h184q0 74 -11.5 124t-32 79t-46 41t-56.5 12q-43 0 -78.5 -11.5t-61 -28.5t-40.5 -32.5t-29 -33.5q-7 -8 -8 -8q-5 0 -5 9q0 7 4 28q7 34 7 49q0 11 -3 24t-7 31 q-8 24 -8 31q0 6 6 6q4 0 17 -16q19 -19 35 -31.5t37 -12.5q26 0 73 12t73 12q38 0 74.5 -15.5t67 -49.5t49 -92.5t18.5 -141.5z" />
<glyph unicode="&#x2113;" horiz-adv-x="323" d="M211 38q25 0 42 25.5t25 78.5h34q-10 -75 -39.5 -113.5t-82.5 -38.5q-54 0 -85 39t-31 115v85q-16 -8 -32 -15t-33 -13v35q17 7 33.5 14t31.5 15v287q0 29 6 55t20.5 46.5t38.5 32.5t59 12q25 0 44.5 -10.5t32.5 -29.5t19.5 -46t6.5 -61q0 -48 -11 -92t-30 -81t-46 -66 t-59 -47v-119q0 -28 4.5 -48.5t12.5 -33.5t18 -19.5t21 -6.5zM256 548q0 25 -3 46t-10 36t-16.5 23t-22.5 8q-16 0 -25.5 -9t-14.5 -24t-7 -34.5t-2 -42.5v-247q24 16 42.5 41.5t32 57.5t20 68.5t6.5 76.5z" />
<glyph unicode="&#x2114;" horiz-adv-x="747" d="M714 267q0 -277 -194 -277q-60 0 -100 22t-65 70h-1q0 -13 -0.5 -26.5t-1.5 -25t-1.5 -20t-1.5 -10.5h-85q1 4 1.5 14.5t1 25.5t0.5 32.5v36.5v616h88v-207v-28t-1 -24q0 -12 -1 -23h2q25 51 65 73t100 22q100 0 147 -67.5t47 -203.5zM622 264q0 54 -7 93t-22 64.5 t-38.5 37t-57.5 11.5t-61 -11t-44.5 -36t-27 -65.5t-9.5 -99.5q0 -56 9.5 -94.5t27 -63t44 -35t60.5 -10.5q33 0 56 11.5t39 36t23.5 64.5t7.5 97zM67 0v725h88v-725h-88zM603 653v-50h-590v50h590z" />
<glyph unicode="&#x2116;" horiz-adv-x="1073" d="M519 0l-352 581q0 -21 1 -43q1 -18 1.5 -40t0.5 -41v-457h-78v688h98l356 -585q-1 20 -2 42q-1 19 -1.5 43t-0.5 49v451h79v-688h-102zM1022 337q0 -92 -42.5 -141.5t-128.5 -49.5q-82 0 -125 49t-43 142q0 44 10.5 79.5t31.5 60t53 37.5t75 13q45 0 77 -13t52.5 -37 t30 -59.5t9.5 -80.5zM945 337q0 39 -6 65.5t-17.5 42t-28.5 22t-39 6.5t-39.5 -7t-29 -22.5t-17.5 -41.5t-6 -65q0 -40 6 -66.5t18 -42t28.5 -21.5t36.5 -6q22 0 39.5 6t30 21.5t18.5 42t6 66.5zM703 0v71h310v-71h-310z" />
<glyph unicode="&#x211e;" horiz-adv-x="784" d="M523 141q-10 6 -19 6q-4 0 -9 -2l-56 -30l68 -97q12 -18 29.5 -28t45.5 -10t48 4q-82 -32 -108.5 -18t-44.5 37l-69 96l-50 -28q-13 -7 -13 -23l-32 48q9 -6 19 -6q7 0 12 3l49 27l-107 161q-10 -3 -25 -4t-34 -1h-94v-207q0 -18 12.5 -26t20.5 -10h-135q3 1 8 2.5t12 5 t12.5 11t5.5 17.5v480q0 13 -13 20t-29 9h200q44 0 82.5 -8.5t68 -27.5t45.5 -47.5t16 -66.5q0 -27 -11.5 -49.5t-31 -39t-40 -28t-40.5 -18.5l108 -157l56 30q11 5 11 22zM370 426q0 52 -41 87.5t-111 35.5h-85v-246h85q71 0 111.5 37t40.5 86z" />
<glyph unicode="&#x2122;" horiz-adv-x="1000" d="M826 310v207v95q-3 -6 -5 -11q-2 -4 -3 -8.5t-2 -7.5l-112 -275h-53l-80 201q-1 3 -6.5 18.5t-12.5 33.5q-9 22 -18 49q-1 -5 -1 -10v-8.5v-7.5v-276h-63v378h93l109 -275q1 -2 2 -5t2 -7l3 -8q10 24 18 44q3 9 6.5 17.5t6 15.5t4 11t1.5 5l82 202h90v-378h-61zM282 634 v-324h-66v324h-124v54h317v-54h-127z" />
<glyph unicode="&#x2125;" horiz-adv-x="584" d="M338 481h186l-184 -174q77 0 126 -37t49 -107q0 -35 -18.5 -66t-52 -55t-75 -37t-86.5 -13q-89 0 -147 37t-58 93q0 24 15.5 41t36.5 17t36.5 -17t15.5 -41q0 -20 -15.5 -35t-38.5 -15q26 -56 154 -56q36 0 68.5 12.5t57 33t38.5 48t14 55.5q0 60 -43.5 90t-145.5 30 l164 155h-211q12 10 82 62t99.5 73.5t35.5 26.5q-67 0 -118.5 -7t-93.5 -21t-79 -35t-80 -52q15 23 27 54.5t21 60t13.5 47t6.5 25.5q3 -12 33.5 -19.5t76.5 -11.5t95.5 -5.5t102.5 -1.5t91 1z" />
<glyph unicode="&#x2126;" horiz-adv-x="768" d="M384 698q74 0 132.5 -21t99.5 -60.5t63 -96.5t22 -129q0 -52 -14.5 -98.5t-41 -87t-65 -74.5t-86.5 -60q21 1 40 2q16 1 33 2t29 1h119v-76h-288v109q47 25 81 56t55.5 66t32 73.5t10.5 80.5q0 56 -15 100.5t-43 74.5t-69.5 46t-94.5 16t-94.5 -16t-70 -46t-43 -74.5 t-14.5 -100.5q0 -42 10 -80.5t32 -73.5t55.5 -66t80.5 -56v-109h-287v76h119q11 0 28.5 -1t33.5 -2q19 -1 39 -2q-48 26 -86.5 60t-65 74.5t-41 87t-14.5 98.5q0 72 22 129t63 96.5t100 60.5t133 21z" />
<glyph unicode="&#x212e;" horiz-adv-x="600" d="M302 -17q-63 0 -111.5 23t-81 61t-49.5 88t-17 104q0 72 23 124t60.5 86t83.5 50t92 16q55 0 102.5 -19t82 -55t54.5 -87t20 -115h-404v-174q10 -11 26 -22t35 -19.5t40.5 -13.5t43.5 -5q37 0 65.5 7.5t51 22t41 36t35.5 48.5l35 -20q-17 -28 -37.5 -52.5t-47.5 -43 t-61.5 -29.5t-81.5 -11zM448 301v135q-10 10 -24 20t-33 18.5t-41.5 14t-48.5 5.5q-25 0 -46 -5t-39 -12.5t-33 -18t-26 -21.5v-136h291z" />
<glyph unicode="&#x215b;" horiz-adv-x="834" d="M39 275v52h103v303l-99 -68v59l103 67h60v-361h105v-52h-272zM241 0h-73l431 688h70zM708 309q0 13 -2.5 25t-10.5 20t-20.5 13t-32.5 5q-19 0 -32 -5t-20.5 -13t-11 -20t-3.5 -25q0 -12 2.5 -23.5t9.5 -21t20 -15.5t35 -6q24 0 37 6t19.5 15.5t8 21.5t1.5 23zM719 124 q0 13 -3.5 26t-12 22.5t-23 15.5t-38.5 6q-22 0 -36.5 -6t-23.5 -16t-12.5 -23t-3.5 -26q0 -18 3.5 -32t12.5 -24.5t24 -16t37 -5.5q23 0 37.5 5.5t23 16t12 25t3.5 32.5zM788 117q0 -27 -8.5 -49t-26.5 -38t-45.5 -25t-64.5 -9q-38 0 -65.5 9t-45.5 25t-26.5 38t-8.5 48 q0 23 7 40.5t18.5 30t26 20.5t30.5 10v2q-17 4 -30.5 13t-23 21.5t-14.5 28t-5 32.5q0 22 8.5 41.5t26 34t42.5 22.5t59 8q35 0 60.5 -8.5t42.5 -23t25 -34t8 -40.5q0 -17 -5 -32.5t-14 -28t-23 -21.5t-31 -13v-1q17 -3 32.5 -10.5t26.5 -20.5t17.5 -30.5t6.5 -39.5z" />
<glyph unicode="&#x215c;" horiz-adv-x="834" d="M241 0h-73l431 688h70zM708 309q0 13 -2.5 25t-10.5 20t-20.5 13t-32.5 5q-19 0 -32 -5t-20.5 -13t-11 -20t-3.5 -25q0 -12 2.5 -23.5t9.5 -21t20 -15.5t35 -6q24 0 37 6t19.5 15.5t8 21.5t1.5 23zM719 124q0 13 -3.5 26t-12 22.5t-23 15.5t-38.5 6q-22 0 -36.5 -6 t-23.5 -16t-12.5 -23t-3.5 -26q0 -18 3.5 -32t12.5 -24.5t24 -16t37 -5.5q23 0 37.5 5.5t23 16t12 25t3.5 32.5zM788 117q0 -27 -8.5 -49t-26.5 -38t-45.5 -25t-64.5 -9q-38 0 -65.5 9t-45.5 25t-26.5 38t-8.5 48q0 23 7 40.5t18.5 30t26 20.5t30.5 10v2q-17 4 -30.5 13 t-23 21.5t-14.5 28t-5 32.5q0 22 8.5 41.5t26 34t42.5 22.5t59 8q35 0 60.5 -8.5t42.5 -23t25 -34t8 -40.5q0 -17 -5 -32.5t-14 -28t-23 -21.5t-31 -13v-1q17 -3 32.5 -10.5t26.5 -20.5t17.5 -30.5t6.5 -39.5zM330 388q0 -56 -38 -87.5t-107 -31.5q-42 0 -70.5 9.5t-46.5 25 t-26.5 35.5t-11.5 41l66 6q5 -32 26.5 -49t62.5 -17q38 0 58 17.5t20 54.5q0 22 -9 35t-22.5 20.5t-30 9.5t-30.5 2h-30v53h28q14 0 29 3.5t27 11t20 20.5t8 32q0 29 -18 46t-53 17q-33 0 -53.5 -17t-23.5 -49l-66 6q3 28 15.5 49t31.5 35t44 21t54 7q34 0 59.5 -8 t42.5 -22.5t25.5 -34t8.5 -41.5q0 -37 -21 -63.5t-65 -36.5v-1q25 -3 43.5 -12t30 -22t17 -30t5.5 -35z" />
<glyph unicode="&#x215d;" horiz-adv-x="834" d="M241 0h-73l431 688h70zM708 309q0 13 -2.5 25t-10.5 20t-20.5 13t-32.5 5q-19 0 -32 -5t-20.5 -13t-11 -20t-3.5 -25q0 -12 2.5 -23.5t9.5 -21t20 -15.5t35 -6q24 0 37 6t19.5 15.5t8 21.5t1.5 23zM719 124q0 13 -3.5 26t-12 22.5t-23 15.5t-38.5 6q-22 0 -36.5 -6 t-23.5 -16t-12.5 -23t-3.5 -26q0 -18 3.5 -32t12.5 -24.5t24 -16t37 -5.5q23 0 37.5 5.5t23 16t12 25t3.5 32.5zM788 117q0 -27 -8.5 -49t-26.5 -38t-45.5 -25t-64.5 -9q-38 0 -65.5 9t-45.5 25t-26.5 38t-8.5 48q0 23 7 40.5t18.5 30t26 20.5t30.5 10v2q-17 4 -30.5 13 t-23 21.5t-14.5 28t-5 32.5q0 22 8.5 41.5t26 34t42.5 22.5t59 8q35 0 60.5 -8.5t42.5 -23t25 -34t8 -40.5q0 -17 -5 -32.5t-14 -28t-23 -21.5t-31 -13v-1q17 -3 32.5 -10.5t26.5 -20.5t17.5 -30.5t6.5 -39.5zM330 408q0 -32 -9 -57.5t-27 -43.5t-44.5 -27.5t-60.5 -9.5 q-32 0 -57 8t-43 22t-28.5 34t-15.5 43l65 8q3 -13 9 -24.5t15.5 -20.5t22.5 -14t30 -5q35 0 56 20.5t21 66.5q0 39 -19.5 60t-56.5 21q-25 0 -44 -9t-30 -21h-63l16 229h247v-55h-194l-9 -120q14 13 36 21t49 8q33 0 58 -9.5t41.5 -27t25.5 -42.5t9 -55z" />
<glyph unicode="&#x215e;" horiz-adv-x="834" d="M211 0h-72l430 688h71zM708 309q0 13 -2.5 25t-10.5 20t-20.5 13t-32.5 5q-19 0 -32 -5t-20.5 -13t-11 -20t-3.5 -25q0 -12 2.5 -23.5t9.5 -21t20 -15.5t35 -6q24 0 37 6t19.5 15.5t8 21.5t1.5 23zM719 124q0 13 -3.5 26t-12 22.5t-23 15.5t-38.5 6q-22 0 -36.5 -6 t-23.5 -16t-12.5 -23t-3.5 -26q0 -18 3.5 -32t12.5 -24.5t24 -16t37 -5.5q23 0 37.5 5.5t23 16t12 25t3.5 32.5zM788 117q0 -27 -8.5 -49t-26.5 -38t-45.5 -25t-64.5 -9q-38 0 -65.5 9t-45.5 25t-26.5 38t-8.5 48q0 23 7 40.5t18.5 30t26 20.5t30.5 10v2q-17 4 -30.5 13 t-23 21.5t-14.5 28t-5 32.5q0 22 8.5 41.5t26 34t42.5 22.5t59 8q35 0 60.5 -8.5t42.5 -23t25 -34t8 -40.5q0 -17 -5 -32.5t-14 -28t-23 -21.5t-31 -13v-1q17 -3 32.5 -10.5t26.5 -20.5t17.5 -30.5t6.5 -39.5zM358 639q-31 -48 -57 -91t-44.5 -86t-29 -88.5t-10.5 -98.5h-65 q0 50 11.5 96t31 89.5t45.5 86.5t55 86h-224v55h287v-49z" />
<glyph unicode="&#x2190;" horiz-adv-x="1000" d="M313 145q14 -17 28.5 -40.5t29.5 -55.5h-35q-28 33 -60 60.5t-72 47.5v18q40 20 72 47.5t60 60.5h35q-15 -32 -29.5 -55.5t-28.5 -40.5h483v-42h-483z" />
<glyph unicode="&#x2191;" horiz-adv-x="500" d="M229 453q-17 -14 -40.5 -28.5t-55.5 -29.5v35q33 28 60.5 60t47.5 72h18q20 -40 47.5 -72t60.5 -60v-35q-32 15 -55.5 29.5t-40.5 28.5v-483h-42v483z" />
<glyph unicode="&#x2192;" horiz-adv-x="1000" d="M687 187q-14 17 -28.5 40.5t-29.5 55.5h35q28 -33 60 -60.5t72 -47.5v-18q-40 -20 -72 -47.5t-60 -60.5h-35q15 32 29.5 55.5t28.5 40.5h-483v42h483z" />
<glyph unicode="&#x2193;" horiz-adv-x="500" d="M271 79q17 14 40.5 28.5t55.5 29.5v-35q-33 -28 -60.5 -60t-47.5 -72h-18q-20 40 -47.5 72t-60.5 60v35q32 -15 55.5 -29.5t40.5 -28.5v483h42v-483z" />
<glyph unicode="&#x2194;" horiz-adv-x="1000" d="M313 145q14 -17 28.5 -40.5t29.5 -55.5h-35q-28 33 -60 60.5t-72 47.5v18q40 20 72 47.5t60 60.5h35q-15 -32 -29.5 -55.5t-28.5 -40.5h374q-14 17 -28.5 40.5t-29.5 55.5h35q28 -33 60 -60.5t72 -47.5v-18q-40 -20 -72 -47.5t-60 -60.5h-35q15 32 29.5 55.5t28.5 40.5 h-374z" />
<glyph unicode="&#x2195;" horiz-adv-x="500" d="M229 453q-17 -14 -40.5 -28.5t-55.5 -29.5v35q33 28 60.5 60t47.5 72h18q20 -40 47.5 -72t60.5 -60v-35q-32 15 -55.5 29.5t-40.5 28.5v-374q17 14 40.5 28.5t55.5 29.5v-35q-33 -28 -60.5 -60t-47.5 -72h-18q-20 40 -47.5 72t-60.5 60v35q32 -15 55.5 -29.5t40.5 -28.5 v374z" />
<glyph unicode="&#x21a8;" horiz-adv-x="500" d="M133 -51h234v-39h-234v39zM229 453q-17 -14 -40.5 -28.5t-55.5 -29.5v35q33 28 60.5 60t47.5 72h18q20 -40 47.5 -72t60.5 -60v-35q-32 15 -55.5 29.5t-40.5 28.5v-374q17 14 40.5 28.5t55.5 29.5v-35q-33 -28 -60.5 -60t-47.5 -72h-18q-20 40 -47.5 72t-60.5 60v35 q32 -15 55.5 -29.5t40.5 -28.5v374z" />
<glyph unicode="&#x2202;" horiz-adv-x="494" d="M466 458q0 -22 -2 -47.5t-5 -51.5t-7.5 -52t-9.5 -49q-15 -63 -38.5 -113t-55.5 -85.5t-71.5 -54t-86.5 -18.5q-45 0 -76 15.5t-50.5 41.5t-28 59.5t-8.5 70.5q0 29 5.5 64t17 70t29.5 68t42.5 58t57 40.5t72.5 15.5q21 0 40 -6t34.5 -18t27.5 -28.5t20 -36.5h2 q0 12 1 26t1 31q0 96 -32 147t-95 51q-13 0 -27.5 -3t-28.5 -7.5t-27.5 -11.5t-24.5 -15l18 72q20 11 48.5 20.5t61.5 9.5q55 0 92.5 -21.5t60.5 -58t33 -84t10 -99.5zM363 332q-4 21 -13 39t-21.5 31.5t-28 21t-32.5 7.5q-26 0 -47 -12.5t-37.5 -33t-28.5 -47t-20 -55 t-11.5 -57t-3.5 -51.5q0 -26 5 -48.5t15.5 -38.5t26.5 -25.5t37 -9.5q32 0 58.5 24.5t47 63.5t34 89t19.5 102z" />
<glyph unicode="&#x2205;" horiz-adv-x="612" d="M2 69l253 619h106l249 -619v-69h-608v69zM512 76l-165 421q-8 20 -15 40t-12.5 36.5t-9 28.5t-3.5 16q-1 -4 -4.5 -16t-9 -29t-12.5 -37t-15 -40l-165 -420h411z" />
<glyph unicode="&#x2206;" horiz-adv-x="668" d="M30 69l253 619h106l249 -619v-69h-608v69zM540 76l-165 421q-8 20 -15 40t-12.5 36.5t-9 28.5t-4.5 16l-4 -16t-9 -29t-12.5 -37t-14.5 -40l-166 -420h412z" />
<glyph unicode="&#x220f;" horiz-adv-x="823" d="M619 -212v821h-411v-821h-93v900h594v-900h-90z" />
<glyph unicode="&#x2211;" horiz-adv-x="713" d="M75 -212v53l310 399l-302 396v52h532v-74h-413l285 -373l-293 -379h454v-74h-573z" />
<glyph unicode="&#x2212;" horiz-adv-x="584" d="M49 297v71h486v-71h-486z" />
<glyph unicode="&#x2215;" horiz-adv-x="167" d="M-131 0h-72l430 688h71z" />
<glyph unicode="&#x2219;" horiz-adv-x="278" d="M91 218v107h96v-107h-96z" />
<glyph unicode="&#x221a;" horiz-adv-x="549" d="M304 -7h-52l-138 387h-89v57h132l118 -337l210 691h63z" />
<glyph unicode="&#x221e;" horiz-adv-x="713" d="M670 288q0 -38 -10.5 -72.5t-30.5 -60.5t-48 -41t-62 -15q-48 0 -89 32.5t-75 105.5q-16 -31 -34 -56t-38.5 -42.5t-42.5 -27t-45 -9.5q-33 0 -61.5 13.5t-48.5 38t-31.5 59.5t-11.5 78q0 40 11 74.5t31 60t48.5 40t62.5 14.5q46 0 87 -33t74 -105q15 30 33.5 55t39 43 t43.5 27.5t48 9.5q33 0 61 -13.5t47.5 -38t30.5 -59.5t11 -78zM508 413q-34 0 -63 -30.5t-57 -94.5q25 -62 54 -93.5t67 -31.5q21 0 38 10t29.5 27t19.5 40t7 49t-7.5 48.5t-20 39.5t-29.5 26.5t-38 9.5zM324 291q-25 63 -54 94t-67 31q-21 0 -38 -10t-29 -27t-18.5 -40 t-6.5 -49q0 -25 6 -47.5t17.5 -39.5t29 -27t40.5 -10q34 0 63.5 31t56.5 94z" />
<glyph unicode="&#x221f;" horiz-adv-x="979" d="M199 597h46v-551h552v-46h-598v597z" />
<glyph unicode="&#x2229;" horiz-adv-x="719" d="M136 -1v250q0 57 16.5 103.5t46.5 80.5t70.5 52.5t88.5 18.5t89.5 -18.5t71.5 -52.5t47 -80.5t17 -103.5v-250h-50v251q0 48 -13 86t-36.5 64t-55 40t-69.5 14t-70 -13.5t-55 -40t-35.5 -64.5t-12.5 -87v-250h-50z" />
<glyph unicode="&#x222b;" horiz-adv-x="274" d="M18 -212q-18 0 -36.5 2.5t-29.5 6.5v72q10 -4 25 -8t32 -4q25 0 41 9t25.5 25t13.5 36.5t4 43.5l-1 592q0 46 12.5 78.5t34.5 53.5t52.5 31t66.5 10q17 0 35.5 -2.5t28.5 -6.5v-72q-9 5 -23.5 9t-32.5 4q-25 0 -41 -10t-25.5 -25.5t-13.5 -36t-4 -42.5v-593 q0 -45 -12 -78t-34 -54t-52 -31t-66 -10z" />
<glyph unicode="&#x2248;" horiz-adv-x="549" d="M395 370q-34 0 -69.5 10.5t-71.5 23.5q-31 11 -57.5 16.5t-48.5 5.5q-18 0 -34 -3t-30.5 -8.5t-28 -13.5t-28.5 -18v70q25 18 57 29.5t72 11.5q19 0 38.5 -3t38.5 -8t37.5 -12t36.5 -13q10 -4 22 -7.5t24.5 -7t25 -5.5t23.5 -2q34 0 64 12.5t55 33.5v-73 q-15 -11 -29.5 -18.5t-29.5 -12t-31.5 -6.5t-35.5 -2zM395 164q-34 0 -69.5 11t-71.5 23q-31 11 -57.5 17t-48.5 6q-18 0 -34 -3t-30.5 -8.5t-28 -13.5t-28.5 -18v69q25 19 57 30t72 11q19 0 38.5 -3t38.5 -8t37.5 -11.5t36.5 -12.5q10 -4 22 -7.5t24.5 -7t25 -5.5t23.5 -2 q34 0 64 12t55 33v-72q-15 -11 -29.5 -19t-29.5 -12.5t-31.5 -6.5t-35.5 -2z" />
<glyph unicode="&#x2260;" horiz-adv-x="549" d="M219 168l-74 -141h-71l73 141h-115v72h152l92 178h-244v72h280l75 143h70l-75 -143h136v-72h-171l-94 -178h265v-72h-299z" />
<glyph unicode="&#x2261;" horiz-adv-x="583" d="M49 467v72h486v-72h-486zM49 119v72h486v-72h-486zM49 293v72h486v-72h-486z" />
<glyph unicode="&#x2264;" horiz-adv-x="549" d="M32 308v100l486 193v-75l-419 -168l419 -168v-75zM31 0v71h486v-71h-486z" />
<glyph unicode="&#x2265;" horiz-adv-x="549" d="M32 115v75l419 168l-419 168v75l486 -193v-100zM32 0v71h486v-71h-486z" />
<glyph unicode="&#x2302;" horiz-adv-x="604" d="M77 0v310l225 253l225 -253v-310h-450zM116 40h372v253l-186 208l-186 -208v-253z" />
<glyph unicode="&#x2310;" horiz-adv-x="584" d="M49 88v280h486v-71h-415v-209h-71z" />
<glyph unicode="&#x2320;" horiz-adv-x="604" d="M338 -300h-71v917q0 96 41 156q40 60 102 60q31 0 49.5 -15.5t18.5 -38.5q0 -20 -12.5 -32.5t-30.5 -12.5q-15 0 -21 5q-4 2 -10.5 7.5t-16.5 16.5q-16 19 -24 19q-17 0 -22 -19q-3 -17 -3 -68v-995z" />
<glyph unicode="&#x2321;" horiz-adv-x="604" d="M267 833h71v-918q0 -100 -44 -161q-19 -27 -44 -40.5t-56 -13.5q-14 0 -26.5 4t-21.5 11t-14 16.5t-5 21.5q0 10 3.5 18t9.5 14t13.5 9.5t15.5 3.5q17 0 29 -8q3 -1 8 -6.5t12 -15.5q15 -18 23 -18q18 0 22 20q4 15 4 67v996z" />
<glyph unicode="&#x2500;" horiz-adv-x="708" d="M-5 268v71h718v-71h-718z" />
<glyph unicode="&#x2502;" horiz-adv-x="625" d="M230 910h71v-1213h-71v1213z" />
<glyph unicode="&#x250c;" horiz-adv-x="708" d="M319 339h394v-71h-323v-571h-71v642z" />
<glyph unicode="&#x2510;" horiz-adv-x="708" d="M-5 268v71h395v-642h-71v571h-324z" />
<glyph unicode="&#x2514;" horiz-adv-x="708" d="M319 910h71v-571h323v-71h-394v642z" />
<glyph unicode="&#x2518;" horiz-adv-x="708" d="M-5 268v71h324v571h71v-642h-395z" />
<glyph unicode="&#x251c;" horiz-adv-x="708" d="M319 910h71v-571h323v-71h-323v-571h-71v1213z" />
<glyph unicode="&#x2524;" horiz-adv-x="708" d="M-5 268v71h324v571h71v-1213h-71v571h-324z" />
<glyph unicode="&#x252c;" horiz-adv-x="708" d="M-5 268v71h718v-71h-323v-571h-71v571h-324z" />
<glyph unicode="&#x2534;" horiz-adv-x="708" d="M-5 268v71h324v571h71v-571h323v-71h-718z" />
<glyph unicode="&#x253c;" horiz-adv-x="708" d="M-5 268v71h324v571h71v-571h323v-71h-323v-571h-71v571h-324z" />
<glyph unicode="&#x2550;" horiz-adv-x="708" d="M-5 356v71h718v-71h-718zM-5 180v71h718v-71h-718z" />
<glyph unicode="&#x2551;" horiz-adv-x="708" d="M231 910h71v-1213h-71v1213zM407 910h71v-1213h-71v1213z" />
<glyph unicode="&#x2552;" horiz-adv-x="708" d="M319 427h394v-71h-323v-105h323v-71h-323v-483h-71v730z" />
<glyph unicode="&#x2553;" horiz-adv-x="708" d="M713 339v-71h-235v-571h-71v571h-105v-571h-71v642h482z" />
<glyph unicode="&#x2554;" horiz-adv-x="708" d="M231 427h482v-71h-411v-659h-71v730zM407 251h306v-71h-235v-483h-71v554z" />
<glyph unicode="&#x2555;" horiz-adv-x="708" d="M-5 180v71h324v105h-324v71h395v-730h-71v483h-324z" />
<glyph unicode="&#x2556;" horiz-adv-x="708" d="M-5 268v71h483v-642h-71v571h-105v-571h-71v571h-236z" />
<glyph unicode="&#x2557;" horiz-adv-x="708" d="M478 427v-730h-71v659h-412v71h483zM302 -303h-71v483h-236v71h307v-554z" />
<glyph unicode="&#x2558;" horiz-adv-x="708" d="M319 910h71v-483h323v-71h-323v-105h323v-71h-394v730z" />
<glyph unicode="&#x2559;" horiz-adv-x="708" d="M407 910h71v-571h235v-71h-482v642h71v-571h105v571z" />
<glyph unicode="&#x255a;" horiz-adv-x="708" d="M231 910h71v-659h411v-71h-482v730zM407 910h71v-483h235v-71h-306v554z" />
<glyph unicode="&#x255b;" horiz-adv-x="708" d="M-5 180v71h324v105h-324v71h324v483h71v-730h-395z" />
<glyph unicode="&#x255c;" horiz-adv-x="708" d="M478 268h-483v71h236v571h71v-571h105v571h71v-642z" />
<glyph unicode="&#x255d;" horiz-adv-x="708" d="M478 180h-483v71h412v659h71v-730zM231 910h71v-554h-307v71h236v483z" />
<glyph unicode="&#x255e;" horiz-adv-x="708" d="M319 910h71v-483h323v-71h-323v-105h323v-71h-323v-483h-71v1213z" />
<glyph unicode="&#x255f;" horiz-adv-x="708" d="M407 910h71v-571h235v-71h-235v-571h-71v1213zM231 910h71v-1213h-71v1213z" />
<glyph unicode="&#x2560;" horiz-adv-x="708" d="M302 -303h-71v1213h71v-1213zM407 251h306v-71h-235v-483h-71v554zM407 910h71v-483h235v-71h-306v554z" />
<glyph unicode="&#x2561;" horiz-adv-x="708" d="M-5 180v71h324v105h-324v71h324v483h71v-1213h-71v483h-324z" />
<glyph unicode="&#x2562;" horiz-adv-x="708" d="M-5 268v71h236v571h71v-1213h-71v571h-236zM407 910h71v-1213h-71v1213z" />
<glyph unicode="&#x2563;" horiz-adv-x="708" d="M407 910h71v-1213h-71v1213zM231 910h71v-554h-307v71h236v483zM302 -303h-71v483h-236v71h307v-554z" />
<glyph unicode="&#x2564;" horiz-adv-x="708" d="M-5 180v71h718v-71h-323v-483h-71v483h-324zM-5 356v71h718v-71h-718z" />
<glyph unicode="&#x2565;" horiz-adv-x="708" d="M-5 268v71h718v-71h-235v-571h-71v571h-105v-571h-71v571h-236z" />
<glyph unicode="&#x2566;" horiz-adv-x="708" d="M302 -303h-71v483h-236v71h307v-554zM407 251h306v-71h-235v-483h-71v554zM713 427v-71h-718v71h718z" />
<glyph unicode="&#x2567;" horiz-adv-x="708" d="M-5 356v71h324v483h71v-483h323v-71h-718zM-5 180v71h718v-71h-718z" />
<glyph unicode="&#x2568;" horiz-adv-x="708" d="M-5 268v71h236v571h71v-571h105v571h71v-571h235v-71h-718z" />
<glyph unicode="&#x2569;" horiz-adv-x="708" d="M407 910h71v-483h235v-71h-306v554zM231 910h71v-554h-307v71h236v483zM-5 180v71h718v-71h-718z" />
<glyph unicode="&#x256a;" horiz-adv-x="708" d="M-5 180v71h324v105h-324v71h324v483h71v-483h323v-71h-323v-105h323v-71h-323v-483h-71v483h-324z" />
<glyph unicode="&#x256b;" horiz-adv-x="708" d="M407 910h71v-571h235v-71h-235v-571h-71v571h-105v-571h-71v571h-236v71h236v571h71v-571h105v571z" />
<glyph unicode="&#x256c;" horiz-adv-x="708" d="M407 910h71v-483h235v-71h-306v554zM302 -303h-71v483h-236v71h307v-554zM407 251h306v-71h-235v-483h-71v554zM231 910h71v-554h-307v71h236v483z" />
<glyph unicode="&#x2580;" horiz-adv-x="708" d="M708 303h-708v607h708v-607z" />
<glyph unicode="&#x2584;" horiz-adv-x="708" d="M708 -303h-708v606h708v-606z" />
<glyph unicode="&#x2588;" horiz-adv-x="708" d="M708 -303h-708v1213h708v-1213z" />
<glyph unicode="&#x258c;" horiz-adv-x="708" d="M354 -303h-354v1213h354v-1213z" />
<glyph unicode="&#x2590;" horiz-adv-x="708" d="M708 -303h-354v1213h354v-1213z" />
<glyph unicode="&#x2591;" horiz-adv-x="708" d="M50 642h51v-48h-51v48zM252 642h51v-48h-51v48zM456 642h50v-48h-50v48zM151 546h51v-46h-51v46zM354 546h51v-46h-51v46zM557 546h50v-46h-50v46zM456 453h50v-47h-50v47zM252 453h51v-47h-51v47zM50 453h51v-47h-51v47zM557 357h50v-46h-50v46zM354 357h51v-46h-51v46z M151 357h51v-46h-51v46zM50 264h51v-47h-51v47zM252 264h51v-47h-51v47zM456 264h50v-47h-50v47zM557 168h50v-46h-50v46zM354 168h51v-46h-51v46zM151 168h51v-46h-51v46zM50 75h51v-48h-51v48zM252 75h51v-48h-51v48zM456 75h50v-48h-50v48zM151 -21h51v-45h-51v45z M354 -21h51v-45h-51v45zM557 -21h50v-45h-50v45zM456 -114h50v-48h-50v48zM252 -114h51v-48h-51v48zM50 -114h51v-48h-51v48zM151 -208h51v-47h-51v47zM354 -208h51v-47h-51v47zM557 -208h50v-47h-50v47zM151 735h51v-48h-51v48zM354 735h51v-48h-51v48zM557 735h50v-48h-50 v48zM50 830h51v-47h-51v47zM252 830h51v-47h-51v47zM456 830h50v-47h-50v47zM658 642h50v-48h-50v48zM658 453h50v-47h-50v47zM658 264h50v-47h-50v47zM658 75h50v-48h-50v48zM658 -114h50v-48h-50v48zM658 830h50v-47h-50v47z" />
<glyph unicode="&#x2592;" horiz-adv-x="708" d="M50 642h51v-48h-51v48zM151 642h51v-48h-51v48zM252 642h51v-48h-51v48zM354 642h51v-48h-51v48zM456 642h50v-48h-50v48zM557 642h50v-48h-50v48zM0 546h50v-46h-50v46zM101 546h50v-46h-50v46zM202 546h50v-46h-50v46zM303 546h51v-46h-51v46zM405 546h51v-46h-51v46z M506 546h51v-46h-51v46zM50 453h51v-47h-51v47zM151 453h51v-47h-51v47zM252 453h51v-47h-51v47zM354 453h51v-47h-51v47zM456 453h50v-47h-50v47zM557 453h50v-47h-50v47zM0 357h50v-46h-50v46zM101 357h50v-46h-50v46zM202 357h50v-46h-50v46zM303 357h51v-46h-51v46z M405 357h51v-46h-51v46zM506 357h51v-46h-51v46zM50 264h51v-47h-51v47zM151 264h51v-47h-51v47zM252 264h51v-47h-51v47zM354 264h51v-47h-51v47zM456 264h50v-47h-50v47zM557 264h50v-47h-50v47zM0 168h50v-46h-50v46zM202 168h50v-46h-50v46zM303 168h51v-46h-51v46z M405 168h51v-46h-51v46zM506 168h51v-46h-51v46zM101 168h50v-46h-50v46zM557 75h50v-48h-50v48zM456 75h50v-48h-50v48zM354 75h51v-48h-51v48zM252 75h51v-48h-51v48zM151 75h51v-48h-51v48zM50 75h51v-48h-51v48zM0 -21h50v-45h-50v45zM101 -21h50v-45h-50v45zM202 -21 h50v-45h-50v45zM303 -21h51v-45h-51v45zM405 -21h51v-45h-51v45zM506 -21h51v-45h-51v45zM557 -114h50v-48h-50v48zM456 -114h50v-48h-50v48zM354 -114h51v-48h-51v48zM252 -114h51v-48h-51v48zM151 -114h51v-48h-51v48zM50 -114h51v-48h-51v48zM0 -208h50v-47h-50v47z M101 -208h50v-47h-50v47zM202 -208h50v-47h-50v47zM303 -208h51v-47h-51v47zM405 -208h51v-47h-51v47zM506 -208h51v-47h-51v47zM0 735h50v-48h-50v48zM101 735h50v-48h-50v48zM202 735h50v-48h-50v48zM303 735h51v-48h-51v48zM405 735h51v-48h-51v48zM506 735h51v-48h-51 v48zM50 830h51v-47h-51v47zM151 830h51v-47h-51v47zM252 830h51v-47h-51v47zM354 830h51v-47h-51v47zM456 830h50v-47h-50v47zM557 830h50v-47h-50v47zM658 642h50v-48h-50v48zM607 546h51v-46h-51v46zM658 453h50v-47h-50v47zM607 357h51v-46h-51v46zM658 264h50v-47h-50 v47zM607 168h51v-46h-51v46zM658 75h50v-48h-50v48zM607 -21h51v-45h-51v45zM658 -114h50v-48h-50v48zM607 -208h51v-47h-51v47zM607 735h51v-48h-51v48zM658 830h50v-47h-50v47z" />
<glyph unicode="&#x2593;" horiz-adv-x="729" d="M729 -303h-729v141h52v48h-52v141h52v48h-52v142h52v47h-52v141h52v48h-52v141h52v48h-52v141h52v47h52v-47h52v47h52v-47h52v47h52v-47h52v47h53v-47h52v47h52v-47h52v47h52v-47h52v47h52v-95h-52v-48h52v-141h-52v-46h52v-143h-52v-46h52v-143h-52v-46h52v-143h-52v-45 h52v-142h-52v-47h52v-48zM52 546v-46h52v46h-52zM156 546v-46h52v46h-52zM260 546v-46h52v46h-52zM364 546v-46h53v46h-53zM469 453h-52v-48h52v48zM364 453h-52v-48h52v48zM260 453h-52v-48h52v48zM156 453h-52v-48h52v48zM52 357v-46h52v46h-52zM156 357v-46h52v46h-52z M260 357v-46h52v46h-52zM364 357v-46h53v46h-53zM156 264h-52v-47h52v47zM208 264v-47h52v47h-52zM312 264v-47h52v47h-52zM417 264v-47h52v47h-52zM52 168v-46h52v46h-52zM260 168v-46h52v46h-52zM208 122v46h-52v-46h52zM364 168v-46h53v46h-53zM469 27v48h-52v-48h52z M364 27v48h-52v-48h52zM260 27v48h-52v-48h52zM156 27v48h-52v-48h52zM52 -21v-45h52v45h-52zM156 -21v-45h52v45h-52zM260 -21v-45h52v45h-52zM364 -21v-45h53v45h-53zM469 -162v48h-52v-48h52zM364 -162v48h-52v-48h52zM260 -162v48h-52v-48h52zM156 -162v48h-52v-48h52z M52 -208v-47h52v47h-52zM156 -208v-47h52v47h-52zM260 -208v-47h52v47h-52zM364 -208v-47h53v47h-53zM469 642h-52v-48h52v48zM364 642h-52v-48h52v48zM260 642h-52v-48h52v48zM156 642h-52v-48h52v48zM417 735h-53v-48h53v48zM312 735h-52v-48h52v48zM208 735h-52v-48h52 v48zM104 735h-52v-48h52v48zM469 546v-46h52v46h-52zM573 546v-46h52v46h-52zM677 453h-52v-48h52v48zM573 453h-52v-48h52v48zM469 357v-46h52v46h-52zM573 357v-46h52v46h-52zM573 264h-52v-47h52v47zM625 264v-47h52v47h-52zM469 168v-46h52v46h-52zM625 122v46h-52v-46 h52zM677 27v48h-52v-48h52zM573 27v48h-52v-48h52zM469 -21v-45h52v45h-52zM573 -21v-45h52v45h-52zM677 -162v48h-52v-48h52zM573 -162v48h-52v-48h52zM469 -208v-47h52v47h-52zM573 -208v-47h52v47h-52zM677 642h-52v-48h52v48zM573 642h-52v-48h52v48zM625 735h-52v-48 h52v48zM521 735h-52v-48h52v48z" />
<glyph unicode="&#x25a0;" horiz-adv-x="604" d="M60 541h484v-484h-484v484z" />
<glyph unicode="&#x25a1;" horiz-adv-x="764" d="M708 0h-693v694h693v-694zM644 56l2 582h-573v-582h571z" />
<glyph unicode="&#x25aa;" horiz-adv-x="354" d="M301 187h-248v248h248v-248z" />
<glyph unicode="&#x25ab;" horiz-adv-x="354" d="M301 187h-248v248h248v-248zM264 224v173h-174v-173h174z" />
<glyph unicode="&#x25ac;" horiz-adv-x="1000" d="M0 301h1000v-301h-1000v301z" />
<glyph unicode="&#x25b2;" horiz-adv-x="990" d="M202 0l293 585l292 -585h-585z" />
<glyph unicode="&#x25ba;" horiz-adv-x="990" d="M196 584l598 -298l-598 -299v597z" />
<glyph unicode="&#x25bc;" horiz-adv-x="990" d="M787 572l-292 -585l-293 585h585z" />
<glyph unicode="&#x25c4;" horiz-adv-x="990" d="M794 584v-597l-598 299z" />
<glyph unicode="&#x25ca;" horiz-adv-x="494" d="M267 0h-40l-223 351l223 352h40l224 -351zM248 628l-173 -276l173 -280l172 280z" />
<glyph unicode="&#x25cb;" horiz-adv-x="604" d="M82 299q0 46 17 86t46.5 70t69.5 47.5t86 17.5t86.5 -17.5t70.5 -47.5t47 -70t17 -86t-17 -86t-47 -70t-70.5 -47t-86.5 -17t-86 17t-69.5 47t-46.5 70t-17 86zM124 299q0 -37 13.5 -69.5t37.5 -56.5t56.5 -38t69.5 -14t70 14t57 38t38 56.5t14 69.5t-14 69.5t-38 57 t-57 38.5t-70 14t-69.5 -14t-56.5 -38.5t-37.5 -57t-13.5 -69.5z" />
<glyph unicode="&#x25cf;" horiz-adv-x="604" d="M302 497q53 0 106 -28q26 -13 46 -33t34 -46t21.5 -53t7.5 -55q0 -89 -63 -152t-152 -63t-152 63t-63 152q0 29 7.5 55.5t21.5 52.5t34 46t46 33q53 28 106 28z" />
<glyph unicode="&#x25d8;" horiz-adv-x="604" d="M20 0v564h564v-564h-564zM86 282q0 -45 17 -84t46 -68t68 -46t84 -17q44 0 83.5 17t68.5 46t46 68t17 84q0 44 -17 83.5t-46 68.5t-68.5 46t-83.5 17q-45 0 -84 -17t-68 -46t-46 -68.5t-17 -83.5z" />
<glyph unicode="&#x25d9;" horiz-adv-x="604" d="M20 0v564h564v-564h-564zM124 282q0 36 14 68.5t38 57t56.5 38.5t69.5 14q36 0 68.5 -14t57 -38.5t38.5 -57t14 -68.5q0 -37 -14 -69.5t-38.5 -56.5t-57 -38t-68.5 -14q-37 0 -69.5 14t-56.5 38t-38 56.5t-14 69.5zM86 282q0 -45 17 -84t46 -68t68 -46t84 -17 q44 0 83.5 17t68.5 46t46 68t17 84q0 44 -17 83.5t-46 68.5t-68.5 46t-83.5 17q-45 0 -84 -17t-68 -46t-46 -68.5t-17 -83.5z" />
<glyph unicode="&#x25e6;" horiz-adv-x="354" d="M298 311q0 -26 -9 -47t-27 -39q-18 -17 -39 -26t-46 -9q-49 0 -86 35q-17 18 -26 39t-9 47q0 50 35 85q36 36 86 36q51 0 85 -36q36 -35 36 -85zM261 311q0 34 -25 59t-59 25t-59 -25t-25 -59t25 -60q24 -24 59 -24t59 24q25 26 25 60z" />
<glyph unicode="&#x2609;" horiz-adv-x="791" d="M742 339q0 -71 -27 -135t-75 -112.5t-111 -75.5t-134 -27t-135 27t-112 75.5t-74.5 112.5t-26.5 135q0 72 26.5 136t74.5 113t112 76t135 27t134 -27t111 -76t75 -113t27 -136zM636 227q0 78 -23.5 152.5t-66.5 134t-100 93t-120 33.5q-31 0 -60.5 -15t-54.5 -42 t-39.5 -61t-14.5 -72q0 -82 23 -157t64.5 -132t96 -88.5t115.5 -31.5q30 0 62.5 13.5t59 38.5t42.5 59.5t16 74.5zM396 408q24 0 42 -17.5t18 -42.5t-17.5 -42.5t-42.5 -17.5t-43 17.5t-18 42.5t18 42.5t43 17.5z" />
<glyph unicode="&#x261e;" horiz-adv-x="844" d="M329 192h19q49 0 49 36h-51l-68 30q-10 -8 -18.5 -14.5t-14.5 -14.5zM354 252h47q53 0 53 31q0 9 -9 21l-76 -1l-54 24q-20 -3 -35 -11t-23 -22zM376 327l55 1q29 0 44.5 7.5t15.5 23.5q0 24 -42 24h-65q-12 8 -23.5 11t-21.5 3q-20 0 -35 -7t-24 -23zM119 280 q42 -55 104 -89q6 -2 10.5 -2.5t6.5 -0.5q3 0 11.5 1.5t22.5 2.5l-63 25q6 15 16.5 27.5t24.5 25.5l-32 13q27 47 61 56l-36 17q35 66 94 66q11 0 25 -3.5t26 -11.5h49q-14 5 -28 13t-28 20q-43 -22 -90 -22l-9 1l-3 25l9 -1q25 0 49 6t47 20q42 -42 86 -42q27 0 49 17 l-75 72l-131 11q-20 -7 -63 -22.5t-108 -38.5h-93q-7 -25 -11.5 -48.5t-4.5 -46.5t3 -45t11 -46h70zM556 444q-4 -9 -11 -12l115 2q123 0 123 26q0 33 -98 33l-186 3zM11 369q0 32 6.5 61.5t17.5 58.5h109q38 18 80 34t90 30l142 -14l19 -18l205 -4q70 0 98.5 -12.5 t28.5 -44.5q0 -25 -30.5 -38.5t-87.5 -13.5l-181 -1l-17 -6q25 -14 25 -42q0 -38 -44 -52q4 -8 5 -13.5t1 -10.5q0 -46 -57 -55v-9q0 -51 -76 -51h-17l-19 8q-16 -5 -31 -7.5t-29 -2.5q-5 0 -13 1t-17 2q-56 24 -114 87h-71q-23 56 -23 113z" />
<glyph unicode="&#x263a;" horiz-adv-x="1021" d="M809 285q0 -124 -88 -211q-87 -87 -211 -87q-123 0 -211 87t-88 211q0 63 22 115.5t66 96.5q87 87 211 87t211 -87q44 -44 66 -96.5t22 -115.5zM765 285q0 106 -75 181q-73 75 -180 75q-106 0 -180 -75q-75 -75 -75 -181q0 -105 75 -180q74 -75 180 -75t180 75 q75 75 75 180zM434 347q0 -15 -11 -26.5t-27 -11.5t-27 11.5t-11 26.5q0 16 11 27t27 11t27 -11t11 -27zM662 347q0 -15 -10.5 -26.5t-26.5 -11.5t-27.5 11.5t-11.5 26.5q0 16 11.5 27t27.5 11t26.5 -11t10.5 -27zM401 206q37 -67 109 -67q71 0 108 67l30 -17 q-47 -91 -138 -91q-46 0 -80 23.5t-58 67.5z" />
<glyph unicode="&#x263b;" horiz-adv-x="1052" d="M825 285q0 -124 -88 -211t-211 -87q-124 0 -211 87q-88 87 -88 211q0 63 22 115.5t66 96.5q87 87 211 87t211 -87q44 -44 66 -96.5t22 -115.5zM450 347q0 16 -11.5 27t-26.5 11q-16 0 -27 -11t-11 -27q0 -15 11 -26.5t27 -11.5q15 0 26.5 11.5t11.5 26.5zM678 347 q0 16 -11 27t-26 11q-16 0 -27.5 -11t-11.5 -27q0 -15 11.5 -26.5t27.5 -11.5q15 0 26 11.5t11 26.5zM388 189q23 -44 57.5 -67.5t80.5 -23.5q90 0 138 91l-30 17q-37 -67 -108 -67q-72 0 -109 67z" />
<glyph unicode="&#x263c;" horiz-adv-x="917" d="M442 529h32v-106q16 -2 30 -4.5t27 -8t26 -13t27 -18.5l91 89l22 -22l-90 -90q22 -29 32.5 -56.5t12.5 -55.5h105v-30h-105q-4 -29 -15 -56t-30 -52l90 -92l-24 -21l-89 89q-15 -11 -28.5 -19t-24.5 -13q-12 -5 -26 -7.5t-31 -5.5v-106h-32v106q-31 5 -58 16t-50 28 l-92 -88l-21 22l89 90q-19 25 -30.5 52t-15.5 58h-105v30h105q6 63 45 109l-88 90l20 24l92 -89q28 19 55.5 30t53.5 14v106zM457 393q-34 0 -62.5 -12t-51.5 -36q-48 -49 -48 -115q0 -67 48 -115q23 -24 51.5 -35.5t62.5 -11.5q68 0 115 47q48 48 48 115t-48 115 q-24 24 -52.5 36t-62.5 12z" />
<glyph unicode="&#x263d;" horiz-adv-x="760" d="M612 243q-16 -64 -53 -115.5t-87.5 -82.5t-107.5 -38.5t-112 9.5q-21 7 -43 18t-36 21q61 14 103 61.5t60 118.5q13 48 7 98t-27 92.5t-57 73.5t-78 45q-14 4 -31 4.5t-33 -0.5q24 32 56 57t71 39t80.5 15t83.5 -12q58 -18 103 -58.5t73 -97.5t35.5 -121t-7.5 -127z M531 250q14 57 7.5 113.5t-31.5 105.5t-65 84.5t-91 51.5q-54 17 -108 4.5t-101 -46.5l2 -4q49 11 104 -6q45 -14 80.5 -45t57.5 -75t27.5 -94t-6.5 -100q-10 -38 -29 -70t-46.5 -56.5t-59.5 -40t-65 -19.5l-1 -3l7 -2q51 -16 102 -8.5t94.5 35.5t75 73.5t46.5 101.5z" />
<glyph unicode="&#x263e;" horiz-adv-x="760" d="M132 243q-15 63 -7.5 127t35.5 121t73 97.5t103 58.5q42 13 83.5 12t80.5 -15t71 -39t56 -57q-16 1 -33 0.5t-31 -4.5q-42 -14 -78 -45t-57 -73.5t-27 -92.5t7 -98q18 -71 60 -118.5t103 -61.5q-14 -10 -36 -21t-43 -18q-55 -17 -112 -9.5t-107.5 38.5t-87.5 82.5 t-53 115.5zM213 250q15 -56 46.5 -101.5t75 -73.5t94.5 -35.5t102 8.5l7 2l-1 3q-33 4 -65 19.5t-59.5 40t-46.5 56.5t-29 70q-12 50 -6.5 100t27.5 94t57.5 75t80.5 45q55 17 104 6l2 4q-47 34 -101 46.5t-108 -4.5q-51 -16 -91 -51.5t-65 -84.5t-31.5 -105.5t7.5 -113.5z " />
<glyph unicode="&#x263f;" horiz-adv-x="528" d="M525 747q0 -30 -12 -66.5t-35 -75t-53 -68.5t-65 -43q64 -23 110 -86.5t46 -140.5q0 -82 -51 -146t-131 -88v-174h124v-37h-124v-130h-118v130h-120v37h120v174q-75 15 -129.5 82t-54.5 150q0 77 41 136t106 87q-63 20 -111.5 85t-65.5 174q45 -106 125.5 -156t171.5 -52 q42 0 81.5 17t70 46t49 66.5t25.5 78.5zM429 216q0 47 -17 93t-46.5 83t-66.5 58.5t-75 21.5q-44 0 -73.5 -39t-29.5 -102q0 -47 18 -94t48.5 -85.5t66.5 -60t72 -21.5q103 0 103 146z" />
<glyph unicode="&#x2640;" horiz-adv-x="525" d="M519 362q0 -95 -59 -166.5t-151 -88.5v-188h122v-33h-122v-136h-110v136h-120v33h120v192q-83 21 -138 90.5t-55 158.5q0 51 19 97t54.5 82t81 57t97.5 21t100.5 -19t85 -54t56 -82t19.5 -100zM421 309q0 58 -17 105t-46.5 80t-64.5 50.5t-74 17.5q-46 0 -78.5 -40.5 t-32.5 -100.5q0 -55 15 -104t42 -86t64 -58.5t82 -21.5q51 0 80.5 43t29.5 115z" />
<glyph unicode="&#x2641;" horiz-adv-x="521" d="M7 139q0 95 59 166.5t151 88.5v188h-122v33h122v136h110v-136h120v-33h-120v-192q83 -21 138 -90.5t55 -158.5q0 -51 -19 -97t-54.5 -82t-81 -57t-97.5 -21t-100.5 19t-85 54t-56 82t-19.5 100zM105 192q0 -58 17 -105t46.5 -80t64.5 -50.5t74 -17.5q46 0 78.5 40.5 t32.5 100.5q0 55 -15 104t-42 86t-64 58.5t-82 21.5q-51 0 -80.5 -43t-29.5 -115z" />
<glyph unicode="&#x2642;" horiz-adv-x="781" d="M632 357v145l-141 -120q46 -65 46 -145q0 -51 -19.5 -97t-54 -80.5t-80.5 -54t-97 -19.5t-97 19.5t-81 54.5t-54.5 80.5t-19.5 96.5t19.5 97t54.5 80.5t81 54t97 19.5q53 0 100.5 -21t81.5 -58l143 122h-139l275 91zM451 157q0 45 -17 96t-47 95t-68 70.5t-78 26.5 q-45 0 -76 -39t-31 -95q0 -51 16.5 -102t45 -93t64.5 -66t72 -24q48 0 83.5 33.5t35.5 97.5z" />
<glyph unicode="&#x2643;" horiz-adv-x="540" d="M394 144v-142h-74v142h-287q23 29 86 99q46 51 77.5 87.5t58 72.5t43 71.5t16.5 64.5q0 42 -31.5 70.5t-69.5 28.5q-47 0 -89.5 -23t-68.5 -73q10 75 63 117.5t127 42.5q70 0 114 -38t44 -100q0 -42 -18 -81.5t-48 -77.5t-65.5 -73t-90.5 -85q-56 -51 -78 -73h217v94 l74 88v-182h120v-30h-120z" />
</font>
</defs>
</svg>
